<svg width="26" height="26" viewBox="0 0 26 26" fill="none" xmlns="http://www.w3.org/2000/svg">
<g clip-path="url(#clip0_133_28)">
<path d="M5.49436 7.84736e-08H20.5047C21.2263 -0.000121876 21.9409 0.141904 22.6076 0.417967C23.2743 0.694029 23.8801 1.09872 24.3904 1.60893C24.9007 2.11914 25.3055 2.72488 25.5817 3.39154C25.8579 4.05821 26 4.77275 26 5.49436V20.5047C26.0001 21.2263 25.8581 21.9409 25.582 22.6076C25.306 23.2743 24.9013 23.8801 24.3911 24.3904C23.8809 24.9007 23.2751 25.3055 22.6085 25.5817C21.9418 25.8579 21.2272 26 20.5056 26H5.49436C4.77283 26 4.05836 25.8579 3.39176 25.5818C2.72515 25.3056 2.11946 24.9009 1.60926 24.3907C1.09906 23.8805 0.69435 23.2748 0.418233 22.6082C0.142116 21.9416 0 21.2272 0 20.5056L0 5.49436C0 4.03716 0.578868 2.63965 1.60926 1.60926C2.63965 0.578868 4.03716 7.84736e-08 5.49436 7.84736e-08Z" fill="url(#paint0_linear_133_28)"/>
<g clip-path="url(#clip1_133_28)">
<path d="M13.4338 6.47581C13.6851 6.33576 14.1611 6.39661 14.2569 6.82289L15.136 10.7316C15.5618 12.625 14.2316 15.1276 12.6157 15.491C10.9999 15.8544 8.72634 14.1622 8.30053 12.2688L7.42149 8.36012C7.3242 7.92752 7.72923 7.70227 8.01676 7.69407C10.0627 7.63574 11.6484 7.47108 13.4338 6.47581Z" fill="black"/>
<path d="M11.5583 11.4654C11.2948 11.5246 10.4552 11.7642 9.74541 13.0088C9.65052 13.1751 9.58309 13.4148 9.62024 13.58C9.67536 13.8239 9.89494 13.8657 10.1617 13.5989C10.781 13.068 11.2268 12.8549 11.8398 12.7171C12.4528 12.5792 12.9469 12.5809 13.7339 12.7956C14.0892 12.9225 14.2697 12.7907 14.2151 12.5466C14.1779 12.3814 14.0144 12.1937 13.8574 12.084C12.6831 11.2632 11.8218 11.4061 11.5583 11.4654Z" fill="#FEDB68"/>
<path d="M9.38143 10.8187C9.13318 10.7412 8.89443 10.512 8.75572 10.3286C8.67731 10.2279 8.64575 10.0285 8.85901 10.0416C9.50205 10.0812 10.1042 9.95467 10.6593 9.63673C10.8447 9.53054 10.9033 9.72732 10.8755 9.85189C10.8287 10.077 10.7111 10.3864 10.5199 10.5627C10.2466 10.8146 9.74638 10.9325 9.38143 10.8187ZM12.6234 10.0896C12.3752 10.0121 12.1364 9.7829 11.9977 9.59951C11.9193 9.49882 11.8878 9.29937 12.101 9.3125C12.7441 9.35211 13.3462 9.22556 13.9013 8.90763C14.0867 8.80144 14.1453 8.99822 14.1175 9.12278C14.0707 9.3479 13.9531 9.65729 13.7619 9.83356C13.4886 10.0855 12.9884 10.2034 12.6234 10.0896Z" fill="#FEDB68"/>
<path d="M13.7324 9.77583C13.488 9.63963 13.0251 9.69881 12.9319 10.1133L12.0771 13.9144C11.663 15.7557 12.9566 18.1894 14.5279 18.5427C16.0992 18.8961 18.3102 17.2506 18.7243 15.4093L19.5791 11.6082C19.6737 11.1875 19.2798 10.9685 19.0002 10.9605C17.0107 10.9038 15.4686 10.7437 13.7324 9.77583Z" fill="black"/>
<path d="M14.8581 16.8334C14.6019 16.7758 13.7855 16.5428 13.0952 15.3326C13.0029 15.1708 12.9373 14.9377 12.9735 14.7771C13.0271 14.5398 13.2406 14.4992 13.5 14.7586C14.1022 15.2749 14.5358 15.4821 15.1319 15.6162C15.728 15.7503 16.2085 15.7486 16.9738 15.5398C17.3193 15.4164 17.4949 15.5446 17.4418 15.7819C17.4056 15.9426 17.2466 16.1251 17.0939 16.2318C15.952 17.03 15.1144 16.8911 14.8581 16.8334Z" fill="#FEDB68"/>
<path d="M13.7273 12.1535C13.4859 12.2288 13.2537 12.4517 13.1188 12.63C13.0426 12.728 13.0119 12.9219 13.2193 12.9091C13.8446 12.8706 14.4302 12.9937 14.97 13.3029C15.1503 13.4061 15.2072 13.2148 15.1803 13.0936C15.1347 12.8747 15.0203 12.5739 14.8344 12.4024C14.5686 12.1574 14.0822 12.0428 13.7273 12.1535ZM16.88 12.8625C16.6386 12.9378 16.4064 13.1607 16.2715 13.3391C16.1953 13.437 16.1646 13.6309 16.372 13.6182C16.9973 13.5797 17.5829 13.7027 18.1227 14.0119C18.303 14.1152 18.3599 13.9238 18.333 13.8027C18.2874 13.5837 18.173 13.2829 17.9871 13.1115C17.7213 12.8664 17.2349 12.7518 16.88 12.8625Z" fill="#FEDB68"/>
</g>
</g>
<defs>
<linearGradient id="paint0_linear_133_28" x1="2.89424" y1="0.522944" x2="23.2433" y2="25.6615" gradientUnits="userSpaceOnUse">
<stop stop-color="#FEDB68"/>
<stop offset="1" stop-color="#FEDB68"/>
</linearGradient>
<clipPath id="clip0_133_28">
<rect width="26" height="26" fill="white"/>
</clipPath>
<clipPath id="clip1_133_28">
<rect width="13" height="13" fill="white" transform="translate(7 6)"/>
</clipPath>
</defs>
</svg>
