<svg width="100" height="100" viewBox="0 0 100 100" fill="none" xmlns="http://www.w3.org/2000/svg">
<circle cx="50" cy="50" r="50" fill="#FEDB68" fill-opacity="0.8"/>
<path d="M39.3164 58.2536C39.35 58.2935 39.3841 58.3329 39.4188 58.372C39.3841 58.3329 39.35 58.2935 39.3164 58.2536ZM39.4383 58.3938C39.471 58.4303 39.504 58.4665 39.5375 58.5023C39.504 58.4665 39.4709 58.4303 39.4383 58.3938ZM38.9816 57.8225C39.0119 57.865 39.0427 57.9072 39.074 57.9489C39.0427 57.9071 39.0119 57.865 38.9816 57.8225ZM39.095 57.9768C39.127 58.0191 39.1595 58.061 39.1924 58.1027C39.1593 58.0611 39.1269 58.0192 39.095 57.9768ZM39.1979 58.1094C39.2298 58.1494 39.2622 58.189 39.2951 58.2282C39.2623 58.189 39.2298 58.1494 39.1979 58.1094ZM46.2207 31.0542C46.2137 31.0779 46.2069 31.1016 46.2002 31.1253C46.2069 31.1016 46.2138 31.0779 46.2207 31.0542ZM46.3667 30.5932C46.3586 30.6169 46.3506 30.6406 46.3427 30.6644C46.3507 30.6407 46.3586 30.6169 46.3667 30.5932ZM46.3156 30.7467C46.3079 30.7703 46.3003 30.794 46.2928 30.8177C46.3003 30.794 46.3079 30.7703 46.3156 30.7467ZM46.2669 30.9003C46.2596 30.924 46.2524 30.9476 46.2453 30.9713C46.2525 30.9476 46.2596 30.924 46.2669 30.9003ZM46.1769 31.2083C46.1703 31.232 46.1639 31.2557 46.1575 31.2794C46.1639 31.2557 46.1703 31.232 46.1769 31.2083ZM38.785 57.5296C38.8129 57.5737 38.8413 57.6174 38.8702 57.6608C38.8413 57.6174 38.8129 57.5737 38.785 57.5296ZM45.8348 34.7152C45.8346 34.7124 45.8344 34.7095 45.8342 34.7066C45.8344 34.7095 45.8346 34.7124 45.8348 34.7152V34.7152ZM40.2168 59.1356C40.2589 59.1699 40.3016 59.2038 40.3448 59.2372C40.3017 59.2037 40.259 59.1699 40.2168 59.1356ZM40.3723 59.2584C40.4155 59.2916 40.4591 59.3244 40.5032 59.3568C40.459 59.3244 40.4154 59.2916 40.3723 59.2584ZM39.551 58.517C39.5873 58.5555 39.6241 58.5936 39.6614 58.6313C39.6242 58.5936 39.5874 58.5554 39.551 58.517ZM39.8102 58.7777C39.847 58.8127 39.8841 58.8473 39.9218 58.8815C39.8842 58.8472 39.847 58.8126 39.8102 58.7777ZM40.0878 59.0279C40.1266 59.0611 40.1659 59.094 40.2057 59.1265C40.1659 59.094 40.1266 59.0611 40.0878 59.0279ZM40.5185 59.3678C40.5599 59.398 40.6016 59.4277 40.6439 59.4571C40.6017 59.4277 40.5599 59.3979 40.5185 59.3678ZM46.5825 34.8583C46.6908 36.4007 46.6399 37.7655 46.1622 39.0868C46.6399 37.7655 46.6908 36.4007 46.5825 34.8583Z" fill="#673AB7"/>
<path d="M60.6699 21.4186C60.0984 20.8295 59.4333 20.3066 58.7971 19.9462C57.9535 19.4683 57.1802 19.2765 56.4989 19.3764C55.7201 19.4904 55.1044 19.9729 54.669 20.8103C53.9505 22.1922 53.206 22.9945 51.8238 23.8766C49.8328 25.1473 48.2005 26.878 47.147 28.8174C47.2422 29.1318 47.3294 29.4429 47.4087 29.7508L47.4404 29.8739L47.3897 29.9894C48.3388 27.8289 50.0539 25.8781 52.2193 24.4963C53.7049 23.5481 54.5456 22.6411 55.3212 21.1494C55.646 20.5247 56.0661 20.1826 56.6054 20.1037C56.6881 20.0917 56.7716 20.0858 56.8551 20.086C57.9546 20.086 59.2894 21.0511 60.1423 21.9304C62.2333 24.0863 62.5827 27.352 62.6637 29.6208C62.8051 33.5808 62.3687 36.7369 61.3294 39.2694C60.8648 40.4017 60.0793 41.979 58.9759 43.0634C58.6797 43.3543 58.302 43.5934 57.902 43.8466C57.1269 44.3371 56.3254 44.8445 55.9995 45.806C55.72 46.6313 55.7849 47.6027 55.8476 48.5422C55.8847 49.098 55.9198 49.6229 55.8839 50.0921C55.8101 51.0578 55.4948 51.9317 55.161 52.8569C55.1043 53.0141 55.0456 53.1767 54.9881 53.3398C54.3075 55.2711 52.9493 57.0166 50.8361 58.676C49.5161 59.7124 47.6686 60.2597 45.8096 60.2597C44.6598 60.2596 43.5054 60.0502 42.4692 59.6177C42.1874 59.5005 41.9126 59.3673 41.6461 59.2187L42.2834 59.5754L41.6172 59.8746C41.5611 59.8998 41.505 59.924 41.4488 59.948C41.6842 60.0729 41.9313 60.1898 42.186 60.2961C43.2943 60.7586 44.5609 61 45.8387 61C46.197 61.0001 46.555 60.981 46.9113 60.9428C48.6001 60.7613 50.1142 60.1774 51.29 59.2541C52.3333 58.4349 53.1787 57.6196 53.8744 56.7615C54.6809 55.7668 55.2889 54.6978 55.6814 53.5841C55.738 53.4236 55.7962 53.2623 55.8524 53.1063C56.2036 52.1328 56.5354 51.2134 56.6168 50.1482C56.6567 49.6265 56.6182 49.0504 56.581 48.4932C56.523 47.6256 56.4631 46.7284 56.6957 46.0419C56.9381 45.3265 57.5973 44.9093 58.2951 44.4676C58.71 44.205 59.139 43.9335 59.491 43.5877C60.6834 42.4159 61.5187 40.7444 62.0094 39.5484C63.0892 36.9172 63.5435 33.6612 63.3983 29.5946C63.313 27.2044 62.9374 23.7565 60.6699 21.4186ZM37.6812 54.0904C37.6588 53.8273 37.6472 53.5586 37.6465 53.2842C37.6472 53.5583 37.6588 53.827 37.6812 54.0904ZM39.7995 58.7681C39.7607 58.7311 39.7226 58.6936 39.685 58.6557C39.7227 58.6935 39.7608 58.731 39.7995 58.7681Z" fill="#673AB7"/>
<path d="M42.2835 59.5754L41.6463 59.2187C39.7024 58.1304 38.6148 56.384 38.4137 54.0279C38.3962 53.823 38.3857 53.6164 38.3821 53.4082C38.3763 53.0576 38.3883 52.7069 38.418 52.3576C38.7498 48.4045 41.2319 44.1802 43.7182 42.167C43.8149 42.0888 43.9155 42.0092 44.0129 41.9323C44.5685 41.4935 45.143 41.0397 45.5295 40.4025C45.7835 39.9861 45.9953 39.5453 46.1617 39.0868C46.6394 37.7655 46.6903 36.4007 46.582 34.8583C46.5774 34.7919 46.5724 34.7252 46.5672 34.6581C46.548 34.4119 46.5385 34.1659 46.5388 33.92C46.5402 33.1789 46.6289 32.4406 46.8032 31.7203C46.9469 31.1274 47.1431 30.5484 47.3894 29.9902L47.3898 29.9894L47.4405 29.8739L47.4088 29.7508C47.3296 29.4428 47.2423 29.1316 47.1472 28.8173C46.6994 27.3372 46.0738 25.7801 45.2487 24.0894C45.2475 24.1321 45.2324 24.1733 45.2056 24.2065C45.0589 24.3884 44.9042 24.5628 44.7415 24.7296C45.6167 26.5614 46.2481 28.2299 46.6654 29.8126C46.6629 29.8184 46.6605 29.8243 46.6581 29.8301C46.6477 29.8545 46.6376 29.879 46.6274 29.9034C46.6165 29.9296 46.6056 29.9559 46.5948 29.9821C46.585 30.0063 46.5754 30.0306 46.5657 30.0548C46.5551 30.0814 46.5444 30.1079 46.534 30.1345C46.5246 30.1585 46.5155 30.1826 46.5062 30.2067C46.496 30.2334 46.4857 30.2602 46.4757 30.287C46.4667 30.311 46.458 30.335 46.4492 30.359C46.4393 30.386 46.4295 30.413 46.4197 30.4399C46.4112 30.4638 46.4028 30.4878 46.3945 30.5117C46.385 30.5388 46.3755 30.566 46.3662 30.5932C46.3581 30.6169 46.3501 30.6407 46.3422 30.6644C46.3331 30.6918 46.324 30.7192 46.3151 30.7467C46.3074 30.7703 46.2998 30.794 46.2923 30.8177C46.2836 30.8452 46.275 30.8728 46.2664 30.9003C46.2591 30.924 46.2519 30.9476 46.2448 30.9712C46.2365 30.9989 46.2283 31.0266 46.2202 31.0542C46.2133 31.0779 46.2064 31.1016 46.1997 31.1253C46.1918 31.153 46.1841 31.1806 46.1764 31.2083C46.1698 31.232 46.1634 31.2557 46.157 31.2794C46.1496 31.3072 46.1422 31.335 46.135 31.3628C46.1288 31.3864 46.1228 31.41 46.1169 31.4336C46.1098 31.4616 46.1028 31.4895 46.096 31.5175C46.0902 31.5411 46.0846 31.5647 46.079 31.5883C46.0724 31.6163 46.0659 31.6443 46.0595 31.6723C46.0541 31.6959 46.0488 31.7195 46.0436 31.7431C46.0374 31.7712 46.0313 31.7993 46.0254 31.8274C46.0204 31.851 46.0155 31.8746 46.0106 31.8982C46.0094 31.904 46.0082 31.9097 46.007 31.9154C46.0927 31.8709 46.1879 31.8209 46.3006 31.7617L46.403 31.7079C46.4258 31.696 46.4507 31.6886 46.4764 31.6863C46.502 31.684 46.5279 31.6867 46.5524 31.6944C46.577 31.702 46.5998 31.7144 46.6196 31.7309C46.6394 31.7474 46.6557 31.7676 46.6677 31.7904C46.6796 31.8132 46.687 31.8381 46.6893 31.8638C46.6917 31.8894 46.6889 31.9152 46.6813 31.9398C46.6736 31.9644 46.6612 31.9872 46.6447 32.007C46.6282 32.0268 46.608 32.0431 46.5852 32.0551L46.4829 32.1088C46.3376 32.1851 46.2207 32.2465 46.1162 32.3003L46.1838 32.5179C46.1964 32.5579 46.1958 32.6008 46.1821 32.6403C46.1685 32.6799 46.1425 32.714 46.108 32.7377C46.0735 32.7614 46.0324 32.7734 45.9905 32.772C45.9487 32.7706 45.9085 32.7558 45.8757 32.7298C45.8744 32.7404 45.8733 32.751 45.872 32.7615C45.8693 32.7852 45.8665 32.8089 45.8639 32.8327C45.8608 32.861 45.8579 32.8894 45.855 32.9178C45.8526 32.9415 45.8502 32.9653 45.848 32.989C45.8453 33.0175 45.8429 33.0459 45.8404 33.0743C45.8384 33.098 45.8363 33.1217 45.8345 33.1454C45.8322 33.174 45.8303 33.2026 45.8283 33.2311C45.8267 33.2547 45.8249 33.2783 45.8235 33.3019C45.8217 33.3306 45.8202 33.3593 45.8186 33.388C45.8173 33.4116 45.816 33.4351 45.8149 33.4587C45.8135 33.4874 45.8125 33.5161 45.8114 33.5449C45.8105 33.5684 45.8095 33.592 45.8087 33.6155C45.8078 33.6444 45.8072 33.6733 45.8066 33.7021C45.8061 33.7256 45.8054 33.749 45.805 33.7724C45.8046 33.8016 45.8045 33.8308 45.8043 33.8601C45.8041 33.8832 45.8038 33.9062 45.8038 33.9293C45.8038 33.959 45.8041 33.9887 45.8044 34.0183C45.8046 34.041 45.8047 34.0637 45.805 34.0864C45.8055 34.1166 45.8063 34.1467 45.8071 34.1769C45.8076 34.1991 45.808 34.2214 45.8087 34.2436C45.8096 34.2749 45.811 34.3062 45.8123 34.3375C45.8131 34.3586 45.8138 34.3797 45.8148 34.4008C45.8164 34.4354 45.8184 34.47 45.8204 34.5046C45.8214 34.5224 45.8222 34.5402 45.8233 34.558C45.8264 34.6075 45.8299 34.6571 45.8337 34.7066C45.834 34.7095 45.8341 34.7123 45.8343 34.7152C45.94 36.0708 45.9329 37.2298 45.6329 38.3303C45.7433 38.2685 45.8536 38.2044 45.9639 38.138C45.986 38.1247 46.0104 38.1159 46.0359 38.1121C46.0613 38.1082 46.0873 38.1094 46.1123 38.1156C46.1372 38.1218 46.1608 38.1328 46.1815 38.1481C46.2022 38.1634 46.2197 38.1826 46.233 38.2046C46.2463 38.2267 46.2551 38.2511 46.259 38.2766C46.2628 38.302 46.2616 38.328 46.2554 38.353C46.2492 38.378 46.2382 38.4015 46.2229 38.4222C46.2076 38.4429 46.1884 38.4604 46.1664 38.4737C45.9335 38.6142 45.6981 38.7457 45.4602 38.8683C45.3113 39.2697 45.1241 39.6557 44.9011 40.0212C44.8106 40.1684 44.7073 40.3074 44.5923 40.4364C44.63 40.6623 44.6673 40.8883 44.704 41.1144C44.7084 41.1399 44.7077 41.166 44.702 41.1913C44.6962 41.2165 44.6855 41.2404 44.6704 41.2615C44.6554 41.2826 44.6363 41.3005 44.6143 41.3141C44.5923 41.3278 44.5678 41.337 44.5422 41.3411C44.5167 41.3453 44.4905 41.3443 44.4653 41.3383C44.4401 41.3323 44.4164 41.3213 44.3954 41.3061C44.3745 41.2908 44.3568 41.2716 44.3433 41.2494C44.3299 41.2273 44.321 41.2027 44.3171 41.1771C44.2956 41.0447 44.2739 40.9124 44.2518 40.78C44.0363 40.9768 43.8 41.1638 43.5573 41.3555C43.4582 41.4337 43.3558 41.5147 43.2557 41.5957C42.179 42.4675 41.1349 43.6881 40.2481 45.0905C40.1647 45.2224 40.0827 45.3559 40.0022 45.4911C39.9973 45.7795 39.9915 46.0679 39.9847 46.3561C39.9834 46.4072 39.9622 46.4558 39.9256 46.4915C39.8891 46.5273 39.8399 46.5473 39.7888 46.5473C39.7872 46.5473 39.7856 46.5473 39.7839 46.5473C39.732 46.546 39.6826 46.5241 39.6468 46.4865C39.6109 46.4489 39.5915 46.3985 39.5927 46.3465C39.5938 46.3008 39.5947 46.2549 39.5957 46.2092C39.439 46.5011 39.2898 46.798 39.1481 47.0997C39.1438 47.1089 39.1397 47.1182 39.1354 47.1274C39.2105 47.1274 39.2856 47.1268 39.3607 47.1259C39.3617 47.1258 39.3627 47.1258 39.3636 47.1258C39.4153 47.1259 39.4649 47.1464 39.5016 47.1828C39.5382 47.2193 39.559 47.2687 39.5594 47.3204C39.5598 47.3721 39.5397 47.4219 39.5036 47.4589C39.4674 47.4958 39.4182 47.517 39.3665 47.5178C39.2831 47.5191 39.1992 47.5197 39.1157 47.5197C39.0634 47.5197 39.011 47.519 38.9586 47.5185C38.4923 48.5841 38.1449 49.66 37.9253 50.7068C37.886 50.8942 37.8509 51.0806 37.8201 51.2659C37.9262 51.2519 38.0405 51.2349 38.1684 51.2141C38.1938 51.2099 38.2197 51.2109 38.2448 51.2168C38.2699 51.2227 38.2935 51.2334 38.3144 51.2485C38.3353 51.2635 38.353 51.2825 38.3665 51.3044C38.3801 51.3263 38.3892 51.3507 38.3933 51.3761C38.3974 51.4015 38.3965 51.4275 38.3906 51.4525C38.3847 51.4776 38.3739 51.5012 38.3589 51.5221C38.3438 51.543 38.3248 51.5607 38.3029 51.5743C38.281 51.5878 38.2567 51.5969 38.2313 51.601C38.0538 51.6299 37.9002 51.6518 37.7588 51.6685C37.6842 52.2038 37.6467 52.7437 37.6466 53.2842C37.6474 53.5582 37.659 53.8269 37.6813 54.0904C37.7375 54.792 37.8836 55.4836 38.116 56.148C38.1317 56.1413 38.1474 56.1348 38.163 56.1279C38.1866 56.1174 38.212 56.1116 38.2378 56.111C38.2637 56.1103 38.2894 56.1147 38.3135 56.124C38.3376 56.1334 38.3597 56.1473 38.3783 56.1652C38.397 56.1831 38.412 56.2044 38.4224 56.2281C38.4328 56.2518 38.4384 56.2773 38.4389 56.3031C38.4394 56.329 38.4348 56.3546 38.4253 56.3787C38.4158 56.4027 38.4017 56.4247 38.3837 56.4433C38.3658 56.4618 38.3443 56.4767 38.3205 56.4869C38.2996 56.4961 38.2784 56.5051 38.2574 56.5141C38.3791 56.8066 38.5211 57.0903 38.6822 57.363C38.7097 57.4093 38.7378 57.4551 38.7663 57.5006C38.7724 57.5102 38.7784 57.5199 38.7845 57.5295C38.8124 57.5736 38.8409 57.6174 38.8697 57.6607C38.8749 57.6684 38.8801 57.676 38.8853 57.6837C38.9121 57.7236 38.9394 57.7631 38.9671 57.8023C38.9718 57.809 38.9764 57.8157 38.9812 57.8224C39.0114 57.8649 39.0422 57.9071 39.0735 57.9489C39.0805 57.9582 39.0875 57.9675 39.0945 57.9767C39.1265 58.019 39.159 58.061 39.1919 58.1026C39.1937 58.1049 39.1956 58.1071 39.1974 58.1094C39.2293 58.1494 39.2617 58.189 39.2946 58.2282C39.3017 58.2367 39.3088 58.2452 39.3159 58.2536C39.3495 58.2934 39.3837 58.3329 39.4183 58.3719C39.4248 58.3793 39.4313 58.3865 39.4379 58.3938C39.4705 58.4303 39.5035 58.4664 39.537 58.5023C39.5416 58.5071 39.546 58.5121 39.5506 58.5169C39.5869 58.5554 39.6236 58.5936 39.661 58.6313C39.669 58.6394 39.677 58.6475 39.6851 58.6556C39.7228 58.6935 39.761 58.7309 39.7996 58.768C39.803 58.7713 39.8064 58.7744 39.8098 58.7776C39.8465 58.8126 39.8837 58.8472 39.9213 58.8814C39.929 58.8884 39.9366 58.8954 39.9443 58.9023C39.9836 58.9379 40.0235 58.9731 40.0639 59.0079C40.0717 59.0145 40.0795 59.0212 40.0873 59.0278C40.1262 59.061 40.1655 59.0939 40.2052 59.1264C40.2089 59.1295 40.2126 59.1326 40.2163 59.1356C40.2585 59.1699 40.3011 59.2037 40.3444 59.2371C40.3535 59.2442 40.3627 59.2513 40.3719 59.2584C40.415 59.2915 40.4586 59.3243 40.5027 59.3567C40.5078 59.3604 40.513 59.3641 40.518 59.3678C40.5594 59.3979 40.6012 59.4277 40.6434 59.4571C40.6486 59.4607 40.6537 59.4645 40.659 59.4682C39.8971 59.7385 39.1336 59.8853 38.3813 59.9052C38.1357 59.9117 37.8957 59.9077 37.6611 59.8932C37.6754 59.9329 37.6765 59.9761 37.6642 60.0165C37.652 60.0568 37.627 60.0921 37.5931 60.1172C37.5591 60.1422 37.518 60.1557 37.4758 60.1555C37.4337 60.1553 37.3927 60.1415 37.359 60.1162C37.2345 60.0226 37.1127 59.9244 36.9936 59.8217C35.2857 59.5571 33.9016 58.6859 32.8644 57.2195C32.7828 57.2075 32.7014 57.1948 32.6202 57.1808C32.5019 57.1603 32.418 57.0558 32.416 56.9267C32.4135 56.8841 32.4241 56.8418 32.4464 56.8055C32.4687 56.7692 32.5017 56.7407 32.5408 56.7237C31.5341 55.0517 31.0475 52.898 30.975 50.7213C30.8252 50.6205 30.6951 50.4933 30.591 50.3459C30.5762 50.3248 30.5658 50.301 30.5603 50.2759C30.5548 50.2507 30.5542 50.2247 30.5587 50.1994C30.5633 50.174 30.5727 50.1498 30.5866 50.1282C30.6005 50.1065 30.6185 50.0877 30.6396 50.073C30.6607 50.0583 30.6845 50.0478 30.7096 50.0423C30.7348 50.0368 30.7608 50.0363 30.7861 50.0408C30.8115 50.0453 30.8357 50.0548 30.8573 50.0686C30.879 50.0825 30.8978 50.1005 30.9125 50.1216C30.9292 50.1455 30.9468 50.1685 30.9655 50.1906C30.9614 48.6558 31.1587 47.1284 31.5208 45.7684C31.4846 45.7508 31.4482 45.7334 31.4121 45.7155C31.3888 45.7042 31.3679 45.6884 31.3508 45.669C31.3336 45.6497 31.3204 45.6271 31.312 45.6026C31.3036 45.5781 31.3002 45.5521 31.3019 45.5263C31.3036 45.5004 31.3104 45.4752 31.3219 45.452C31.3334 45.4288 31.3494 45.4081 31.3689 45.3911C31.3885 45.3741 31.4112 45.3612 31.4358 45.353C31.4604 45.3448 31.4863 45.3417 31.5121 45.3436C31.538 45.3455 31.5632 45.3526 31.5862 45.3643C31.6003 45.3713 31.6145 45.378 31.6286 45.3849C31.8344 44.6901 32.0841 44.0452 32.373 43.474C32.429 43.3632 32.4882 43.2497 32.5454 43.1399C32.8727 42.5118 33.2111 41.8624 33.3029 41.1224C33.3545 40.7107 33.3714 40.2953 33.3533 39.8808C33.0703 39.7533 32.8397 39.6005 32.6613 39.4224C32.6429 39.4042 32.6282 39.3826 32.6182 39.3588C32.6082 39.335 32.6029 39.3094 32.6028 39.2836C32.6027 39.2578 32.6077 39.2322 32.6175 39.2083C32.6273 39.1844 32.6418 39.1626 32.66 39.1443C32.6782 39.126 32.6999 39.1115 32.7238 39.1016C32.7477 39.0917 32.7732 39.0867 32.7991 39.0867C32.8249 39.0867 32.8505 39.0919 32.8743 39.1018C32.8982 39.1118 32.9198 39.1264 32.938 39.1447C33.0515 39.2551 33.1796 39.3494 33.3187 39.425C33.1696 38.058 32.6351 36.8093 31.8967 35.4568C31.4397 34.6155 31.1137 33.7094 30.9298 32.7698C30.7687 32.7043 30.6053 32.637 30.4383 32.5677C30.3907 32.5475 30.353 32.5093 30.3334 32.4614C30.3139 32.4135 30.314 32.3599 30.3338 32.3121C30.3537 32.2644 30.3916 32.2264 30.4393 32.2064C30.487 32.1865 30.5406 32.1862 30.5885 32.2056C30.6771 32.2424 30.7641 32.2783 30.8505 32.3139C30.5858 30.5575 30.7766 28.6868 31.4089 26.8659L31.1302 26.842C31.0786 26.8374 31.0308 26.8125 30.9975 26.7728C30.9641 26.7331 30.9479 26.6817 30.9523 26.63C30.9567 26.5784 30.9815 26.5305 31.0211 26.4971C31.0607 26.4636 31.112 26.4472 31.1637 26.4514L31.5481 26.4845C31.9006 25.5678 32.3508 24.6917 32.8909 23.8714C32.9639 23.7601 33.0335 23.6505 33.0999 23.5426C33.1586 23.1983 33.236 22.8575 33.3317 22.5216C33.3418 22.4861 33.3618 22.4541 33.3893 22.4295C33.4168 22.4048 33.4507 22.3884 33.4871 22.3822C33.5235 22.376 33.561 22.3802 33.5951 22.3943C33.6292 22.4085 33.6587 22.432 33.68 22.4622C33.7719 22.2585 33.853 22.0554 33.9244 21.8505C33.7966 21.8492 33.6696 21.8439 33.5437 21.8346C33.4918 21.8307 33.4437 21.8064 33.4098 21.767C33.3759 21.7275 33.359 21.6763 33.3629 21.6244C33.3668 21.5726 33.3912 21.5244 33.4306 21.4905C33.47 21.4566 33.5213 21.4398 33.5731 21.4437C33.7297 21.4555 33.8881 21.4603 34.0483 21.4583C34.2152 20.871 34.3091 20.2544 34.3498 19.5478C34.3902 18.8449 34.6334 18.3608 35.093 18.0678C35.231 17.9815 35.3796 17.9136 35.5351 17.8657C35.516 17.8329 35.4971 17.8001 35.4778 17.7674C35.4647 17.7452 35.4561 17.7207 35.4525 17.6952C35.4488 17.6697 35.4503 17.6438 35.4567 17.6188C35.4631 17.5939 35.4744 17.5705 35.4899 17.5499C35.5053 17.5293 35.5247 17.512 35.5469 17.4989C35.569 17.4858 35.5936 17.4772 35.619 17.4736C35.6445 17.47 35.6705 17.4714 35.6954 17.4779C35.7203 17.4843 35.7438 17.4955 35.7643 17.511C35.7849 17.5265 35.8022 17.5459 35.8153 17.568C35.8559 17.6366 35.8958 17.7055 35.9353 17.7746C36.1173 17.748 36.301 17.7351 36.485 17.7358C36.8785 17.7398 37.2707 17.7827 37.6558 17.8639C37.6636 17.831 37.6798 17.8007 37.7028 17.7759C37.7258 17.7511 37.7548 17.7327 37.7871 17.7224C37.8193 17.7122 37.8536 17.7104 37.8867 17.7174C37.9198 17.7243 37.9505 17.7397 37.9759 17.762C38.0644 17.8399 38.1492 17.9205 38.2311 18.0032C38.5147 18.0828 38.794 18.177 39.0678 18.2856C39.4319 18.4311 39.7831 18.6072 40.1176 18.8119C40.2171 18.7404 40.3163 18.6691 40.4151 18.5979C40.4573 18.5678 40.5097 18.5557 40.5608 18.5641C40.6119 18.5726 40.6576 18.6009 40.6879 18.6429C40.7182 18.685 40.7306 18.7373 40.7224 18.7885C40.7142 18.8396 40.6861 18.8855 40.6443 18.916C40.5865 18.9576 40.5287 18.9992 40.4707 19.0409C41.0417 19.4343 41.5533 19.8995 42.0119 20.4029L41.866 19.9329C41.8584 19.9083 41.8557 19.8824 41.858 19.8568C41.8604 19.8312 41.8678 19.8063 41.8798 19.7835C41.8917 19.7607 41.9081 19.7405 41.9279 19.724C41.9477 19.7076 41.9705 19.6952 41.9951 19.6876C42.0197 19.6799 42.0455 19.6772 42.0712 19.6796C42.0968 19.6819 42.1217 19.6893 42.1445 19.7013C42.1673 19.7133 42.1875 19.7296 42.204 19.7494C42.2204 19.7692 42.2328 19.7921 42.2404 19.8166L42.6667 21.1896C43.4541 22.2209 44.0556 23.3298 44.5181 24.2687C44.5319 24.2968 44.5455 24.3248 44.5592 24.3528C44.6775 24.2264 44.7912 24.0956 44.9004 23.9604C44.932 23.9213 44.9774 23.8958 45.0273 23.8893C45.0771 23.8827 45.1276 23.8956 45.1682 23.9252C44.1105 21.7811 42.357 18.8035 39.3396 17.6026C38.5769 17.2992 37.756 17.0946 37.028 17.0264C36.0626 16.936 35.2788 17.0779 34.698 17.4479C34.0343 17.8709 33.6702 18.5633 33.616 19.5056C33.5264 21.0605 33.1759 22.0974 32.2763 23.4681C31.0469 25.3414 30.2818 27.4433 30.0635 29.5466C29.8305 31.793 30.2413 33.9585 31.2515 35.8091C32.2424 37.6241 32.8091 39.1309 32.5734 41.032C32.4979 41.6404 32.2043 42.2038 31.8935 42.8003C31.8353 42.9121 31.7751 43.0276 31.717 43.1423C30.7679 45.0191 30.223 47.5657 30.2218 50.129C30.2206 52.9075 30.8579 55.4449 32.0163 57.2739C32.7025 58.3573 33.5646 59.1946 34.5787 59.7624C35.6235 60.3474 36.8265 60.6434 38.1578 60.6434C38.2383 60.6434 38.3193 60.6423 38.4008 60.6401C39.4113 60.6133 40.4359 60.3803 41.449 59.948C41.5051 59.9241 41.5613 59.8998 41.6173 59.8747L42.2835 59.5754Z" fill="#673AB7"/>
<path d="M39.9748 40.2821C39.8447 40.2917 39.7142 40.3004 39.5833 40.3081C39.6366 42.2779 39.6406 44.2449 39.5955 46.2092C39.5945 46.255 39.5936 46.3008 39.5925 46.3466C39.5912 46.3986 39.6107 46.4489 39.6465 46.4866C39.6824 46.5242 39.7317 46.5461 39.7837 46.5473C39.7853 46.5473 39.7869 46.5474 39.7886 46.5474C39.8397 46.5473 39.8888 46.5273 39.9254 46.4916C39.962 46.4559 39.9832 46.4073 39.9844 46.3561C39.9914 46.0679 39.9973 45.7796 40.0019 45.4911C40.0311 43.7582 40.0221 42.0219 39.9748 40.2821ZM39.9635 39.8899C39.9038 37.9308 39.7959 35.9741 39.6397 34.0196C39.5121 34.0286 39.3816 34.0366 39.2484 34.0438C39.4046 35.9966 39.5125 37.9539 39.5721 39.9158C39.7035 39.9081 39.834 39.8995 39.9635 39.8899ZM37.1948 20.6445C37.2173 20.6336 37.2397 20.6221 37.2622 20.611C36.8956 19.6319 36.4518 18.6835 35.9351 17.7746C35.8955 17.7056 35.8555 17.6367 35.8151 17.568C35.802 17.5459 35.7847 17.5265 35.7641 17.511C35.7435 17.4955 35.7201 17.4843 35.6952 17.4779C35.6703 17.4715 35.6443 17.47 35.6188 17.4736C35.5933 17.4772 35.5688 17.4858 35.5466 17.4989C35.5245 17.512 35.5051 17.5293 35.4896 17.5499C35.4742 17.5705 35.4629 17.5939 35.4565 17.6188C35.4501 17.6438 35.4486 17.6697 35.4522 17.6952C35.4559 17.7207 35.4645 17.7452 35.4775 17.7674C35.4969 17.8001 35.5158 17.8329 35.5349 17.8658C36.0723 18.7966 36.5309 19.7708 36.906 20.778C37.0019 20.7354 37.0982 20.6909 37.1948 20.6445ZM37.365 20.9976C37.2567 21.0498 37.1488 21.0997 37.0412 21.1471C37.6968 22.985 38.1208 24.912 38.4301 26.8402C38.5617 26.8328 38.6926 26.8238 38.8228 26.8134C38.5078 24.8405 38.0742 22.8664 37.3984 20.981C37.3873 20.9865 37.3762 20.9922 37.365 20.9976ZM39.2165 33.653C39.3499 33.6458 39.4803 33.6378 39.6079 33.6288C39.4974 32.303 39.365 30.9813 39.2105 29.6635C39.1149 28.8498 39.009 28.0282 38.8839 27.2055C38.7536 27.2164 38.6229 27.2257 38.4916 27.2334C38.6181 28.0619 38.7248 28.8895 38.8211 29.7093C38.9749 31.0191 39.1067 32.3337 39.2165 33.653ZM37.7169 18.0564C38.2212 18.4998 38.6094 19.039 38.9279 19.6391C39.0376 19.5664 39.1468 19.493 39.2554 19.4188C38.9762 18.899 38.6442 18.4208 38.2309 18.0032C38.149 17.9205 38.0642 17.8399 37.9757 17.762C37.9366 17.7282 37.8857 17.7113 37.8341 17.7148C37.7826 17.7183 37.7345 17.7421 37.7003 17.7809C37.6662 17.8197 37.6488 17.8705 37.6519 17.9221C37.655 17.9737 37.6783 18.022 37.7169 18.0564ZM44.3364 38.9546C44.0072 37.1036 43.6416 35.2566 43.2395 33.4134C43.1146 33.4477 42.9881 33.4809 42.86 33.513C43.2648 35.3693 43.6327 37.2311 43.9637 39.0983C44.0883 39.0528 44.2125 39.0049 44.3364 38.9546ZM39.4342 19.7713C39.325 19.8458 39.2151 19.9195 39.1045 19.9924C39.4411 20.7071 39.6973 21.4935 39.9421 22.2999C40.3554 23.6614 40.749 25.0314 41.123 26.4098C41.2489 26.3732 41.3737 26.3339 41.4973 26.2919C41.1236 24.9155 40.7303 23.5469 40.3172 22.186C40.0615 21.3434 39.793 20.5211 39.4342 19.7713ZM44.0324 39.488C44.1075 39.9186 44.1806 40.3493 44.2516 40.7801C44.2734 40.9124 44.2952 41.0448 44.3168 41.1771C44.3256 41.228 44.3541 41.2734 44.3962 41.3034C44.4382 41.3334 44.4904 41.3456 44.5414 41.3373C44.5924 41.3291 44.638 41.301 44.6684 41.2593C44.6989 41.2175 44.7116 41.1655 44.7038 41.1144C44.6672 40.8884 44.6299 40.6624 44.5921 40.4364C44.5314 40.0734 44.4694 39.7104 44.4059 39.3475C44.2826 39.3963 44.1581 39.4432 44.0324 39.488ZM43.1551 33.0301C42.684 30.8987 42.1655 28.7791 41.5995 26.6712C41.4767 26.7125 41.3519 26.7515 41.225 26.7883C41.7887 28.8882 42.3056 31.0021 42.7757 33.13C42.9041 33.0979 43.0306 33.0646 43.1551 33.0301ZM45.9979 31.92L43.9775 25.4124C43.8685 25.4971 43.7571 25.5789 43.6432 25.6578L45.6428 32.0983C45.7575 32.0434 45.8665 31.9882 45.9979 31.92ZM43.8529 25.0109L42.6665 21.1896L42.2402 19.8166C42.2248 19.767 42.1903 19.7255 42.1443 19.7013C42.0983 19.6771 42.0446 19.6721 41.9949 19.6875C41.9453 19.703 41.9038 19.7375 41.8796 19.7835C41.8554 19.8295 41.8504 19.8832 41.8658 19.9329L42.0117 20.4029L43.5211 25.2642C43.6342 25.1829 43.7448 25.0985 43.8529 25.0109ZM45.7603 32.4767L45.8092 32.6342C45.8246 32.6839 45.8591 32.7254 45.9051 32.7496C45.9511 32.7738 46.0049 32.7787 46.0545 32.7633C46.1042 32.7479 46.1457 32.7134 46.1699 32.6674C46.1941 32.6214 46.199 32.5676 46.1836 32.518L46.116 32.3003C45.9885 32.366 45.8794 32.4205 45.7603 32.4767ZM32.9905 26.6081L33.3846 26.6419C33.273 25.3015 33.3331 23.9437 33.7084 22.6292C33.7222 22.5794 33.7157 22.5261 33.6904 22.481C33.6651 22.436 33.623 22.4027 33.5733 22.3885C33.5236 22.3743 33.4703 22.3803 33.425 22.4053C33.3797 22.4302 33.3461 22.472 33.3314 22.5216C33.2358 22.8575 33.1584 23.1983 33.0996 23.5426C32.9378 24.4857 32.9021 25.4988 32.9905 26.6081ZM34.8442 56.9161C34.9833 56.9083 35.1223 56.897 35.2609 56.8832C34.9935 56.3278 34.7743 55.7504 34.6058 55.1574C34.2624 53.9568 34.1115 52.7224 34.0509 51.5477C33.9197 51.5284 33.7879 51.5076 33.6554 51.4853C33.7143 52.7092 33.8677 54.0023 34.2289 55.2653C34.3898 55.831 34.5955 56.3831 34.8442 56.9161ZM34.0906 32.1025C34.2121 32.5604 34.3343 33.0212 34.4515 33.4842C34.5903 33.5102 34.731 33.534 34.8737 33.5555C34.7433 33.0345 34.606 32.5164 34.4695 32.002C34.3968 31.7277 34.3215 31.444 34.249 31.166C33.9099 29.8663 33.5764 28.4658 33.4225 27.0386L33.0275 27.0048C33.1842 28.5112 33.54 30.0013 33.8697 31.2649C33.9424 31.5438 34.0178 31.8278 34.0906 32.1025ZM33.8796 45.9923C33.8637 46.0891 33.8489 46.186 33.835 46.283C33.9609 46.3241 34.0872 46.3638 34.214 46.4021C34.2301 46.2866 34.2476 46.1711 34.2665 46.0558C34.4125 45.1658 34.6458 44.2721 34.8715 43.4078C35.1321 42.4096 35.4001 41.382 35.5411 40.3371C35.4064 40.3279 35.276 40.3167 35.1499 40.3037C35.0112 41.3195 34.7481 42.3285 34.4922 43.3087C34.2642 44.1817 34.0286 45.0844 33.8796 45.9923ZM33.6391 51.0844C33.7713 51.1074 33.9029 51.1291 34.0337 51.1489C34.0135 50.5844 34.0118 50.0365 34.0171 49.5162C34.0249 48.7457 34.0504 47.7826 34.1639 46.7964C34.0365 46.7586 33.9095 46.7192 33.783 46.6783C33.6601 47.7077 33.6332 48.7125 33.6251 49.5122C33.62 50.014 33.6213 50.5411 33.6391 51.0844ZM37.5943 59.8028C36.6309 59.0788 35.9431 58.165 35.4526 57.257C35.3127 57.2731 35.1725 57.2862 35.032 57.2964C35.1487 57.5205 35.2727 57.7378 35.4038 57.9484C35.8588 58.6771 36.3923 59.3052 36.9934 59.8217C37.1126 59.9242 37.2344 60.0223 37.3587 60.1162C37.4003 60.1474 37.4525 60.1609 37.504 60.1536C37.5555 60.1463 37.6019 60.1188 37.6332 60.0773C37.6644 60.0357 37.6779 59.9835 37.6706 59.932C37.6633 59.8805 37.6358 59.834 37.5943 59.8028ZM35.2073 39.8092C35.2041 39.8442 35.2001 39.8791 35.1965 39.914C35.3222 39.9269 35.4524 39.9378 35.5872 39.9468C35.5907 39.9131 35.5945 39.8794 35.5977 39.8456C35.7824 37.8643 35.4405 35.8946 34.9742 33.9637C34.8322 33.9441 34.6923 33.9223 34.5547 33.8983C35.0322 35.8473 35.3916 37.8325 35.2073 39.8092Z" fill="#673AB7"/>
<path d="M37.0419 21.1471C37.1495 21.0996 37.2574 21.0498 37.3657 20.9976C37.3769 20.9922 37.388 20.9865 37.3991 20.981C37.9919 20.6928 38.5575 20.3535 39.1052 19.9924C39.2158 19.9195 39.3257 19.8458 39.4349 19.7713C39.7862 19.5318 40.1308 19.2857 40.4712 19.0409C40.5291 18.9992 40.587 18.9575 40.6448 18.9159C40.6866 18.8854 40.7147 18.8396 40.7229 18.7884C40.7311 18.7373 40.7187 18.685 40.6884 18.6429C40.6581 18.6009 40.6124 18.5725 40.5613 18.5641C40.5102 18.5556 40.4578 18.5678 40.4156 18.5978C40.3168 18.669 40.2176 18.7403 40.1181 18.8118C39.8342 19.0156 39.5473 19.2195 39.2561 19.4188C39.1476 19.493 39.0384 19.5664 38.9286 19.639C38.3913 19.9948 37.8385 20.3285 37.2629 20.611C37.2404 20.6221 37.218 20.6335 37.1955 20.6445C37.0989 20.691 37.0026 20.7356 36.9067 20.778C35.9118 21.2199 34.9537 21.4479 34.0488 21.4583C33.8887 21.4601 33.7303 21.4553 33.5736 21.4437C33.5479 21.4417 33.5221 21.4449 33.4977 21.4529C33.4732 21.4609 33.4506 21.4737 33.4311 21.4905C33.4115 21.5073 33.3955 21.5278 33.3839 21.5507C33.3723 21.5737 33.3653 21.5987 33.3634 21.6244C33.3615 21.6501 33.3646 21.6759 33.3726 21.7003C33.3807 21.7248 33.3935 21.7474 33.4102 21.7669C33.427 21.7864 33.4475 21.8025 33.4705 21.8141C33.4934 21.8257 33.5185 21.8327 33.5442 21.8346C33.6701 21.8441 33.797 21.8493 33.9249 21.8504C33.9446 21.8506 33.9642 21.851 33.9839 21.851C34.9557 21.851 35.9811 21.615 37.0419 21.1471ZM44.9009 23.9604C44.7919 24.0956 44.6781 24.2264 44.5597 24.3528C44.3397 24.588 44.1038 24.8079 43.8536 25.0109C43.7456 25.0985 43.635 25.183 43.5217 25.2642C43.4542 25.3127 43.3857 25.36 43.3164 25.4063C42.7516 25.7797 42.1402 26.0774 41.498 26.2919C41.3743 26.3338 41.2496 26.3731 41.1237 26.4098C40.3912 26.6229 39.6213 26.7487 38.8236 26.8134C38.6934 26.824 38.5625 26.8329 38.4309 26.8401C37.0029 26.9205 35.4931 26.8226 33.9551 26.6908L33.3853 26.6419L32.9912 26.6081L31.5486 26.4845L31.1642 26.4515C31.1125 26.4472 31.0612 26.4637 31.0216 26.4971C30.9819 26.5306 30.9572 26.5784 30.9528 26.6301C30.9483 26.6818 30.9646 26.7331 30.9979 26.7729C31.0313 26.8126 31.079 26.8375 31.1307 26.8421L31.4094 26.866L33.0282 27.0048L33.4232 27.0386L33.9216 27.0814C35.0378 27.177 36.2008 27.2656 37.3537 27.2656C37.735 27.2656 38.1153 27.2558 38.4924 27.2334C38.6235 27.2257 38.7543 27.2163 38.8847 27.2055C38.8893 27.2051 38.8939 27.2047 38.8986 27.2043C39.744 27.1325 40.5169 26.9945 41.2257 26.7883C41.3525 26.7514 41.4773 26.7124 41.6002 26.6712C42.2833 26.445 42.9334 26.1294 43.5337 25.7326C43.5707 25.708 43.6074 25.683 43.6439 25.6577C43.7578 25.579 43.8692 25.4972 43.9783 25.4124C44.2482 25.2026 44.5034 24.9744 44.7421 24.7296C44.9045 24.5629 45.0592 24.3885 45.2061 24.2065C45.2386 24.166 45.2537 24.1143 45.2482 24.0626C45.2427 24.0109 45.2169 23.9636 45.1766 23.9309C45.174 23.9288 45.1713 23.9271 45.1687 23.9252C45.1281 23.8955 45.0776 23.8827 45.0278 23.8892C44.9779 23.8958 44.9325 23.9213 44.9009 23.9604ZM45.6435 32.0983C45.4684 32.1823 45.2798 32.266 44.9763 32.3959C44.3847 32.6485 43.7764 32.8604 43.1558 33.0301C43.0311 33.0645 42.9046 33.0978 42.7764 33.1299C42.4157 33.2201 42.0395 33.3015 41.6431 33.3756C40.9704 33.4994 40.2911 33.584 39.6086 33.6288C39.4809 33.6378 39.3504 33.6458 39.2172 33.653C38.4986 33.6915 37.6922 33.7046 36.7429 33.6958C36.1176 33.6929 35.4932 33.646 34.8744 33.5555C34.7315 33.5341 34.5908 33.5103 34.4522 33.4842C33.2378 33.2562 32.1598 32.8528 30.851 32.314C30.7646 32.2784 30.6775 32.2424 30.589 32.2057C30.5411 32.1863 30.4874 32.1866 30.4397 32.2065C30.392 32.2265 30.3541 32.2645 30.3343 32.3122C30.3145 32.36 30.3143 32.4136 30.3339 32.4615C30.3535 32.5094 30.3911 32.5476 30.4387 32.5678C30.6058 32.6371 30.7692 32.7044 30.9303 32.7699C32.1955 33.2849 33.2977 33.6801 34.5554 33.8983C34.6932 33.9222 34.8331 33.944 34.9749 33.9637C35.5598 34.0428 36.1491 34.0843 36.7393 34.0878C36.9278 34.0896 37.1105 34.0904 37.2885 34.0904C38.0185 34.0904 38.6622 34.0755 39.2491 34.0438C39.3823 34.0366 39.5128 34.0285 39.6404 34.0196C40.3364 33.9737 41.0291 33.8874 41.7151 33.761C42.1153 33.6862 42.4956 33.604 42.8607 33.513C42.9891 33.481 43.1156 33.4478 43.2402 33.4134C43.8847 33.2381 44.5164 33.0186 45.1306 32.7563C45.4113 32.6361 45.5959 32.5546 45.761 32.4767C45.8801 32.4205 45.9892 32.366 46.1167 32.3003C46.2212 32.2465 46.3381 32.1851 46.4834 32.1088L46.5857 32.0551C46.6085 32.0431 46.6287 32.0268 46.6452 32.007C46.6617 31.9873 46.6741 31.9644 46.6818 31.9398C46.6894 31.9153 46.6922 31.8894 46.6898 31.8638C46.6875 31.8382 46.6801 31.8132 46.6682 31.7904C46.6562 31.7676 46.6399 31.7474 46.6201 31.7309C46.6003 31.7145 46.5775 31.702 46.5529 31.6944C46.5283 31.6867 46.5025 31.684 46.4769 31.6863C46.4512 31.6886 46.4263 31.696 46.4035 31.708L46.3011 31.7617C46.1884 31.8209 46.0932 31.8709 46.0075 31.9154C46.0046 31.917 46.0016 31.9185 45.9987 31.92C45.8672 31.9882 45.7582 32.0433 45.6435 32.0983ZM43.9644 39.0983C42.6927 39.5631 41.3843 39.7853 39.9642 39.8899C39.8347 39.8995 39.7042 39.9081 39.5728 39.9158C38.6673 39.9687 37.7151 39.9797 36.6974 39.9797C36.6728 39.9797 36.6478 39.9797 36.6231 39.9797C36.2529 39.9795 35.9078 39.9686 35.5879 39.9468C35.4533 39.9378 35.323 39.9268 35.1972 39.914C34.3801 39.8304 33.7523 39.667 33.3191 39.4251C33.18 39.3495 33.0519 39.2552 32.9385 39.1448C32.9203 39.1264 32.8986 39.1119 32.8748 39.1019C32.851 39.092 32.8254 39.0868 32.7995 39.0868C32.7737 39.0867 32.7481 39.0918 32.7242 39.1017C32.7004 39.1116 32.6787 39.1261 32.6605 39.1444C32.6422 39.1627 32.6278 39.1844 32.618 39.2083C32.6082 39.2322 32.6032 39.2579 32.6033 39.2837C32.6034 39.3095 32.6086 39.3351 32.6187 39.3589C32.6287 39.3827 32.6433 39.4043 32.6617 39.4224C32.8406 39.6007 33.0713 39.7535 33.3537 39.8809C33.8118 40.0873 34.4087 40.2276 35.1506 40.3037C35.2769 40.3166 35.4073 40.3278 35.5418 40.3371C35.876 40.36 36.2363 40.3715 36.6229 40.3718C36.655 40.3718 36.6871 40.3718 36.7191 40.3718C37.6899 40.3718 38.6464 40.3633 39.584 40.3081C39.7149 40.3004 39.8454 40.2917 39.9755 40.2821C40.5107 40.2423 41.0396 40.1857 41.5608 40.1039C42.4505 39.9642 43.2652 39.7622 44.0331 39.488C44.1588 39.4431 44.2833 39.3963 44.4066 39.3475C44.7666 39.2051 45.117 39.0456 45.4607 38.8683C45.6989 38.7455 45.9343 38.614 46.1669 38.4738C46.1889 38.4605 46.2081 38.443 46.2234 38.4223C46.2387 38.4015 46.2497 38.378 46.2559 38.353C46.2621 38.328 46.2633 38.3021 46.2594 38.2766C46.2556 38.2512 46.2468 38.2267 46.2335 38.2047C46.2202 38.1826 46.2027 38.1634 46.182 38.1482C46.1612 38.1329 46.1377 38.1218 46.1127 38.1157C46.0877 38.1095 46.0618 38.1083 46.0363 38.1121C46.0109 38.116 45.9864 38.1248 45.9644 38.1381C45.8541 38.2046 45.7437 38.2687 45.6334 38.3304C45.2148 38.5654 44.7818 38.7739 44.3371 38.9546C44.2132 39.0049 44.0889 39.0528 43.9644 39.0983ZM34.2147 46.4021C34.0879 46.3639 33.9616 46.3242 33.8357 46.283C33.0799 46.036 32.3425 45.7359 31.629 45.3849C31.615 45.378 31.6008 45.3713 31.5867 45.3644C31.5636 45.3526 31.5384 45.3456 31.5126 45.3436C31.4868 45.3417 31.4608 45.3449 31.4362 45.3531C31.4116 45.3612 31.3889 45.3742 31.3694 45.3912C31.3498 45.4081 31.3338 45.4288 31.3223 45.452C31.3108 45.4752 31.304 45.5005 31.3023 45.5263C31.3006 45.5522 31.3041 45.5781 31.3125 45.6026C31.3209 45.6271 31.334 45.6497 31.3512 45.6691C31.3684 45.6885 31.3893 45.7043 31.4126 45.7156C31.4487 45.7334 31.485 45.7508 31.5212 45.7685C32.253 46.1247 33.0091 46.4287 33.7837 46.6783C33.9103 46.7191 34.0372 46.7585 34.1646 46.7964C35.7213 47.2596 37.3351 47.5026 38.9591 47.5186C39.0115 47.5191 39.0638 47.5197 39.1162 47.5197C39.1997 47.5197 39.2835 47.5191 39.367 47.5179C39.4186 47.5171 39.4679 47.4959 39.5041 47.4589C39.5402 47.4219 39.5603 47.3722 39.5599 47.3205C39.5595 47.2688 39.5387 47.2193 39.5021 47.1829C39.4654 47.1464 39.4158 47.1259 39.3641 47.1259C39.3632 47.1259 39.3622 47.1259 39.3612 47.1259C39.2861 47.127 39.211 47.1275 39.1358 47.1275C37.4688 47.128 35.8107 46.8836 34.2147 46.4021ZM36.41 51.332C35.6146 51.3316 34.8204 51.2704 34.0344 51.1489C33.9036 51.1291 33.772 51.1074 33.6399 51.0844C33.1398 50.9977 32.6309 50.8884 32.113 50.7566C31.6962 50.6502 31.2345 50.5101 30.966 50.1907C30.9474 50.1685 30.9297 50.1455 30.913 50.1217C30.8982 50.1006 30.8795 50.0826 30.8578 50.0687C30.8361 50.0548 30.8119 50.0454 30.7866 50.0408C30.7612 50.0363 30.7352 50.0369 30.7101 50.0424C30.685 50.0479 30.6612 50.0583 30.64 50.0731C30.6189 50.0878 30.6009 50.1065 30.5871 50.1282C30.5732 50.1499 30.5637 50.1741 30.5592 50.1995C30.5547 50.2248 30.5552 50.2508 30.5607 50.2759C30.5663 50.3011 30.5767 50.3249 30.5914 50.346C30.6956 50.4934 30.8257 50.6206 30.9754 50.7213C31.2872 50.935 31.666 51.0471 32.016 51.1364C32.5722 51.2784 33.1188 51.3947 33.6561 51.4853C33.7886 51.5077 33.9205 51.5285 34.0516 51.5477C34.8167 51.6625 35.5891 51.7215 36.3627 51.7242C36.3788 51.7242 36.3952 51.7241 36.4113 51.7241L36.4495 51.7239C36.9954 51.7221 37.3165 51.7209 37.7593 51.6685C37.9007 51.6518 38.0543 51.6299 38.2318 51.6011C38.2831 51.5927 38.329 51.5643 38.3594 51.5222C38.3898 51.48 38.4021 51.4274 38.3938 51.3761C38.3855 51.3248 38.3571 51.2789 38.3149 51.2485C38.2727 51.2182 38.2202 51.2058 38.1689 51.2141C38.041 51.2349 37.9267 51.2519 37.8206 51.2659C37.3438 51.3288 37.0371 51.3299 36.4481 51.3319L36.41 51.332ZM34.8449 56.9161C34.1601 56.9554 33.4731 56.9207 32.7958 56.8126C32.7752 56.7749 32.743 56.7448 32.7041 56.7266C32.6651 56.7085 32.6213 56.7033 32.5792 56.7118C32.5662 56.7145 32.5535 56.7185 32.5413 56.7238C32.5022 56.7407 32.4692 56.7693 32.4469 56.8056C32.4246 56.8419 32.4139 56.8842 32.4165 56.9267C32.4184 57.0559 32.5024 57.1604 32.6207 57.1809C32.7019 57.1949 32.7833 57.2076 32.8649 57.2195C33.3388 57.2889 33.8171 57.3236 34.2961 57.3235C34.5417 57.3235 34.7872 57.3144 35.0327 57.2964C35.1732 57.2861 35.3134 57.273 35.4533 57.257C36.4193 57.1471 37.3641 56.8968 38.2579 56.5142C38.2789 56.5051 38.3 56.4962 38.321 56.487C38.3448 56.4767 38.3662 56.4619 38.3842 56.4433C38.4022 56.4247 38.4163 56.4028 38.4258 56.3788C38.4353 56.3547 38.4399 56.329 38.4394 56.3032C38.4389 56.2773 38.4333 56.2518 38.4229 56.2282C38.4125 56.2045 38.3975 56.1831 38.3788 56.1653C38.3601 56.1474 38.3381 56.1334 38.314 56.1241C38.2899 56.1148 38.2642 56.1103 38.2383 56.111C38.2125 56.1117 38.187 56.1175 38.1634 56.128C38.1479 56.1348 38.1321 56.1413 38.1165 56.1481C37.2084 56.5384 36.2454 56.7864 35.2617 56.8832C35.123 56.897 34.984 56.9082 34.8449 56.9161Z" fill="#673AB7"/>
<path d="M45.8388 61C44.561 61 43.2944 60.7586 42.1861 60.296C41.8783 60.168 41.5782 60.0224 41.2871 59.86C40.17 59.2347 39.2936 58.3946 38.6821 57.3631C38.1228 56.4195 37.786 55.3184 37.6812 54.0904C37.5016 51.9855 38.0225 49.5028 39.148 47.0997C40.1924 44.8699 41.6895 42.8638 43.2556 41.5958C43.3556 41.5147 43.4581 41.4338 43.5572 41.3555C44.0849 40.9387 44.5833 40.5451 44.901 40.0212C45.8949 38.3832 45.995 36.7766 45.8342 34.7153C45.7019 33.0174 45.9987 31.3282 46.7164 29.6946C47.7231 27.4022 49.537 25.336 51.8239 23.8766C53.2061 22.9945 53.9506 22.1922 54.669 20.8103C55.1045 19.9729 55.7201 19.4904 56.4989 19.3764C57.1802 19.2765 57.9535 19.4683 58.7972 19.9462C59.4333 20.3066 60.0984 20.8295 60.6699 21.4186C62.9374 23.7565 63.313 27.2045 63.3983 29.5946C63.5435 33.6613 63.0892 36.9172 62.0095 39.5485C61.5187 40.7444 60.6834 42.4159 59.4911 43.5877C59.1391 43.9335 58.71 44.2051 58.2952 44.4677C57.5973 44.9094 56.9382 45.3266 56.6957 46.0419C56.4632 46.7284 56.5231 47.6256 56.5811 48.4932C56.6183 49.0504 56.6568 49.6265 56.6168 50.1482C56.5354 51.2134 56.2037 52.1328 55.8525 53.1063C55.7962 53.2623 55.738 53.4236 55.6815 53.5841C55.289 54.6978 54.681 55.7668 53.8744 56.7616C53.1787 57.6196 52.3334 58.4349 51.29 59.2541C50.1142 60.1774 48.6001 60.7613 46.9113 60.9428C46.5551 60.981 46.1971 61.0001 45.8388 61ZM56.8552 20.086C56.7716 20.0858 56.6881 20.0917 56.6054 20.1037C56.0661 20.1826 55.646 20.5247 55.3212 21.1494C54.5457 22.6411 53.705 23.5481 52.2193 24.4963C50.0537 25.8783 48.3383 27.8294 47.3894 29.9902C46.721 31.5118 46.4443 33.0823 46.5671 34.6581C46.7344 36.8039 46.6219 38.602 45.5294 40.4025C45.1429 41.0397 44.5684 41.4935 44.0128 41.9323C43.9154 42.0092 43.8148 42.0888 43.7181 42.167C40.8766 44.4677 38.0406 49.6566 38.4136 54.0279C38.6147 56.384 39.7023 58.1304 41.6462 59.2187C41.9127 59.3673 42.1874 59.5005 42.4692 59.6177C43.5055 60.0502 44.6598 60.2596 45.8096 60.2596C47.6687 60.2597 49.5161 59.7124 50.8361 58.676C52.9494 57.0166 54.3075 55.2711 54.9882 53.3398C55.0457 53.1767 55.1043 53.0141 55.161 52.8569C55.4948 51.9317 55.8101 51.0578 55.8839 50.0921C55.9199 49.6229 55.8848 49.098 55.8476 48.5422C55.7849 47.6027 55.72 46.6313 55.9995 45.806C56.3255 44.8444 57.127 44.3371 57.9021 43.8466C58.302 43.5934 58.6798 43.3543 58.9759 43.0634C60.0793 41.979 60.8648 40.4017 61.3294 39.2694C62.3687 36.7369 62.8052 33.5808 62.6637 29.6208C62.5828 27.352 62.2333 24.0863 60.1423 21.9304C59.2894 21.0511 57.9547 20.086 56.8552 20.086Z" fill="#673AB7"/>
<path d="M38.1578 60.6433C36.8265 60.6434 35.6235 60.3474 34.5787 59.7624C33.5646 59.1946 32.7025 58.3573 32.0163 57.2739C30.8579 55.4449 30.2206 52.9075 30.2218 50.129C30.223 47.5657 30.7679 45.0191 31.717 43.1423C31.7751 43.0276 31.8353 42.912 31.8935 42.8003C32.2043 42.2038 32.4979 41.6404 32.5734 41.032C32.8091 39.1309 32.2424 37.6241 31.2515 35.8091C30.2413 33.9585 29.8305 31.793 30.0635 29.5466C30.2818 27.4433 31.0469 25.3413 32.2763 23.4681C33.1759 22.0974 33.5264 21.0605 33.616 19.5056C33.6702 18.5632 34.0343 17.8709 34.698 17.4479C35.2788 17.0779 36.0626 16.936 37.028 17.0264C37.756 17.0946 38.5769 17.2992 39.3396 17.6026C42.3658 18.8069 44.1207 21.7985 45.1775 23.9439C46.2157 26.0517 46.9456 27.9512 47.4089 29.7508L47.4405 29.8739L47.3894 29.9903C46.721 31.5118 46.4444 33.0823 46.5671 34.6582V34.6581C46.7344 36.804 46.622 38.602 45.5295 40.4025C45.143 41.0397 44.5685 41.4935 44.0129 41.9324C43.9155 42.0093 43.8148 42.0888 43.7182 42.1671C40.8767 44.4678 38.0407 49.6567 38.4137 54.0279C38.6148 56.384 39.7023 58.1305 41.6463 59.2187L42.2835 59.5754L41.6173 59.8747C40.5495 60.3543 39.4673 60.6118 38.4007 60.6401C38.3193 60.6423 38.2384 60.6434 38.1578 60.6433ZM36.485 17.7358C35.9538 17.7358 35.4647 17.831 35.093 18.0678C34.6334 18.3608 34.3902 18.8449 34.3498 19.5478C34.2531 21.2263 33.8577 22.3981 32.8909 23.8714C30.4264 27.6265 30.0455 32.0658 31.8967 35.4569C32.9281 37.3462 33.562 39.0327 33.3029 41.1225C33.211 41.8625 32.8726 42.5119 32.5454 43.14C32.4882 43.2498 32.429 43.3633 32.373 43.4741C30.6091 46.962 30.2944 53.1815 32.6373 56.8806C33.9506 58.9541 35.8836 59.9714 38.3813 59.9053C39.1335 59.8854 39.8971 59.7386 40.6589 59.4682C39.8371 58.8984 39.1739 58.1926 38.6822 57.3631C38.1229 56.4195 37.7861 55.3185 37.6813 54.0904C37.5017 51.9855 38.0226 49.5028 39.1481 47.0997C40.1924 44.8699 41.6896 42.8638 43.2556 41.5958C43.3557 41.5148 43.4582 41.4338 43.5573 41.3555C44.0849 40.9388 44.5833 40.5451 44.901 40.0213C45.895 38.3833 45.995 36.7766 45.8343 34.7153C45.7052 33.0582 45.9848 31.4095 46.6654 29.8127C46.2134 28.0981 45.5103 26.2831 44.5181 24.2687C43.5149 22.2322 41.8586 19.3962 39.0678 18.2856C38.3106 17.9844 37.3431 17.7358 36.485 17.7358Z" fill="#673AB7"/>
<path d="M39.7886 46.5474C39.787 46.5474 39.7854 46.5473 39.7837 46.5473C39.7318 46.546 39.6824 46.5242 39.6466 46.4865C39.6107 46.4489 39.5913 46.3986 39.5925 46.3466C39.7259 40.7896 39.4681 35.2301 38.8212 29.7093C38.343 25.6375 37.607 21.3726 35.4776 17.7674C35.4511 17.7226 35.4436 17.6692 35.4565 17.6188C35.4695 17.5685 35.5019 17.5254 35.5467 17.4989C35.5915 17.4725 35.6449 17.4649 35.6952 17.4779C35.7456 17.4908 35.7887 17.5233 35.8152 17.568C37.9816 21.236 38.7273 25.549 39.2105 29.6635C39.8596 35.2027 40.1183 40.7807 39.9845 46.3561C39.9832 46.4072 39.9621 46.4559 39.9255 46.4916C39.8889 46.5273 39.8397 46.5473 39.7886 46.5474ZM44.5101 41.3418C44.4636 41.3417 44.4186 41.3251 44.3832 41.295C44.3478 41.2648 44.3243 41.223 44.3169 41.1771C43.2804 34.7944 41.8189 28.4879 39.9421 22.2999C39.4432 20.6559 38.8975 19.0944 37.7169 18.0564C37.6973 18.0395 37.6813 18.0189 37.6697 17.9957C37.6581 17.9726 37.6513 17.9474 37.6495 17.9215C37.6477 17.8957 37.6511 17.8698 37.6594 17.8453C37.6677 17.8208 37.6808 17.7981 37.6979 17.7787C37.7149 17.7593 37.7357 17.7434 37.759 17.732C37.7822 17.7207 37.8075 17.714 37.8333 17.7125C37.8592 17.7109 37.8851 17.7145 37.9095 17.723C37.9339 17.7315 37.9565 17.7448 37.9757 17.762C39.2338 18.868 39.8012 20.4857 40.3173 22.186C42.1991 28.3908 43.6646 34.7143 44.7038 41.1144C44.7084 41.1424 44.7067 41.1711 44.6991 41.1985C44.6914 41.2258 44.6779 41.2512 44.6595 41.2728C44.6411 41.2945 44.6182 41.3118 44.5924 41.3237C44.5666 41.3356 44.5385 41.3418 44.5101 41.3418ZM45.9964 32.7722C45.9546 32.7721 45.9138 32.7587 45.8802 32.7339C45.8465 32.7091 45.8216 32.6742 45.8092 32.6342L41.8659 19.9329C41.8582 19.9083 41.8555 19.8824 41.8579 19.8568C41.8602 19.8312 41.8676 19.8063 41.8796 19.7835C41.8916 19.7607 41.9079 19.7405 41.9277 19.724C41.9475 19.7076 41.9704 19.6952 41.9949 19.6875C42.0195 19.6799 42.0454 19.6772 42.071 19.6796C42.0966 19.6819 42.1216 19.6893 42.1443 19.7013C42.1671 19.7133 42.1873 19.7296 42.2038 19.7494C42.2202 19.7692 42.2326 19.7921 42.2403 19.8166L46.1836 32.518C46.1927 32.5473 46.1948 32.5784 46.1897 32.6087C46.1846 32.639 46.1724 32.6676 46.1542 32.6924C46.136 32.7171 46.1122 32.7372 46.0848 32.7511C46.0574 32.7649 46.0271 32.7721 45.9964 32.7722ZM37.4764 60.1555C37.4339 60.1556 37.3926 60.1418 37.3588 60.1162C36.6068 59.551 35.949 58.8217 35.4039 57.9484C34.9049 57.1491 34.5096 56.2463 34.229 55.2653C33.6655 53.2953 33.6075 51.2516 33.6252 49.5122C33.6351 48.5353 33.6729 47.2523 33.8797 45.9923C34.0286 45.0844 34.2643 44.1817 34.4922 43.3087C34.7896 42.1696 35.0972 40.9916 35.2074 39.8092C35.4487 37.2214 34.7583 34.6191 34.0907 32.1025C34.0178 31.8278 33.9425 31.5438 33.8697 31.2649C33.533 29.9742 33.1684 28.4473 33.0172 26.908C32.8557 25.2629 32.9585 23.8281 33.3315 22.5216C33.3461 22.472 33.3797 22.4302 33.425 22.4052C33.4703 22.3803 33.5236 22.3743 33.5733 22.3885C33.6231 22.4027 33.6652 22.4359 33.6905 22.481C33.7158 22.5261 33.7222 22.5794 33.7085 22.6292C32.8953 25.4773 33.5611 28.5291 34.249 31.166C34.3216 31.444 34.3968 31.7277 34.4696 32.002C35.146 34.5517 35.8455 37.1884 35.5977 39.8456C35.4845 41.0598 35.1729 42.2534 34.8715 43.4078C34.6459 44.2721 34.4125 45.1658 34.2665 46.0558C34.0641 47.2896 34.0269 48.5532 34.0172 49.5162C33.9998 51.2274 34.0562 53.2358 34.6059 55.1574C35.0048 56.5518 35.847 58.4897 37.5943 59.8028C37.6272 59.8275 37.6515 59.862 37.6637 59.9012C37.6759 59.9405 37.6755 59.9826 37.6624 60.0217C37.6494 60.0607 37.6244 60.0946 37.591 60.1186C37.5576 60.1427 37.5175 60.1556 37.4764 60.1555Z" fill="#673AB7"/>
<path d="M33.9839 21.851C33.8361 21.851 33.6895 21.8455 33.5442 21.8346C33.5185 21.8327 33.4935 21.8257 33.4705 21.8141C33.4475 21.8025 33.427 21.7865 33.4103 21.7669C33.3764 21.7275 33.3595 21.6763 33.3634 21.6244C33.3673 21.5726 33.3916 21.5244 33.4311 21.4905C33.4705 21.4566 33.5217 21.4398 33.5736 21.4437C34.7013 21.5285 35.9198 21.2597 37.1955 20.6445C38.3408 20.0921 39.3956 19.3325 40.4156 18.5978C40.4578 18.5678 40.5102 18.5556 40.5613 18.5641C40.6124 18.5725 40.6581 18.6009 40.6884 18.6429C40.7187 18.685 40.7311 18.7373 40.7229 18.7884C40.7147 18.8396 40.6866 18.8854 40.6447 18.9159C39.611 19.6605 38.542 20.4303 37.3657 20.9976C36.1897 21.5647 35.0543 21.851 33.9839 21.851ZM37.3537 27.2656C36.2008 27.2656 35.0378 27.177 33.9216 27.0814L31.1307 26.8421C31.079 26.8375 31.0313 26.8126 30.9979 26.7729C30.9646 26.7331 30.9483 26.6818 30.9528 26.6301C30.9572 26.5784 30.9819 26.5306 31.0216 26.4971C31.0612 26.4636 31.1125 26.4472 31.1642 26.4515L33.9551 26.6908C37.4248 26.9882 40.7516 27.1137 43.3164 25.4063C43.9152 25.0079 44.4495 24.5203 44.9009 23.9604C44.9335 23.9199 44.9809 23.8941 45.0326 23.8885C45.0843 23.883 45.1361 23.8982 45.1766 23.9309C45.217 23.9635 45.2429 24.0109 45.2484 24.0626C45.2539 24.1143 45.2387 24.166 45.2061 24.2065C44.7296 24.7974 44.1657 25.3121 43.5337 25.7326C42.2848 26.564 40.7687 27.0454 38.8986 27.2043C38.3893 27.2476 37.8724 27.2656 37.3537 27.2656ZM37.2884 34.0904C37.1105 34.0904 36.9278 34.0895 36.7393 34.0878C34.229 34.0646 32.6148 33.4709 30.4387 32.5677C30.3911 32.5475 30.3535 32.5093 30.3339 32.4615C30.3143 32.4136 30.3145 32.36 30.3343 32.3122C30.3541 32.2644 30.392 32.2264 30.4397 32.2065C30.4874 32.1865 30.5411 32.1862 30.589 32.2057C32.7866 33.1178 34.2975 33.6732 36.7429 33.6958C38.8987 33.7158 40.3185 33.6229 41.6431 33.3756C42.9079 33.1394 43.9671 32.8281 44.9763 32.3959C45.6113 32.124 45.7437 32.0545 46.3011 31.7617L46.4035 31.7079C46.4263 31.696 46.4512 31.6886 46.4769 31.6863C46.5025 31.684 46.5283 31.6867 46.5529 31.6944C46.5775 31.702 46.6003 31.7144 46.6201 31.7309C46.6399 31.7474 46.6562 31.7676 46.6682 31.7904C46.6801 31.8132 46.6875 31.8381 46.6898 31.8638C46.6922 31.8894 46.6894 31.9152 46.6817 31.9398C46.6741 31.9644 46.6617 31.9872 46.6452 32.007C46.6287 32.0268 46.6085 32.0431 46.5857 32.0551L46.4834 32.1088C45.9149 32.4073 45.7799 32.4783 45.1306 32.7563C44.0943 33.2001 43.0089 33.5193 41.7151 33.7609C40.4806 33.9915 39.1704 34.0904 37.2884 34.0904ZM36.7191 40.3718C36.6871 40.3718 36.655 40.3718 36.6229 40.3717C34.5974 40.3708 33.3017 40.0602 32.6617 39.4224C32.6433 39.4043 32.6287 39.3827 32.6187 39.3589C32.6086 39.3351 32.6034 39.3095 32.6033 39.2837C32.6032 39.2578 32.6082 39.2322 32.618 39.2083C32.6278 39.1844 32.6422 39.1627 32.6605 39.1444C32.6787 39.1261 32.7004 39.1116 32.7242 39.1017C32.7481 39.0918 32.7737 39.0867 32.7995 39.0868C32.8254 39.0868 32.851 39.0919 32.8748 39.1019C32.8986 39.1118 32.9203 39.1264 32.9385 39.1448C33.4934 39.6979 34.7331 39.9788 36.6231 39.9797C36.6478 39.9797 36.6728 39.9797 36.6974 39.9797C40.3401 39.9797 43.1442 39.8391 45.9644 38.1381C45.9864 38.1248 46.0109 38.1159 46.0363 38.1121C46.0618 38.1082 46.0878 38.1094 46.1127 38.1156C46.1377 38.1218 46.1613 38.1329 46.182 38.1481C46.2027 38.1634 46.2202 38.1826 46.2335 38.2047C46.2468 38.2267 46.2556 38.2512 46.2595 38.2766C46.2633 38.3021 46.2621 38.328 46.2559 38.353C46.2497 38.378 46.2387 38.4015 46.2234 38.4222C46.2081 38.443 46.1889 38.4605 46.1669 38.4738C44.7797 39.3104 43.3161 39.8284 41.5608 40.1039C40.005 40.3481 38.3828 40.3718 36.7191 40.3718ZM39.1162 47.5197C36.4439 47.5175 33.808 46.9002 31.4126 45.7156C31.3893 45.7043 31.3684 45.6885 31.3512 45.6691C31.334 45.6497 31.3209 45.6271 31.3125 45.6026C31.3041 45.5781 31.3006 45.5522 31.3023 45.5263C31.304 45.5005 31.3108 45.4752 31.3223 45.452C31.3338 45.4288 31.3498 45.4081 31.3694 45.3911C31.3889 45.3741 31.4116 45.3612 31.4362 45.3531C31.4608 45.3449 31.4868 45.3417 31.5126 45.3436C31.5384 45.3456 31.5636 45.3526 31.5867 45.3643C34.0022 46.5588 36.6668 47.1626 39.3612 47.1259C39.3622 47.1259 39.3632 47.1259 39.3641 47.1259C39.4158 47.1259 39.4654 47.1464 39.5021 47.1829C39.5387 47.2193 39.5595 47.2688 39.5599 47.3205C39.5602 47.3722 39.5402 47.4219 39.504 47.4589C39.4679 47.4959 39.4186 47.5171 39.3669 47.5179C39.2835 47.5191 39.1996 47.5197 39.1162 47.5197ZM36.3627 51.7241C35.0061 51.7241 33.5441 51.5265 32.016 51.1364C31.502 51.0053 30.9257 50.8252 30.5914 50.346C30.5617 50.3033 30.5501 50.2506 30.5592 50.1994C30.5683 50.1483 30.5974 50.1028 30.64 50.073C30.6827 50.0433 30.7354 50.0317 30.7866 50.0408C30.8378 50.05 30.8832 50.079 30.913 50.1217C31.1703 50.4906 31.6673 50.6429 32.113 50.7566C33.6271 51.1431 35.0737 51.3364 36.41 51.332L36.4481 51.3319C37.168 51.3294 37.466 51.3284 38.1689 51.2141C38.2202 51.2058 38.2727 51.2181 38.3149 51.2485C38.3571 51.2789 38.3855 51.3248 38.3938 51.3761C38.4021 51.4274 38.3898 51.48 38.3594 51.5221C38.329 51.5643 38.2831 51.5927 38.2318 51.6011C37.4983 51.7203 37.1696 51.7215 36.4495 51.7239L36.4113 51.7241C36.3952 51.7241 36.3788 51.7241 36.3627 51.7241ZM34.2961 57.3234C33.7346 57.3239 33.1741 57.2761 32.6207 57.1808C32.5024 57.1604 32.4184 57.0559 32.4165 56.9267C32.4133 56.8773 32.428 56.8284 32.4579 56.789C32.4877 56.7495 32.5308 56.7221 32.5792 56.7118C32.6213 56.7033 32.6651 56.7085 32.7041 56.7266C32.743 56.7448 32.7751 56.7749 32.7957 56.8126C34.6137 57.0997 36.4758 56.8622 38.1634 56.128C38.187 56.1174 38.2125 56.1117 38.2383 56.111C38.2642 56.1103 38.2899 56.1148 38.314 56.1241C38.3381 56.1334 38.3601 56.1474 38.3788 56.1653C38.3975 56.1831 38.4125 56.2045 38.4229 56.2282C38.4333 56.2518 38.4389 56.2773 38.4394 56.3032C38.4399 56.329 38.4353 56.3547 38.4258 56.3787C38.4163 56.4028 38.4022 56.4247 38.3842 56.4433C38.3662 56.4619 38.3448 56.4767 38.321 56.4869C37.0512 57.0397 35.681 57.3245 34.2961 57.3234Z" fill="#673AB7"/>
<ellipse cx="5.80248" cy="8.94506" rx="5.80248" ry="8.94506" transform="matrix(0.798046 0.602597 -0.6026 0.798043 48.2324 39.0298)" fill="#673AB7"/>
<ellipse cx="5.80248" cy="8.94505" rx="5.80248" ry="8.94505" transform="matrix(0.892248 0.451545 -0.451548 0.892247 54.0303 23.0772)" fill="#673AB7"/>
<path d="M73 51L61 63M61 51L73 63" stroke="#673AB7" stroke-width="2" stroke-linecap="round" stroke-linejoin="round"/>
<path d="M28.2017 73.6449V78H25.7706V70.3636H28.0824V71.7656H28.1669C28.3359 71.2983 28.6243 70.9321 29.032 70.6669C29.4396 70.3984 29.9252 70.2642 30.4886 70.2642C31.0256 70.2642 31.4912 70.3852 31.8857 70.6271C32.2834 70.8658 32.5916 71.2005 32.8104 71.6314C33.0324 72.0589 33.1418 72.5594 33.1385 73.1328V78H30.7074V73.6101C30.7107 73.1858 30.603 72.8544 30.3842 72.6158C30.1688 72.3771 29.8688 72.2578 29.4844 72.2578C29.2292 72.2578 29.0038 72.3142 28.8082 72.4268C28.616 72.5362 28.4669 72.6937 28.3608 72.8991C28.258 73.1046 28.205 73.3532 28.2017 73.6449ZM39.5705 74.7038V70.3636H41.9966V78H39.6799V76.5781H39.6003C39.4313 77.0455 39.1429 77.4167 38.7353 77.6918C38.3309 77.9635 37.842 78.0994 37.2686 78.0994C36.7483 78.0994 36.2909 77.9801 35.8965 77.7415C35.5021 77.5028 35.1955 77.1697 34.9767 76.7422C34.758 76.3113 34.647 75.8075 34.6436 75.2308V70.3636H37.0748V74.7536C37.0781 75.1679 37.1874 75.4943 37.4029 75.733C37.6183 75.9716 37.9116 76.0909 38.2828 76.0909C38.5248 76.0909 38.7419 76.0379 38.9341 75.9318C39.1297 75.8224 39.2838 75.665 39.3965 75.4595C39.5125 75.2507 39.5705 74.9988 39.5705 74.7038ZM47.8544 70.3636V72.1534H43.0369V70.3636H47.8544ZM44.0462 68.5341H46.4773V75.5987C46.4773 75.7479 46.5005 75.8688 46.5469 75.9616C46.5966 76.0511 46.6679 76.1158 46.7607 76.1555C46.8535 76.192 46.9645 76.2102 47.0938 76.2102C47.1866 76.2102 47.2843 76.2019 47.3871 76.1854C47.4931 76.1655 47.5727 76.1489 47.6257 76.1357L47.9936 77.8906C47.8776 77.9238 47.7135 77.9652 47.5014 78.0149C47.2926 78.0646 47.0424 78.0961 46.7507 78.1094C46.1806 78.1359 45.6918 78.0696 45.2841 77.9105C44.8797 77.7481 44.5698 77.4962 44.3544 77.1548C44.1423 76.8134 44.0395 76.3842 44.0462 75.8672V68.5341ZM56.4428 70.3636V72.1534H51.5309V70.3636H56.4428ZM52.555 78V69.9759C52.555 69.3859 52.6661 68.897 52.8881 68.5092C53.1102 68.1181 53.4184 67.8265 53.8129 67.6342C54.2073 67.4387 54.663 67.3409 55.18 67.3409C55.5181 67.3409 55.8363 67.3674 56.1346 67.4205C56.4362 67.4702 56.6599 67.5149 56.8058 67.5547L56.418 69.3345C56.3285 69.3047 56.2191 69.2798 56.0898 69.2599C55.9639 69.2401 55.8446 69.2301 55.7319 69.2301C55.4469 69.2301 55.2513 69.2931 55.1452 69.419C55.0392 69.545 54.9862 69.7173 54.9862 69.9361V78H52.555ZM57.6124 78V70.3636H59.9739V71.7557H60.0534C60.1926 71.2519 60.4197 70.8774 60.7346 70.6321C61.0494 70.3835 61.4157 70.2592 61.8333 70.2592C61.946 70.2592 62.062 70.2675 62.1813 70.2841C62.3006 70.2973 62.4116 70.3189 62.5144 70.3487V72.4616C62.3984 72.4219 62.2459 72.3904 62.057 72.3672C61.8714 72.344 61.7057 72.3324 61.5598 72.3324C61.2715 72.3324 61.0113 72.397 60.7793 72.5263C60.5506 72.6522 60.37 72.8295 60.2374 73.0582C60.1081 73.2836 60.0435 73.5488 60.0435 73.8537V78H57.6124ZM66.6781 78.1442C65.8793 78.1442 65.1899 77.9867 64.6099 77.6719C64.0332 77.3537 63.5891 76.9013 63.2775 76.3146C62.9693 75.7247 62.8152 75.0237 62.8152 74.2116C62.8152 73.4228 62.9709 72.7334 63.2825 72.1435C63.594 71.5502 64.0332 71.0895 64.6 70.7614C65.1667 70.4299 65.8346 70.2642 66.6035 70.2642C67.1471 70.2642 67.6442 70.3487 68.095 70.5178C68.5458 70.6868 68.9352 70.937 69.2633 71.2685C69.5914 71.5999 69.8467 72.0092 70.0289 72.4964C70.2112 72.9804 70.3024 73.5355 70.3024 74.1619V74.7685H63.6653V73.3565H68.0403C68.037 73.098 67.9757 72.8677 67.8564 72.6655C67.737 72.4633 67.573 72.3059 67.3642 72.1932C67.1587 72.0772 66.9217 72.0192 66.6532 72.0192C66.3815 72.0192 66.1378 72.0805 65.9224 72.2031C65.707 72.3224 65.5363 72.4865 65.4103 72.6953C65.2844 72.9008 65.2181 73.1345 65.2115 73.3963V74.8331C65.2115 75.1446 65.2728 75.4181 65.3954 75.6534C65.5181 75.8854 65.6921 76.0661 65.9174 76.1953C66.1428 76.3246 66.4113 76.3892 66.7228 76.3892C66.9383 76.3892 67.1338 76.3594 67.3095 76.2997C67.4851 76.2401 67.6359 76.1522 67.7619 76.0362C67.8878 75.9202 67.9823 75.7777 68.0453 75.6087L70.2775 75.6733C70.1847 76.1738 69.9809 76.6096 69.666 76.9808C69.3545 77.3487 68.9451 77.6354 68.438 77.8409C67.9309 78.0431 67.3443 78.1442 66.6781 78.1442ZM75.1136 78.1442C74.3149 78.1442 73.6255 77.9867 73.0455 77.6719C72.4688 77.3537 72.0246 76.9013 71.7131 76.3146C71.4048 75.7247 71.2507 75.0237 71.2507 74.2116C71.2507 73.4228 71.4065 72.7334 71.718 72.1435C72.0296 71.5502 72.4688 71.0895 73.0355 70.7614C73.6023 70.4299 74.2701 70.2642 75.0391 70.2642C75.5826 70.2642 76.0798 70.3487 76.5305 70.5178C76.9813 70.6868 77.3707 70.937 77.6989 71.2685C78.027 71.5999 78.2822 72.0092 78.4645 72.4964C78.6468 72.9804 78.7379 73.5355 78.7379 74.1619V74.7685H72.1009V73.3565H76.4759C76.4725 73.098 76.4112 72.8677 76.2919 72.6655C76.1726 72.4633 76.0085 72.3059 75.7997 72.1932C75.5942 72.0772 75.3572 72.0192 75.0888 72.0192C74.817 72.0192 74.5734 72.0805 74.358 72.2031C74.1425 72.3224 73.9718 72.4865 73.8459 72.6953C73.7199 72.9008 73.6536 73.1345 73.647 73.3963V74.8331C73.647 75.1446 73.7083 75.4181 73.831 75.6534C73.9536 75.8854 74.1276 76.0661 74.353 76.1953C74.5784 76.3246 74.8468 76.3892 75.1584 76.3892C75.3738 76.3892 75.5694 76.3594 75.745 76.2997C75.9207 76.2401 76.0715 76.1522 76.1974 76.0362C76.3234 75.9202 76.4179 75.7777 76.4808 75.6087L78.7131 75.6733C78.6203 76.1738 78.4164 76.6096 78.1016 76.9808C77.79 77.3487 77.3807 77.6354 76.8736 77.8409C76.3665 78.0431 75.7798 78.1442 75.1136 78.1442Z" fill="#673AB7"/>
</svg>
