<svg width="37" height="36" viewBox="0 0 37 36" fill="none" xmlns="http://www.w3.org/2000/svg">
<g clip-path="url(#clip0_108_2)">
<path d="M18.5 26.1649L17.195 24.9949C15.68 23.6299 14.4275 22.4524 13.4375 21.4624C12.4475 20.4724 11.66 19.5837 11.075 18.7962C10.49 18.0087 10.0813 17.2849 9.84875 16.6249C9.61625 15.9649 9.5 15.2899 9.5 14.5999C9.5 13.1899 9.9725 12.0124 10.9175 11.0674C11.8625 10.1224 13.04 9.6499 14.45 9.6499C15.23 9.6499 15.9725 9.8149 16.6775 10.1449C17.3825 10.4749 17.99 10.9399 18.5 11.5399C19.01 10.9399 19.6175 10.4749 20.3225 10.1449C21.0275 9.8149 21.77 9.6499 22.55 9.6499C23.96 9.6499 25.1375 10.1224 26.0825 11.0674C27.0275 12.0124 27.5 13.1899 27.5 14.5999C27.5 15.2899 27.3838 15.9649 27.1513 16.6249C26.9188 17.2849 26.51 18.0087 25.925 18.7962C25.34 19.5837 24.5525 20.4724 23.5625 21.4624C22.5725 22.4524 21.32 23.6299 19.805 24.9949L18.5 26.1649Z" fill="#EE657E"/>
</g>
<defs>
<clipPath id="clip0_108_2">
<rect width="36" height="36" fill="white" transform="translate(0.5)"/>
</clipPath>
</defs>
</svg>
