<svg width="100" height="100" viewBox="0 0 100 100" fill="none" xmlns="http://www.w3.org/2000/svg">
<circle cx="50" cy="50" r="50" fill="#FEDB68" fill-opacity="0.8"/>
<path fill-rule="evenodd" clip-rule="evenodd" d="M33.1904 21.1905C33.1904 18.8761 35.0666 17 37.3809 17H47.8571C50.1715 17 52.0476 18.8761 52.0476 21.1905C52.0476 23.5048 50.1715 25.381 47.8571 25.381H37.3809C35.0666 25.381 33.1904 23.5048 33.1904 21.1905ZM37.3809 19.0952C36.2237 19.0952 35.2857 20.0333 35.2857 21.1905C35.2857 22.3476 36.2237 23.2857 37.3809 23.2857H47.8571C49.0143 23.2857 49.9523 22.3476 49.9523 21.1905C49.9523 20.0333 49.0143 19.0952 47.8571 19.0952H37.3809Z" fill="#673AB7"/>
<path fill-rule="evenodd" clip-rule="evenodd" d="M35.2857 24.3333C35.2857 23.7547 35.7548 23.2857 36.3333 23.2857H48.9048C49.4833 23.2857 49.9524 23.7547 49.9524 24.3333V28.5238C49.9524 29.6572 50.3199 30.76 51 31.6667L54.7714 36.6952C55.7235 37.9645 56.2381 39.5085 56.2381 41.0952V53.6667C56.2381 57.7168 52.9549 61 48.9048 61H36.3333C32.2832 61 29 57.7168 29 53.6667V41.0952C29 39.5085 29.5146 37.9645 30.4667 36.6952L34.2381 31.6667C34.9181 30.76 35.2857 29.6572 35.2857 28.5238V24.3333ZM37.381 25.3809V28.5238C37.381 30.1105 36.8663 31.6544 35.9143 32.9238L32.1429 37.9524C31.4628 38.859 31.0952 39.9619 31.0952 41.0952V53.6667C31.0952 56.5596 33.4404 58.9048 36.3333 58.9048H48.9048C51.7977 58.9048 54.1429 56.5596 54.1429 53.6667V41.0952C54.1429 39.9619 53.7754 38.859 53.0952 37.9524L49.3238 32.9238C48.3717 31.6544 47.8571 30.1105 47.8571 28.5238V25.3809H37.381Z" fill="#673AB7"/>
<path d="M45.4291 42.7143C45.7238 42.7143 45.9648 42.4732 45.9648 42.1786V41.6429C45.9648 41.3482 45.7238 41.1072 45.4291 41.1072C45.1345 41.1072 44.8934 41.3482 44.8934 41.6429V42.1786C44.8934 42.4732 45.1345 42.7143 45.4291 42.7143ZM37.8809 37.0893C38.5077 37.0893 39.0434 37.5072 39.2095 38.0804C39.0273 38.2625 38.8773 38.4714 38.7541 38.6964H37.9773C37.2113 38.6964 36.5898 38.075 36.5898 37.3089V37.2018C36.5898 37.1375 36.6381 37.0893 36.7023 37.0893H37.8809ZM42.2148 45.3929C42.2148 45.6887 41.975 45.9286 41.6791 45.9286C41.3833 45.9286 41.1434 45.6887 41.1434 45.3929C41.1434 45.097 41.3833 44.8572 41.6791 44.8572C41.975 44.8572 42.2148 45.097 42.2148 45.3929ZM44.8934 45.9286C45.1893 45.9286 45.4291 45.6887 45.4291 45.3929C45.4291 45.097 45.1893 44.8572 44.8934 44.8572C44.5975 44.8572 44.3577 45.097 44.3577 45.3929C44.3577 45.6887 44.5975 45.9286 44.8934 45.9286Z" fill="#673AB7"/>
<path d="M41.7584 34.7308L41.7528 34.7329C41.593 34.7969 41.4283 34.8779 41.2659 34.9902C40.5897 35.4376 40.1622 36.0875 40.0848 36.8486C39.8461 36.5207 39.5357 36.2512 39.1767 36.061C38.7922 35.8571 38.3637 35.7504 37.9286 35.75H36.0536C35.8405 35.75 35.6361 35.8347 35.4854 35.9853C35.3347 36.136 35.25 36.3404 35.25 36.5536V37.3571C35.25 38.0675 35.5322 38.7488 36.0345 39.2512C36.2833 39.4999 36.5785 39.6972 36.9035 39.8318C37.2285 39.9664 37.5768 40.0357 37.9286 40.0357V40.8481L37.9283 40.8553V44.3626C37.5888 44.8965 37.4035 45.5139 37.3929 46.1466C37.3809 47.0553 37.7246 47.9327 38.3507 48.5914C38.9768 49.2501 39.8356 49.638 40.7438 49.6721C41.0744 50.0116 41.4696 50.2813 41.9063 50.4656C42.3428 50.6498 42.8119 50.7447 43.2857 50.7447C43.7596 50.7447 44.2286 50.6498 44.6652 50.4656C45.1018 50.2813 45.497 50.0116 45.8277 49.6721C46.7358 49.638 47.5946 49.2501 48.2207 48.5914C48.8468 47.9327 49.1905 47.0553 49.1786 46.1466C49.1681 45.5132 48.9827 44.8951 48.6429 44.3605V40.0357C49.3533 40.0357 50.0346 39.7535 50.5369 39.2512C51.0392 38.7488 51.3214 38.0675 51.3214 37.3571V36.5536C51.3214 36.3404 51.2368 36.136 51.0861 35.9853C50.9354 35.8347 50.731 35.75 50.5179 35.75H48.6429C48.2077 35.7504 47.7792 35.8571 47.3947 36.061C47.2248 36.151 47.0658 36.2588 46.9201 36.3821C46.7438 35.8248 46.3704 35.3404 45.8413 34.9902C45.6789 34.8779 45.5142 34.7969 45.3544 34.7329L45.3488 34.7308C44.718 34.4866 44.1509 35.1384 44.4154 35.724L44.4174 35.7285L44.4194 35.7329C44.5896 36.0921 44.6243 36.4525 44.4978 36.8214H42.7065C42.6919 36.7475 42.6777 36.6667 42.6654 36.5823C42.64 36.4072 42.6248 36.2277 42.6296 36.0668C42.6346 35.8991 42.6604 35.7907 42.6877 35.7329L42.6898 35.7285L42.6918 35.724C42.9563 35.1384 42.3891 34.4866 41.7584 34.7308ZM40.875 37.8928H43.8214L44.5607 38.6321C45.1179 39.1893 45.8732 39.5 46.6607 39.5H47.5536L47.5602 39.5589C47.5677 39.6283 47.5715 39.698 47.5714 39.7678V44.0502C47.0337 43.7121 46.3774 43.5164 45.6853 43.5183H42.7497V42.7786C42.7497 41.3964 42.0214 39.9982 40.875 39.2321C40.303 38.8491 39 38.9643 39 38.9643L37.9286 38.9643C37.5023 38.9643 37.0935 38.7949 36.7922 38.4936C36.4908 38.1922 36.3214 37.7834 36.3214 37.3571V36.8214H37.9286C38.2407 36.8213 38.5462 36.912 38.8076 37.0826C39.069 37.2532 39.2751 37.4962 39.4007 37.782L39.6177 38.2759L40.11 38.0552C40.3507 37.9478 40.6114 37.8925 40.875 37.8928ZM40.875 48.6071C40.5554 48.6072 40.2389 48.5436 39.9441 48.4203C39.6492 48.2968 39.3819 48.1161 39.1576 47.8884C38.9332 47.6607 38.7564 47.3907 38.6374 47.0941C38.5184 46.7974 38.4595 46.4801 38.4643 46.1605C38.4706 45.6786 38.6232 45.2101 38.902 44.817L38.9394 44.7639C39.4353 44.3203 40.1397 44.0405 40.9293 44.054H45.6857C46.4581 44.0518 47.1461 44.3282 47.6325 44.7628L47.6695 44.8153C47.9485 45.2089 48.1012 45.6781 48.1071 46.1605C48.1119 46.4801 48.053 46.7974 47.9341 47.0941C47.815 47.3907 47.6382 47.6607 47.4139 47.8884C47.1896 48.1161 46.9222 48.2968 46.6273 48.4203C46.3325 48.5436 46.016 48.6072 45.6964 48.6071H40.875ZM41.7473 49.1431H44.8199C44.6689 49.2614 44.5043 49.3622 44.3291 49.4432C44.0014 49.5947 43.6446 49.6731 43.2836 49.6731C42.9225 49.6731 42.5658 49.5947 42.2381 49.4432C42.0629 49.3622 41.8983 49.2614 41.7473 49.1431ZM48.6429 38.9643H47.9398C47.9044 38.8723 47.8636 38.7828 47.8179 38.6964H48.5946C49.3607 38.6964 49.9821 38.075 49.9821 37.3089V37.2018C49.9821 37.1375 49.9339 37.0893 49.8696 37.0893H48.6911C48.0643 37.0893 47.5286 37.5071 47.3625 38.0803C47.3676 38.0853 47.3718 38.0905 47.3751 38.0958C47.297 38.0176 47.2139 37.9444 47.1261 37.877L47.168 37.7803C47.294 37.4944 47.5007 37.2515 47.7626 37.0812C48.0245 36.9109 48.3304 36.8206 48.6429 36.8214H50.25V37.3571C50.25 37.7834 50.0807 38.1922 49.7793 38.4936C49.4779 38.7949 49.0691 38.9643 48.6429 38.9643ZM40.6071 42.1786V41.6428C40.6071 41.3482 40.8482 41.1071 41.1429 41.1071C41.4375 41.1071 41.6786 41.3482 41.6786 41.6428V42.1786C41.6786 42.4732 41.4375 42.7143 41.1429 42.7143C40.8482 42.7143 40.6071 42.4732 40.6071 42.1786Z" fill="#673AB7"/>
<path d="M72 51L60 63M60 51L72 63" stroke="#673AB7" stroke-width="2" stroke-linecap="round" stroke-linejoin="round"/>
<path d="M21.5597 78.1094C20.9962 78.1094 20.4841 77.9635 20.0234 77.6719C19.5627 77.3802 19.1948 76.9427 18.9197 76.3594C18.6446 75.776 18.5071 75.0518 18.5071 74.1868C18.5071 73.2886 18.6496 72.5495 18.9347 71.9695C19.2197 71.3894 19.5926 70.9602 20.0533 70.6818C20.5173 70.4034 21.0161 70.2642 21.5497 70.2642C21.9508 70.2642 22.2938 70.3338 22.5788 70.473C22.8639 70.6089 23.0992 70.7846 23.2848 71C23.4704 71.2154 23.6113 71.4392 23.7074 71.6712H23.7571V67.8182H26.1882V78H23.782V76.7621H23.7074C23.6046 76.9974 23.4588 77.2178 23.2699 77.4233C23.081 77.6288 22.844 77.7945 22.5589 77.9205C22.2772 78.0464 21.9441 78.1094 21.5597 78.1094ZM22.4048 76.2152C22.6998 76.2152 22.9517 76.1323 23.1605 75.9666C23.3693 75.7976 23.5301 75.5606 23.6428 75.2557C23.7554 74.9508 23.8118 74.5928 23.8118 74.1818C23.8118 73.7642 23.7554 73.4046 23.6428 73.103C23.5334 72.8014 23.3726 72.5694 23.1605 72.407C22.9517 72.2446 22.6998 72.1634 22.4048 72.1634C22.1032 72.1634 21.848 72.2462 21.6392 72.4119C21.4304 72.5777 21.2713 72.8113 21.1619 73.1129C21.0559 73.4145 21.0028 73.7708 21.0028 74.1818C21.0028 74.5928 21.0575 74.9508 21.1669 75.2557C21.2763 75.5606 21.4337 75.7976 21.6392 75.9666C21.848 76.1323 22.1032 76.2152 22.4048 76.2152ZM29.8784 78.1293C29.3912 78.1293 28.9586 78.0481 28.5808 77.8857C28.2063 77.7199 27.9096 77.4714 27.6909 77.1399C27.4754 76.8052 27.3677 76.3859 27.3677 75.8821C27.3677 75.4579 27.4423 75.0999 27.5914 74.8082C27.7406 74.5166 27.9461 74.2796 28.2079 74.0973C28.4698 73.915 28.7714 73.7775 29.1127 73.6847C29.4541 73.5885 29.8187 73.5239 30.2065 73.4908C30.6407 73.451 30.9904 73.4096 31.2555 73.3665C31.5207 73.3201 31.7129 73.2554 31.8322 73.1726C31.9548 73.0864 32.0162 72.9654 32.0162 72.8097V72.7848C32.0162 72.5296 31.9283 72.3324 31.7527 72.1932C31.577 72.054 31.34 71.9844 31.0417 71.9844C30.7202 71.9844 30.4617 72.054 30.2662 72.1932C30.0706 72.3324 29.9463 72.5246 29.8933 72.7699L27.6511 72.6903C27.7174 72.2263 27.8881 71.812 28.1632 71.4474C28.4416 71.0795 28.8227 70.7912 29.3066 70.5824C29.7939 70.3703 30.3788 70.2642 31.0616 70.2642C31.5488 70.2642 31.9979 70.3222 32.4089 70.4382C32.8199 70.5509 33.1779 70.7166 33.4828 70.9354C33.7877 71.1508 34.023 71.416 34.1887 71.7308C34.3578 72.0457 34.4423 72.4053 34.4423 72.8097V78H32.1554V76.9361H32.0957C31.9598 77.1946 31.7858 77.4134 31.5737 77.5923C31.3649 77.7713 31.118 77.9055 30.8329 77.995C30.5512 78.0845 30.233 78.1293 29.8784 78.1293ZM30.6291 76.5384C30.8909 76.5384 31.1262 76.4853 31.335 76.3793C31.5472 76.2732 31.7162 76.1274 31.8422 75.9418C31.9681 75.7528 32.0311 75.5341 32.0311 75.2855V74.5597C31.9615 74.5961 31.877 74.6293 31.7775 74.6591C31.6814 74.6889 31.5753 74.7171 31.4593 74.7436C31.3433 74.7701 31.224 74.7933 31.1014 74.8132C30.9788 74.8331 30.8611 74.8513 30.7484 74.8679C30.5197 74.9044 30.3242 74.9607 30.1618 75.0369C30.0027 75.1132 29.88 75.2126 29.7939 75.3352C29.711 75.4545 29.6696 75.5971 29.6696 75.7628C29.6696 76.0147 29.7591 76.2069 29.938 76.3395C30.1203 76.4721 30.3507 76.5384 30.6291 76.5384ZM35.9288 78V70.3636H38.3599V78H35.9288ZM37.1468 69.4737C36.8055 69.4737 36.5121 69.361 36.2669 69.1357C36.0216 68.907 35.899 68.6319 35.899 68.3104C35.899 67.9922 36.0216 67.7204 36.2669 67.495C36.5121 67.2663 36.8055 67.152 37.1468 67.152C37.4915 67.152 37.7849 67.2663 38.0268 67.495C38.2721 67.7204 38.3947 67.9922 38.3947 68.3104C38.3947 68.6319 38.2721 68.907 38.0268 69.1357C37.7849 69.361 37.4915 69.4737 37.1468 69.4737ZM39.9073 78V70.3636H42.2688V71.7557H42.3484C42.4876 71.2519 42.7146 70.8774 43.0295 70.6321C43.3443 70.3835 43.7106 70.2592 44.1282 70.2592C44.2409 70.2592 44.3569 70.2675 44.4762 70.2841C44.5955 70.2973 44.7066 70.3189 44.8093 70.3487V72.4616C44.6933 72.4219 44.5408 72.3904 44.3519 72.3672C44.1663 72.344 44.0006 72.3324 43.8548 72.3324C43.5664 72.3324 43.3062 72.397 43.0742 72.5263C42.8455 72.6522 42.6649 72.8295 42.5323 73.0582C42.4031 73.2836 42.3384 73.5488 42.3384 73.8537V78H39.9073ZM47.5188 80.8636C47.2272 80.8636 46.9521 80.8404 46.6935 80.794C46.435 80.7509 46.2129 80.6929 46.0273 80.62L46.5643 78.8551C46.8029 78.9347 47.0183 78.9811 47.2106 78.9943C47.4061 79.0076 47.5735 78.9761 47.7127 78.8999C47.8552 78.8269 47.9646 78.696 48.0408 78.5071L48.1353 78.2784L45.4208 70.3636H47.9663L49.3732 75.8125H49.4528L50.8796 70.3636H53.44L50.5614 78.7308C50.4222 79.1484 50.225 79.5163 49.9698 79.8345C49.7179 80.156 49.3915 80.4079 48.9904 80.5902C48.5927 80.7725 48.1022 80.8636 47.5188 80.8636ZM61.7202 70.3636V72.1534H56.8082V70.3636H61.7202ZM57.8324 78V69.9759C57.8324 69.3859 57.9434 68.897 58.1655 68.5092C58.3875 68.1181 58.6958 67.8265 59.0902 67.6342C59.4846 67.4387 59.9403 67.3409 60.4574 67.3409C60.7955 67.3409 61.1136 67.3674 61.4119 67.4205C61.7135 67.4702 61.9373 67.5149 62.0831 67.5547L61.6953 69.3345C61.6058 69.3047 61.4964 69.2798 61.3672 69.2599C61.2412 69.2401 61.1219 69.2301 61.0092 69.2301C60.7242 69.2301 60.5286 69.2931 60.4226 69.419C60.3165 69.545 60.2635 69.7173 60.2635 69.9361V78H57.8324ZM62.8897 78V70.3636H65.2512V71.7557H65.3308C65.47 71.2519 65.697 70.8774 66.0119 70.6321C66.3268 70.3835 66.693 70.2592 67.1106 70.2592C67.2233 70.2592 67.3393 70.2675 67.4586 70.2841C67.5779 70.2973 67.689 70.3189 67.7917 70.3487V72.4616C67.6757 72.4219 67.5233 72.3904 67.3343 72.3672C67.1487 72.344 66.983 72.3324 66.8372 72.3324C66.5488 72.3324 66.2886 72.397 66.0566 72.5263C65.8279 72.6522 65.6473 72.8295 65.5147 73.0582C65.3855 73.2836 65.3208 73.5488 65.3208 73.8537V78H62.8897ZM71.9554 78.1442C71.1567 78.1442 70.4673 77.9867 69.8873 77.6719C69.3105 77.3537 68.8664 76.9013 68.5549 76.3146C68.2466 75.7247 68.0925 75.0237 68.0925 74.2116C68.0925 73.4228 68.2483 72.7334 68.5598 72.1435C68.8714 71.5502 69.3105 71.0895 69.8773 70.7614C70.4441 70.4299 71.1119 70.2642 71.8809 70.2642C72.4244 70.2642 72.9216 70.3487 73.3723 70.5178C73.8231 70.6868 74.2125 70.937 74.5407 71.2685C74.8688 71.5999 75.124 72.0092 75.3063 72.4964C75.4886 72.9804 75.5797 73.5355 75.5797 74.1619V74.7685H68.9426V73.3565H73.3176C73.3143 73.098 73.253 72.8677 73.1337 72.6655C73.0144 72.4633 72.8503 72.3059 72.6415 72.1932C72.436 72.0772 72.199 72.0192 71.9306 72.0192C71.6588 72.0192 71.4152 72.0805 71.1998 72.2031C70.9843 72.3224 70.8136 72.4865 70.6877 72.6953C70.5617 72.9008 70.4954 73.1345 70.4888 73.3963V74.8331C70.4888 75.1446 70.5501 75.4181 70.6728 75.6534C70.7954 75.8854 70.9694 76.0661 71.1948 76.1953C71.4202 76.3246 71.6886 76.3892 72.0002 76.3892C72.2156 76.3892 72.4112 76.3594 72.5868 76.2997C72.7625 76.2401 72.9133 76.1522 73.0392 76.0362C73.1652 75.9202 73.2596 75.7777 73.3226 75.6087L75.5549 75.6733C75.4621 76.1738 75.2582 76.6096 74.9434 76.9808C74.6318 77.3487 74.2225 77.6354 73.7154 77.8409C73.2083 78.0431 72.6216 78.1442 71.9554 78.1442ZM80.391 78.1442C79.5922 78.1442 78.9028 77.9867 78.3228 77.6719C77.7461 77.3537 77.302 76.9013 76.9904 76.3146C76.6822 75.7247 76.5281 75.0237 76.5281 74.2116C76.5281 73.4228 76.6838 72.7334 76.9954 72.1435C77.3069 71.5502 77.7461 71.0895 78.3129 70.7614C78.8796 70.4299 79.5475 70.2642 80.3164 70.2642C80.86 70.2642 81.3571 70.3487 81.8079 70.5178C82.2586 70.6868 82.6481 70.937 82.9762 71.2685C83.3043 71.5999 83.5595 72.0092 83.7418 72.4964C83.9241 72.9804 84.0153 73.5355 84.0153 74.1619V74.7685H77.3782V73.3565H81.7532C81.7499 73.098 81.6886 72.8677 81.5692 72.6655C81.4499 72.4633 81.2859 72.3059 81.0771 72.1932C80.8716 72.0772 80.6346 72.0192 80.3661 72.0192C80.0943 72.0192 79.8507 72.0805 79.6353 72.2031C79.4199 72.3224 79.2492 72.4865 79.1232 72.6953C78.9973 72.9008 78.931 73.1345 78.9244 73.3963V74.8331C78.9244 75.1446 78.9857 75.4181 79.1083 75.6534C79.2309 75.8854 79.4049 76.0661 79.6303 76.1953C79.8557 76.3246 80.1242 76.3892 80.4357 76.3892C80.6512 76.3892 80.8467 76.3594 81.0224 76.2997C81.198 76.2401 81.3488 76.1522 81.4748 76.0362C81.6007 75.9202 81.6952 75.7777 81.7582 75.6087L83.9904 75.6733C83.8976 76.1738 83.6938 76.6096 83.3789 76.9808C83.0674 77.3487 82.658 77.6354 82.1509 77.8409C81.6438 78.0431 81.0572 78.1442 80.391 78.1442Z" fill="#673AB7"/>
</svg>
