<svg width="26" height="26" viewBox="0 0 26 26" fill="none" xmlns="http://www.w3.org/2000/svg">
<g clip-path="url(#clip0_82_41)">
<path d="M5.49436 7.84736e-08H20.5047C21.2263 -0.000121876 21.9409 0.141904 22.6076 0.417967C23.2743 0.694029 23.8801 1.09872 24.3904 1.60893C24.9007 2.11914 25.3055 2.72488 25.5817 3.39154C25.8579 4.05821 26 4.77275 26 5.49436V20.5047C26.0001 21.2263 25.8581 21.9409 25.582 22.6076C25.306 23.2743 24.9013 23.8801 24.3911 24.3904C23.8809 24.9007 23.2751 25.3055 22.6085 25.5817C21.9418 25.8579 21.2272 26 20.5056 26H5.49436C4.77283 26 4.05836 25.8579 3.39176 25.5818C2.72515 25.3056 2.11946 24.9009 1.60926 24.3907C1.09906 23.8805 0.69435 23.2748 0.418233 22.6082C0.142116 21.9416 0 21.2272 0 20.5056L0 5.49436C0 4.03716 0.578868 2.63965 1.60926 1.60926C2.63965 0.578868 4.03716 7.84736e-08 5.49436 7.84736e-08Z" fill="url(#paint0_linear_82_41)"/>
<g clip-path="url(#clip1_82_41)">
<path d="M13.5014 6C12.0117 6 10.5829 6.56499 9.52948 7.57069C8.47605 8.57639 7.88424 9.9404 7.88424 11.3627V11.4889C7.88386 11.5746 7.9012 11.6595 7.93528 11.7388C7.96936 11.818 8.0195 11.8901 8.08283 11.9508C8.14616 12.0115 8.22143 12.0597 8.30431 12.0926C8.3872 12.1255 8.47607 12.1424 8.56583 12.1424H18.437C18.6186 12.1424 18.7927 12.0735 18.921 11.951C19.0494 11.8284 19.1215 11.6622 19.1215 11.4889V11.3627C19.1215 10.6582 18.9761 9.96063 18.6937 9.30982C18.4112 8.659 17.9972 8.0677 17.4753 7.5697C16.9533 7.07169 16.3338 6.67673 15.6519 6.4074C14.9701 6.13806 14.2393 5.99963 13.5014 6ZM11.868 9.13851L11.5213 9.46947C11.4562 9.53158 11.368 9.56648 11.276 9.56648C11.184 9.56648 11.0957 9.53158 11.0307 9.46947C10.9656 9.40735 10.9291 9.32311 10.9291 9.23527C10.9291 9.14743 10.9656 9.06319 11.0307 9.00108L11.3774 8.67011C11.4096 8.63936 11.4478 8.61497 11.4899 8.59832C11.532 8.58168 11.5771 8.57311 11.6227 8.57311C11.6682 8.57311 11.7133 8.58168 11.7554 8.59832C11.7975 8.61497 11.8358 8.63936 11.868 8.67011C11.9002 8.70087 11.9257 8.73738 11.9432 8.77757C11.9606 8.81775 11.9696 8.86082 11.9696 8.90431C11.9696 8.94781 11.9606 8.99088 11.9432 9.03106C11.9257 9.07125 11.9002 9.10775 11.868 9.13851ZM12.2 7.97173C12.1674 7.94119 12.1415 7.90475 12.1238 7.86454C12.1061 7.82432 12.097 7.78115 12.097 7.73754C12.097 7.69393 12.1061 7.65075 12.1238 7.61054C12.1415 7.57033 12.1674 7.53389 12.2 7.50335L12.5437 7.17238C12.6096 7.11071 12.6982 7.07617 12.7905 7.07617C12.8827 7.07617 12.9713 7.11071 13.0372 7.17238C13.0699 7.2032 13.0957 7.2399 13.1134 7.28034C13.1311 7.32078 13.1401 7.36416 13.1401 7.40798C13.1389 7.49623 13.1021 7.58065 13.0372 7.64358L12.6906 7.97173C12.6584 8.00252 12.6201 8.02694 12.578 8.04361C12.536 8.06027 12.4908 8.06884 12.4453 8.06884C12.3997 8.06884 12.3546 8.06027 12.3125 8.04361C12.2704 8.02694 12.2321 8.00252 12.2 7.97173ZM13.9186 9.13851L13.5719 9.46947C13.5397 9.50025 13.5015 9.52468 13.4594 9.54134C13.4173 9.558 13.3722 9.56657 13.3266 9.56657C13.2811 9.56657 13.2359 9.558 13.1938 9.54134C13.1517 9.52468 13.1135 9.50025 13.0813 9.46947C13.0487 9.43892 13.0228 9.40248 13.0051 9.36227C12.9875 9.32206 12.9784 9.27888 12.9784 9.23527C12.9784 9.19166 12.9875 9.14849 13.0051 9.10828C13.0228 9.06807 13.0487 9.03163 13.0813 9.00108L13.425 8.67011C13.4909 8.60844 13.5795 8.5739 13.6718 8.5739C13.7641 8.5739 13.8527 8.60844 13.9186 8.67011C13.9512 8.70066 13.9771 8.73711 13.9948 8.77732C14.0124 8.81753 14.0215 8.86071 14.0215 8.90431C14.0215 8.94792 14.0124 8.99109 13.9948 9.0313C13.9771 9.07151 13.9512 9.10796 13.9186 9.13851ZM14.2476 7.97173C14.2154 7.94099 14.1898 7.90449 14.1724 7.8643C14.1549 7.82412 14.1459 7.78104 14.1459 7.73754C14.1459 7.69404 14.1549 7.65096 14.1724 7.61077C14.1898 7.57059 14.2154 7.53408 14.2476 7.50335L14.5943 7.17238C14.6265 7.14159 14.6647 7.11718 14.7068 7.10051C14.7489 7.08385 14.794 7.07527 14.8396 7.07527C14.8852 7.07527 14.9303 7.08385 14.9724 7.10051C15.0145 7.11718 15.0527 7.14159 15.0849 7.17238C15.1171 7.20334 15.1426 7.24012 15.1597 7.28057C15.1769 7.32102 15.1854 7.36434 15.1848 7.40798C15.185 7.49595 15.1492 7.58053 15.0849 7.64358L14.7383 7.97173C14.7061 8.00252 14.6678 8.02694 14.6257 8.04361C14.5836 8.06027 14.5385 8.06884 14.4929 8.06884C14.4474 8.06884 14.4023 8.06027 14.3602 8.04361C14.3181 8.02694 14.2798 8.00252 14.2476 7.97173ZM15.9663 9.13851L15.6196 9.46947C15.5546 9.53158 15.4663 9.56648 15.3743 9.56648C15.2823 9.56648 15.1941 9.53158 15.129 9.46947C15.0639 9.40735 15.0274 9.32311 15.0274 9.23527C15.0274 9.14743 15.0639 9.06319 15.129 9.00108L15.4757 8.67011C15.5079 8.63933 15.5461 8.61491 15.5882 8.59825C15.6303 8.58158 15.6754 8.57301 15.721 8.57301C15.7665 8.57301 15.8117 8.58158 15.8537 8.59825C15.8958 8.61491 15.9341 8.63933 15.9663 8.67011C16.03 8.7329 16.0656 8.81689 16.0656 8.90431C16.0656 8.99174 16.03 9.07572 15.9663 9.13851ZM8.38662 15.9288H18.6103C18.7446 15.9288 18.8735 15.9795 18.9687 16.0699C19.0639 16.1603 19.1178 16.283 19.1186 16.4112V16.9722C19.1178 17.5075 18.8947 18.0207 18.4982 18.3993C18.1017 18.7778 17.5641 18.9908 17.0033 18.9916H9.99656C9.43556 18.9916 8.89754 18.7788 8.50085 18.4001C8.10416 18.0214 7.88131 17.5077 7.88131 16.9722V16.4112C7.88131 16.3479 7.89438 16.2851 7.91977 16.2266C7.94516 16.1681 7.98239 16.1149 8.02931 16.0701C8.07623 16.0253 8.13194 15.9898 8.19324 15.9655C8.25455 15.9413 8.32026 15.9288 8.38662 15.9288ZM20.0088 13.5644C20.0088 13.676 19.9623 13.783 19.8797 13.8619C19.797 13.9408 19.685 13.9851 19.5681 13.9851C19.4127 14.0264 19.2643 14.0887 19.1274 14.1702C18.8562 14.3172 18.5943 14.4792 18.343 14.6554L18.2872 14.6891C17.9875 14.8392 17.6522 14.9127 17.314 14.9024C16.9757 14.8921 16.646 14.7983 16.357 14.6302L16.0074 14.4255C15.8288 14.3217 15.6221 14.2704 15.4132 14.2779C15.2043 14.2854 15.0023 14.3513 14.8323 14.4675C14.5141 14.6882 14.133 14.811 13.7398 14.8195C13.3467 14.8281 12.9601 14.7219 12.6318 14.5152L12.4585 14.4086C12.2905 14.3053 12.0957 14.2488 11.8959 14.2453C11.6961 14.2419 11.4992 14.2916 11.3274 14.389L10.8515 14.6695C10.5744 14.8289 10.26 14.9199 9.93685 14.9341C9.61367 14.9483 9.29188 14.8853 9.00063 14.7508L8.91543 14.6975C8.60387 14.4597 8.26239 14.2599 7.89893 14.1029C7.76052 14.0404 7.61103 14.0033 7.45826 13.9935C7.34138 13.9935 7.22929 13.9492 7.14665 13.8703C7.06401 13.7914 7.01758 13.6844 7.01758 13.5728C7.01758 13.4612 7.06401 13.3542 7.14665 13.2753C7.22929 13.1964 7.34138 13.1521 7.45826 13.1521C7.60761 13.1535 7.75599 13.1753 7.89893 13.2166C8.45346 13.3926 8.97076 13.6613 9.42662 14.0104C9.58144 14.0755 9.75048 14.1039 9.9193 14.0931C10.0881 14.0824 10.2517 14.0328 10.3961 13.9486L10.875 13.6682C11.1874 13.4913 11.5451 13.4008 11.9082 13.4067C12.2714 13.4127 12.6256 13.5148 12.9315 13.7018L13.1048 13.8112C13.285 13.9234 13.4966 13.9808 13.7116 13.9757C13.9267 13.9707 14.1351 13.9036 14.3093 13.7832C14.6211 13.5681 14.9926 13.4461 15.377 13.4327C15.7613 13.4192 16.1412 13.5148 16.4687 13.7074L16.8183 13.9122C16.9723 14.0019 17.1476 14.053 17.3278 14.0609C17.5081 14.0687 17.6875 14.033 17.8494 13.9571C18.2449 13.6713 18.6737 13.4304 19.1274 13.239C19.2674 13.183 19.4165 13.1507 19.5681 13.1437C19.685 13.1437 19.797 13.188 19.8797 13.2669C19.9623 13.3458 20.0088 13.4528 20.0088 13.5644Z" fill="black"/>
</g>
</g>
<defs>
<linearGradient id="paint0_linear_82_41" x1="2.89424" y1="0.522944" x2="23.2433" y2="25.6615" gradientUnits="userSpaceOnUse">
<stop stop-color="#FEDB68"/>
<stop offset="1" stop-color="#FEDB68"/>
</linearGradient>
<clipPath id="clip0_82_41">
<rect width="26" height="26" fill="white"/>
</clipPath>
<clipPath id="clip1_82_41">
<rect width="13" height="13" fill="white" transform="translate(7 6)"/>
</clipPath>
</defs>
</svg>
