<svg width="37" height="36" viewBox="0 0 37 36" fill="none" xmlns="http://www.w3.org/2000/svg">
<g clip-path="url(#clip0_14_36)">
<path d="M0.181641 18C0.181641 8.05888 8.24052 0 18.1816 0C28.1228 0 36.1816 8.05888 36.1816 18C36.1816 27.9411 28.1228 36 18.1816 36C8.24052 36 0.181641 27.9411 0.181641 18Z" fill="#131313" fill-opacity="0.75"/>
<path d="M22.2318 27V24.3H19.5318V22.5H22.2318V19.8H24.0318V22.5H26.7318V24.3H24.0318V27H22.2318ZM11.4318 25.2C10.9368 25.2 10.5131 25.0238 10.1606 24.6713C9.80809 24.3188 9.63184 23.895 9.63184 23.4V12.6C9.63184 12.105 9.80809 11.6813 10.1606 11.3288C10.5131 10.9763 10.9368 10.8 11.4318 10.8H12.3318V9H14.1318V10.8H19.5318V9H21.3318V10.8H22.2318C22.7268 10.8 23.1506 10.9763 23.5031 11.3288C23.8556 11.6813 24.0318 12.105 24.0318 12.6V18.09C23.7318 18.045 23.4318 18.0225 23.1318 18.0225C22.8318 18.0225 22.5318 18.045 22.2318 18.09V16.2H11.4318V23.4H17.7318C17.7318 23.7 17.7543 24 17.7993 24.3C17.8443 24.6 17.9268 24.9 18.0468 25.2H11.4318ZM11.4318 14.4H22.2318V12.6H11.4318V14.4Z" fill="white"/>
</g>
<defs>
<clipPath id="clip0_14_36">
<rect width="37" height="36" fill="white"/>
</clipPath>
</defs>
</svg>
