<svg width="400" height="155" viewBox="0 0 400 155" fill="none" xmlns="http://www.w3.org/2000/svg">
<path d="M369.51 0H30.4899C13.6508 0 0 5.04794 0 11.2749V143.725C0 149.952 13.6508 155 30.4899 155H369.51C386.349 155 400 149.952 400 143.725V11.2749C400 5.04794 386.349 0 369.51 0Z" fill="#FEDB68"/>
<path d="M400 0H0V155H400V0Z" fill="#FEDB68"/>
<path d="M185.396 109.446H213.373V111.255L185.396 111.083V109.446Z" fill="black"/>
<path d="M197.925 42.853C197.925 42.853 197.496 43.973 196.981 44.8344C196.466 45.6959 195.351 46.902 195.351 46.902L192.948 49.3142L189.858 52.1571L187.627 54.0523C187.627 54.0523 186.339 55.0861 185.91 55.603C185.481 56.1199 185.309 56.723 185.309 56.723V76.8817V143.13L182.735 141.407C182.735 141.407 182.649 56.1199 182.821 55.8615C182.992 55.603 182.992 55.4307 183.507 54.9138L187.026 51.3817L191.574 47.0743L194.75 44.0591V43.2838L196.981 42.6807L197.925 42.853Z" fill="black"/>
<path d="M200.328 42.7669C200.328 42.7669 200.757 43.8868 201.272 44.7483C201.787 45.6098 202.903 46.8159 202.903 46.8159L205.306 49.2281L208.395 52.071L210.627 53.9662C210.627 53.9662 211.914 55 212.343 55.5169C212.772 56.0338 212.944 56.6368 212.944 56.6368C212.944 56.6368 212.944 68.9231 212.944 76.7956C212.944 102.667 212.944 143.044 212.944 143.044L215.518 141.321C215.518 141.321 215.604 56.0338 215.433 55.7753C215.261 55.5169 215.261 55.3446 214.746 54.8277L211.227 51.2956L206.679 46.9882L203.503 43.973V43.1976L201.272 42.5946L200.328 42.7669Z" fill="black"/>
<path d="M212.944 95.1453V97.0405H185.224V95.1453H212.944Z" fill="black"/>
<path d="M201.358 58.2737H197.067C196.309 58.2737 195.694 58.8908 195.694 59.6521V64.1318C195.694 64.893 196.309 65.5102 197.067 65.5102H201.358C202.116 65.5102 202.731 64.893 202.731 64.1318V59.6521C202.731 58.8908 202.116 58.2737 201.358 58.2737Z" fill="black"/>
<path d="M198.269 43.2838V58.4459H199.813V42.5084H198.269V43.2838Z" fill="black"/>
<path d="M185.482 76.7956H212.944V78.3463H185.224V76.7956H185.482Z" fill="black"/>
<path d="M196.996 75.3311C196.996 75.3311 195.88 76.3649 195.88 78.7771C195.88 81.1892 195.451 82.3092 195.88 84.2906C196.309 86.272 197.682 87.1335 197.682 89.7179C197.682 92.3024 195.88 96.7821 195.88 99.7973C195.88 102.813 196.052 103.76 196.996 105.569C197.94 107.378 197.682 107.034 197.682 107.034L201.973 107.981C201.973 107.981 202.917 104.363 201.973 103.329C201.029 102.296 202.488 102.209 201.287 97.4713C200.085 92.7331 201.029 91.4409 201.973 88.598C202.917 85.7551 201.716 87.1335 200.772 84.2906C199.828 81.4477 201.287 81.3615 201.287 79.5524C201.287 77.7433 200.772 76.3649 200.772 76.3649L196.996 75.3311Z" fill="#A2D1FF"/>
<path d="M203.418 109.36C203.418 106.743 201.305 104.622 198.698 104.622C196.091 104.622 193.978 106.743 193.978 109.36V115.907C193.978 118.524 196.091 120.645 198.698 120.645C201.305 120.645 203.418 118.524 203.418 115.907V109.36Z" fill="#F70619"/>
<path d="M196.095 55.9299C196.738 56.05 196.688 57.3641 196.236 57.5786C195.784 57.7933 192.356 57.6701 191.88 58.0758C191.403 58.4814 191.593 58.8162 191.759 59.6525C191.925 60.489 191.877 60.5607 191.639 60.9187L190.876 62.0649C190.351 62.8528 189.066 63.2337 189.066 63.2337L186.899 63.8526L185.804 63.947L183.805 63.8493L182.282 63.3459C182.282 63.3459 181.782 63.0109 180.759 62.532C179.736 62.053 179.927 62.0771 179.022 61.885C178.118 61.6929 178.427 61.6932 177.428 61.6445C176.428 61.5955 176.143 61.4041 176.143 61.4041L175.001 60.9489C175.001 60.9489 173.192 60.254 173.431 59.896C173.669 59.5378 174.241 59.2995 174.241 59.2995L188.718 54.2972L189.599 54.3699L190.312 54.8485L191.144 55.9245L191.667 56.6897C191.667 56.6897 195.452 55.8096 196.095 55.9299Z" fill="#F70619"/>
<path d="M234.313 84.9797C234.743 85.4966 234.485 85.0659 234.743 85.8412C235 86.6166 234.313 90.6655 234.313 90.6655C234.313 90.6655 233.97 92.3024 233.455 93.0777C232.94 93.853 232.855 93.6807 232.254 94.1115C231.653 94.5422 230.881 94.6284 230.28 94.8007C229.679 94.973 229.164 94.8868 228.306 94.6284C227.448 94.3699 226.504 94.1115 226.504 94.1115L221.955 92.3024C221.955 92.3024 217.75 89.6318 216.806 88.9426C215.862 88.2534 211.056 86.1858 211.056 86.1858C211.056 86.1858 210.039 85.9296 209.855 85.4966C209.775 85.3111 209.855 84.9797 209.855 84.9797C209.855 84.1182 211.571 84.4628 211.571 84.4628C211.571 84.4628 233.884 84.4628 234.313 84.9797Z" fill="#D3BA21" stroke="#D3BA21"/>
<path d="M221.784 71.799C221.784 71.799 224.959 76.2787 225.302 76.8818C224.702 76.8818 226.418 78.5186 226.418 78.5186C226.418 78.5186 227.105 79.4662 227.362 79.4662C227.62 79.4662 227.105 80.0693 227.105 80.8446C227.105 81.62 227.877 81.5338 227.877 82.223C227.877 82.9122 227.105 83.1706 227.105 83.8598C227.105 84.549 227.19 84.549 227.19 84.549L231.31 84.6352C231.31 84.6352 230.881 84.549 230.452 83.8598C230.022 83.1706 230.452 83.3429 230.452 82.5676C230.452 81.7923 229.336 81.5338 229.336 80.8446C229.336 80.1554 229.422 79.3801 229.336 78.5186C229.25 77.6571 229.422 76.7095 228.649 76.8818C227.877 77.0541 227.963 75.848 227.105 75.0727C226.246 74.2973 221.784 71.799 221.784 71.799Z" fill="#A2D1FF"/>
<path d="M210.455 63.2703C209.854 63.0118 209.168 64.1317 209.425 64.5625C209.683 64.9932 212.601 66.8023 212.772 67.4054C212.944 68.0084 212.601 68.1807 212 68.7838C211.399 69.3868 211.399 69.473 211.399 69.9037V71.2821C211.399 72.2297 212.257 73.2635 212.257 73.2635L213.716 74.9865L214.575 75.6757L216.291 76.7094L217.836 77.1402C217.836 77.1402 218.436 77.1402 219.552 77.3125C220.668 77.4848 220.496 77.3986 221.354 77.7432C222.213 78.0878 221.955 77.9155 222.813 78.4324C223.672 78.9493 224.015 78.9493 224.015 78.9493L225.216 79.2078C225.216 79.2078 227.104 79.6385 227.104 79.2078C227.104 78.777 226.761 78.2601 226.761 78.2601L217.492 66.027L216.72 65.5963H215.862L214.575 66.027L213.716 66.3716C213.716 66.3716 211.056 63.5287 210.455 63.2703Z" fill="#D3BA21"/>
<path d="M203.59 66.9746C203.59 64.3578 201.476 62.2365 198.87 62.2365C196.263 62.2365 194.149 64.3578 194.149 66.9746V73.5219C194.149 76.1387 196.263 78.2601 198.87 78.2601C201.476 78.2601 203.59 76.1387 203.59 73.5219V66.9746Z" fill="#D3BA21"/>
<path d="M185.567 79.2077C185.482 79.5523 188.228 80.6723 188.657 81.1892C189.086 81.7061 189.859 83.1706 190.116 83.9459C190.373 84.7213 191.146 86.6165 191.146 87.3919C191.145 88.1672 190.778 88.6481 190.778 89.8864C190.778 91.1245 191.749 90.987 191.749 92.0877C191.749 93.1883 190.778 93.6009 190.778 94.7016C190.778 95.8022 191.146 96.6098 191.146 96.6098L195.608 97.3851C195.608 97.3851 195.523 95.8022 194.983 94.7016C194.444 93.6009 194.983 93.8761 194.983 92.638C194.983 91.3997 193.582 90.987 193.582 89.8864C193.582 88.7858 194.229 89.3361 194.121 87.9603C194.013 86.5843 193.806 87.2196 193.582 86.1717C193.358 85.1237 194.026 83.7197 192.948 82.4814C191.87 81.2431 185.653 78.8632 185.567 79.2077Z" fill="#A2D1FF"/>
<path d="M167.012 73.3564C166.359 73.3572 166.169 74.6584 166.575 74.952C166.981 75.2454 170.374 75.7497 170.769 76.2356C171.164 76.7215 170.916 77.016 170.602 77.8082C170.287 78.6004 170.321 78.6797 170.491 79.0752L171.034 80.3415C171.407 81.2119 172.602 81.8212 172.602 81.8212L174.621 82.825L175.68 83.1177L177.664 83.3863L179.253 83.1692C179.253 83.1692 179.804 82.9309 180.897 82.6465C181.99 82.3622 181.798 82.3511 182.722 82.3272C183.646 82.3032 183.342 82.2472 184.334 82.3815C185.326 82.5159 185.641 82.3797 185.641 82.3797L186.846 82.1404C186.846 82.1404 188.75 81.787 188.581 81.3914C188.411 80.9957 187.892 80.6571 187.892 80.6571L174.562 73.0969L173.683 73.0076L172.895 73.3481L171.882 74.2545L171.229 74.9115C171.229 74.9115 167.666 73.3555 167.012 73.3564Z" fill="#F70619"/>
<path d="M178.252 98.7287C177.529 98.957 177.532 100.328 178.03 100.481C178.527 100.634 182.366 99.9582 182.883 100.308C183.4 100.658 183.175 101.039 182.956 101.943C182.738 102.847 182.789 102.914 183.041 103.252L183.85 104.333C184.406 105.075 185.829 105.27 185.829 105.27L188.228 105.574L189.449 105.499L191.69 105.077L193.413 104.307C193.413 104.307 193.985 103.876 195.148 103.21C196.311 102.544 196.097 102.6 197.116 102.254C198.135 101.909 197.789 101.958 198.909 101.748C200.029 101.537 200.356 101.291 200.356 101.291L201.651 100.631C201.651 100.631 203.701 99.6143 203.448 99.2766C203.196 98.9389 202.566 98.7801 202.566 98.7801L186.568 95.8401L185.58 96.0567L184.763 96.6725L183.79 97.9339L183.175 98.82C183.175 98.82 178.975 98.5002 178.252 98.7287Z" fill="#3EADF7"/>
<path d="M206.164 104.535C204.705 104.449 202.045 106.086 200.758 106.861C199.47 107.637 197.497 109.187 197.497 111.341C197.497 113.495 197.497 112.806 197.497 116.769C197.497 120.731 196.724 125.9 196.724 125.9V127.623H203.161C203.161 127.623 203.933 121.076 203.161 119.525C202.388 117.975 201.616 115.132 201.616 113.064C201.616 110.997 203.161 108.498 203.161 108.498L206.164 106L210.026 105.311C210.026 105.311 207.623 104.622 206.164 104.535Z" fill="#A2D1FF"/>
<path d="M225.886 101.117C226.438 101.499 226.075 101.153 226.53 101.831C226.985 102.509 227.403 106.595 227.403 106.595C227.403 106.595 227.509 108.264 227.22 109.149C226.93 110.035 226.802 109.892 226.338 110.469C225.874 111.045 225.153 111.336 224.62 111.663C224.087 111.991 223.568 112.046 222.672 112.028C221.776 112.009 220.798 112.014 220.798 112.014L215.933 111.494C215.933 111.494 211.169 110.051 210.075 109.641C208.982 109.23 203.8 108.53 203.8 108.53C203.8 108.53 202.752 108.556 202.459 108.189C202.333 108.032 202.321 107.691 202.321 107.691C202.091 106.861 203.837 106.732 203.837 106.732C203.837 106.732 225.335 100.734 225.886 101.117Z" fill="#D3BA21" stroke="#D3BA21"/>
<path d="M231.724 128.6C233.158 129.034 232.966 131.878 231.938 132.223C230.91 132.568 223.234 131.378 222.14 132.131C221.047 132.885 221.452 133.664 221.771 135.527C222.091 137.391 221.979 137.534 221.423 138.248L219.641 140.535C218.416 142.107 215.509 142.589 215.509 142.589L210.613 143.352L208.152 143.262L203.676 142.512L200.293 141.007C200.293 141.007 199.195 140.144 196.931 138.828C194.667 137.511 195.093 137.615 193.077 136.954C191.062 136.292 191.755 136.377 189.517 136.001C187.279 135.626 186.651 135.133 186.651 135.133L184.119 133.836C184.119 133.836 180.109 131.838 180.665 131.124C181.222 130.409 182.518 130.045 182.518 130.045L215.287 123.065L217.257 123.46L218.827 124.693L220.625 127.256L221.75 129.06C221.75 129.06 230.291 128.166 231.724 128.6Z" fill="#3EADF7"/>
<path d="M198.612 33.3575C206.385 33.3575 212.686 27.032 212.686 19.2291C212.686 11.4262 206.385 5.10071 198.612 5.10071C190.839 5.10071 184.537 11.4262 184.537 19.2291C184.537 27.032 190.839 33.3575 198.612 33.3575Z" fill="#DE1124"/>
<path d="M198.612 28.3035V43.5518L199.47 43.8964L200.586 44.1548L202.989 44.844L206.507 45.2747L208.395 45.5332L209.94 45.7916L211.828 46.0501L213.545 46.567L215.004 47.0839L216.377 47.8592L216.892 48.4622L217.149 49.0653L216.892 139.263C216.892 139.263 216.977 139.952 216.72 140.555C216.463 141.158 216.463 141.158 216.119 141.675C215.776 142.192 215.776 142.278 215.261 142.709C214.746 143.14 212.772 144.432 212.772 144.432L210.541 145.896L208.653 147.016L206.851 148.05L205.563 148.739C205.563 148.739 205.22 148.912 204.533 149.17C203.847 149.428 199.47 149.342 199.47 149.342V151.496C199.47 151.496 205.22 151.668 205.992 151.324C206.765 150.979 206.851 150.893 206.851 150.893L211.399 148.309C211.399 148.309 212.772 147.533 213.802 146.844C214.832 146.155 214.746 146.155 215.776 145.379C216.806 144.604 216.892 144.604 217.492 144.087C218.093 143.57 218.351 143.226 218.694 142.709C219.037 142.192 219.552 141.417 219.724 140.727C219.895 140.038 220.067 138.918 220.067 138.918V138.143V49.0653V47.5146C220.067 47.5146 220.239 47.0839 219.81 46.3947C219.38 45.7055 218.866 45.447 218.866 45.447L218.007 45.1024C218.007 45.1024 217.321 44.844 216.892 44.6717C216.463 44.4994 215.519 44.3271 215.519 44.3271L213.545 43.8964L211.828 43.5518L209.94 43.121L208.052 42.7764L207.022 42.6041L205.649 42.3457L204.276 41.9149C204.276 41.9149 202.989 41.5704 202.989 40.8812C202.989 40.192 202.989 39.6751 202.989 39.6751C202.989 39.6751 203.16 33.817 202.989 33.1278C202.817 32.4386 202.645 32.1802 202.645 32.1802C202.645 32.1802 202.216 31.491 202.045 31.1464C201.873 30.8018 201.53 30.4572 201.186 30.0264C200.843 29.5957 200.586 29.3372 200.157 28.9065C199.727 28.4758 199.813 28.5619 199.47 28.3035C199.127 28.045 198.612 28.3035 198.612 28.3035Z" fill="black" stroke="black"/>
<path d="M181.19 133.118V135.013H216.978V133.118H181.19Z" fill="black"/>
<path d="M199.384 28.1885V43.4368L198.526 43.7814L197.41 44.0399L195.007 44.7291L191.489 45.1598L189.601 45.4183L188.056 45.6767L186.168 45.9352L184.451 46.452L182.992 46.9689L181.619 47.7443L181.104 48.3473L180.847 48.9504L181.104 139.148C181.104 139.148 181.019 139.837 181.276 140.44C181.533 141.043 181.533 141.043 181.877 141.56C182.22 142.077 182.22 142.163 182.735 142.594C183.25 143.025 185.224 144.317 185.224 144.317L187.455 145.781L189.343 146.901L191.145 147.935L192.433 148.624C192.433 148.624 192.776 148.797 193.463 149.055C194.149 149.314 199.556 149.227 199.556 149.227V151.467C199.556 151.467 192.776 151.553 192.004 151.209C191.231 150.864 191.145 150.778 191.145 150.778L186.597 148.194C186.597 148.194 185.224 147.418 184.194 146.729C183.164 146.04 183.25 146.04 182.22 145.265C181.19 144.489 181.104 144.489 180.504 143.972C179.903 143.455 179.645 143.111 179.302 142.594C178.959 142.077 178.444 141.302 178.272 140.613C178.101 139.923 177.929 138.803 177.929 138.803V138.028V48.9504V47.3997C177.929 47.3997 177.757 46.9689 178.186 46.2798C178.615 45.5906 179.13 45.3321 179.13 45.3321L179.989 44.9875C179.989 44.9875 180.675 44.7291 181.104 44.5568C181.533 44.3845 182.477 44.2122 182.477 44.2122L184.451 43.7814L186.168 43.4368L188.056 43.0061L189.944 42.6615L190.974 42.4892L192.347 42.2308L193.72 41.8C193.72 41.8 195.007 41.4554 195.007 40.7662C195.007 40.077 195.007 39.5602 195.007 39.5602C195.007 39.5602 194.836 33.702 195.007 33.0129C195.179 32.3237 195.351 32.0652 195.351 32.0652C195.351 32.0652 195.78 31.376 195.951 31.0314C196.123 30.6868 196.466 30.3423 196.81 29.9115C197.153 29.4808 197.41 29.2223 197.839 28.7916C198.269 28.3608 198.183 28.447 198.526 28.1885C198.869 27.9301 199.384 28.1885 199.384 28.1885Z" fill="black" stroke="black"/>
</svg>
