<svg width="26" height="26" viewBox="0 0 26 26" fill="none" xmlns="http://www.w3.org/2000/svg">
<g clip-path="url(#clip0_75_5)">
<path d="M5.49436 7.84736e-08H20.5047C21.2263 -0.000121876 21.9409 0.141904 22.6076 0.417967C23.2743 0.694029 23.8801 1.09872 24.3904 1.60893C24.9007 2.11914 25.3055 2.72488 25.5817 3.39154C25.8579 4.05821 26 4.77275 26 5.49436V20.5047C26.0001 21.2263 25.8581 21.9409 25.582 22.6076C25.306 23.2743 24.9013 23.8801 24.3911 24.3904C23.8809 24.9007 23.2751 25.3055 22.6085 25.5817C21.9418 25.8579 21.2272 26 20.5056 26H5.49436C4.77283 26 4.05836 25.8579 3.39176 25.5818C2.72515 25.3056 2.11946 24.9009 1.60926 24.3907C1.09906 23.8805 0.69435 23.2748 0.418233 22.6082C0.142116 21.9416 0 21.2272 0 20.5056L0 5.49436C0 4.03716 0.578868 2.63965 1.60926 1.60926C2.63965 0.578868 4.03716 7.84736e-08 5.49436 7.84736e-08Z" fill="url(#paint0_linear_75_5)"/>
<path d="M19.5 19.4183V10.023L15.7857 8.16586L15.3781 7.93C15.2645 7.7355 15.1273 7.55584 14.9695 7.39514C14.4466 6.87381 13.7384 6.58106 13 6.58106C12.2616 6.58106 11.5534 6.87381 11.0305 7.39514C10.7711 7.65344 10.5654 7.96055 10.4254 8.29874C10.2853 8.63693 10.2135 8.99952 10.2143 9.36557C10.2143 9.43429 10.2291 9.50114 10.2338 9.56893L6.5 7.70157V17.0969L10.2143 18.954L10.6572 19.175L11.1429 18.9819L15.3001 17.3188L19.5 19.4183ZM18.5714 10.5969V17.9159L15.7857 16.523V9.204L18.5714 10.5969ZM11.687 8.05164C12.0356 7.70416 12.5078 7.50905 13 7.50905C13.4922 7.50905 13.9644 7.70416 14.313 8.05164C14.4839 8.2225 14.6148 8.42029 14.7067 8.63572L14.7253 8.68214C14.7318 8.69793 14.7346 8.71464 14.7401 8.73043C14.7745 8.82514 14.8051 8.92079 14.8237 9.01829C14.8815 9.31569 14.8652 9.62275 14.7761 9.91233C14.687 10.2019 14.528 10.4651 14.313 10.6786L13 11.9916L11.687 10.6786C11.5999 10.5914 11.5215 10.4959 11.453 10.3935C11.4409 10.3759 11.4335 10.3554 11.4224 10.3369C11.3679 10.2522 11.3207 10.163 11.2812 10.0704C11.1434 9.73116 11.1084 9.35892 11.1805 8.99998C11.2527 8.64104 11.4288 8.31124 11.687 8.05164ZM7.42857 16.523V9.204L10.2143 10.5969V17.9159L7.42857 16.523ZM11.1429 11.4474L13 13.3046L14.8571 11.4474V16.4961L11.1429 17.9818V11.4474Z" fill="black"/>
<path d="M13.0003 9.77971C13.3208 9.77971 13.5806 9.51988 13.5806 9.19936C13.5806 8.87883 13.3208 8.619 13.0003 8.619C12.6798 8.619 12.4199 8.87883 12.4199 9.19936C12.4199 9.51988 12.6798 9.77971 13.0003 9.77971Z" fill="black"/>
</g>
<defs>
<linearGradient id="paint0_linear_75_5" x1="2.89424" y1="0.522944" x2="23.2433" y2="25.6615" gradientUnits="userSpaceOnUse">
<stop stop-color="#FEDB68"/>
<stop offset="1" stop-color="#FEDB68"/>
</linearGradient>
<clipPath id="clip0_75_5">
<rect width="26" height="26" fill="white"/>
</clipPath>
</defs>
</svg>
