<svg width="26" height="26" viewBox="0 0 26 26" fill="none" xmlns="http://www.w3.org/2000/svg">
<g clip-path="url(#clip0_115_2)">
<path d="M5.49436 7.84736e-08H20.5047C21.2263 -0.000121876 21.9409 0.141904 22.6076 0.417967C23.2743 0.694029 23.8801 1.09872 24.3904 1.60893C24.9007 2.11914 25.3055 2.72488 25.5817 3.39154C25.8579 4.05821 26 4.77275 26 5.49436V20.5047C26.0001 21.2263 25.8581 21.9409 25.582 22.6076C25.306 23.2743 24.9013 23.8801 24.3911 24.3904C23.8809 24.9007 23.2751 25.3055 22.6085 25.5817C21.9418 25.8579 21.2272 26 20.5056 26H5.49436C4.77283 26 4.05836 25.8579 3.39176 25.5818C2.72515 25.3056 2.11946 24.9009 1.60926 24.3907C1.09906 23.8805 0.69435 23.2748 0.418233 22.6082C0.142116 21.9416 0 21.2272 0 20.5056L0 5.49436C0 4.03716 0.578868 2.63965 1.60926 1.60926C2.63965 0.578868 4.03716 7.84736e-08 5.49436 7.84736e-08Z" fill="url(#paint0_linear_115_2)"/>
<path d="M12.9893 6.53624C13.0299 6.35743 13.0811 6.03337 13.3012 6C13.5461 6.01069 13.5805 6.34998 13.6351 6.53624C14.5214 6.53137 14.4011 6.73728 13.8238 7.14866C13.8828 7.31017 13.9635 7.4891 13.9534 7.66258C13.7737 7.9523 13.4822 7.58873 13.3012 7.49498C13.175 7.58977 12.7803 7.97038 12.6579 7.6761C12.6054 7.54986 12.7418 7.27401 12.7898 7.14866C12.6698 7.04566 12.1894 6.80079 12.4138 6.59345C12.511 6.50366 12.8521 6.53549 12.9893 6.53624ZM13.3012 6.70346C13.2771 6.75906 13.2592 6.81956 13.2319 6.87325C13.1768 6.8721 13.1175 6.86688 13.063 6.87325C13.105 6.91883 13.1489 6.9632 13.1829 7.01514C13.1755 7.06047 13.1675 7.10437 13.1549 7.14866C13.2036 7.13471 13.2852 7.09992 13.3347 7.11068C13.3789 7.13299 13.4172 7.15899 13.4572 7.18783C13.4549 7.13023 13.4603 7.07241 13.4572 7.01514C13.4885 6.96163 13.5312 6.91862 13.573 6.87325C13.5147 6.87359 13.4556 6.8757 13.3974 6.87325C13.3676 6.81629 13.3397 6.75507 13.3012 6.70346ZM16.5182 6.89856C16.6416 6.70773 16.8642 6.25708 17.0657 6.16878C17.3361 6.15308 17.3191 6.41044 17.3412 6.6015L17.3996 7.11068C17.576 7.1492 18.2385 7.25859 18.3239 7.41597C18.4705 7.68614 17.741 7.91346 17.5239 8.02317L17.5259 8.67424C17.5266 8.77585 17.537 8.87935 17.5239 8.98039C17.3665 9.27682 17.1271 8.9494 16.9974 8.80859C16.8789 8.67994 16.7576 8.55276 16.6453 8.4187C16.6225 8.41597 16.5954 8.41863 16.5722 8.4187C16.4596 8.47572 15.5289 9.00004 15.6028 8.53354C15.6296 8.3644 15.922 7.92544 16.0087 7.71419C15.8315 7.39316 14.8706 6.53418 15.9676 6.77319L16.5182 6.89856ZM16.9852 6.89856C16.6008 7.40058 16.7393 7.3408 16.0974 7.18783C16.1818 7.31318 16.3609 7.48906 16.4105 7.61685C16.4814 7.79944 16.262 8.02744 16.1869 8.18001C16.3405 8.13522 16.4869 8.04448 16.6453 8.02317C16.8649 8.02109 17.0171 8.26236 17.1362 8.4187C17.1624 7.75547 16.9554 7.87781 17.6115 7.55147C17.4443 7.5132 17.1697 7.48881 17.0733 7.3356C17.0016 7.22176 17.0063 6.92688 16.9852 6.89856ZM12.7299 11.7325C12.5908 11.7625 12.4297 11.6485 12.4916 11.4959C12.5294 11.4025 12.7016 11.2249 12.7718 11.1289C13.2808 10.4332 13.6317 9.63296 13.7519 8.77717C13.7914 8.49531 13.7 8.09881 13.9534 7.98899C14.2259 7.95313 14.1979 8.24762 14.1858 8.43265C14.1135 9.5433 13.6917 10.5915 13.0009 11.4634C12.9247 11.5597 12.8456 11.6812 12.7299 11.7325ZM11.8827 10.6377C11.548 10.5999 11.7223 10.3336 11.8142 10.1896C12.2032 9.58031 11.743 8.77642 11.0653 8.6458C10.9609 8.62568 10.7908 8.64655 10.7066 8.58224C10.5515 8.46385 10.6644 8.25935 10.8348 8.24801C11.9941 8.23223 12.6912 9.43545 12.1287 10.4161C12.0678 10.5223 12.0068 10.6042 11.8827 10.6377ZM18.2561 10.0454C18.2666 9.79726 18.2028 9.25677 18.4786 9.20006C18.6805 9.21018 18.9331 9.61546 19.082 9.7558C19.2228 9.72524 20.1445 9.35931 19.9694 9.8294C19.9057 10.0004 19.7014 10.2421 19.6107 10.4268L19.6049 10.4389C19.7736 10.6488 20.2277 11.0984 19.8602 11.279C19.6168 11.2492 19.3686 11.1856 19.1278 11.1377L19.014 11.2834C18.9236 11.3988 18.7171 11.7137 18.567 11.7275C18.28 11.7539 18.2916 11.0853 18.2827 10.9088C18.0942 10.8594 17.5602 10.7146 17.4764 10.5439C17.3845 10.3568 17.681 10.2713 17.8029 10.2228L18.2561 10.0454ZM18.6341 9.87269C18.6698 10.4099 18.5622 10.2767 18.1986 10.5026C18.6271 10.5446 18.6299 10.72 18.6741 11.0904C18.7597 10.9769 18.8438 10.8271 18.9742 10.7619C19.1109 10.7301 19.2776 10.7827 19.4123 10.8107C19.1277 10.4866 19.146 10.399 19.4123 10.0776C18.6351 10.2849 19.0051 10.0382 18.6341 9.87269ZM15.0653 10.2193C15.0151 10.0098 14.8031 9.59387 15.1342 9.53204C15.3198 9.5518 15.456 9.76789 15.6007 9.87269C15.7389 9.75333 16.0766 9.37308 16.2424 9.62173C16.324 9.744 16.1689 10.0657 16.1374 10.2053L16.1344 10.2193C16.2795 10.3421 16.6568 10.5401 16.5386 10.7535C16.4126 10.9809 15.9442 10.7872 15.8788 10.9305C15.8427 11.0839 15.7961 11.6203 15.5061 11.4645C15.3866 11.4003 15.3217 11.0215 15.2723 10.8754C15.1186 10.8592 14.788 10.8862 14.6775 10.7832C14.4436 10.5653 14.946 10.326 15.0653 10.2193ZM15.4458 10.2193C15.4613 10.2757 15.4971 10.3239 15.5282 10.3731C15.4726 10.4133 15.4174 10.4512 15.3715 10.5026L15.5282 10.5274C15.5523 10.5801 15.5756 10.6333 15.6007 10.6855C15.6285 10.6319 15.6559 10.5786 15.6882 10.5274C15.7519 10.5252 15.8152 10.526 15.8788 10.5274C15.8229 10.4797 15.7787 10.4387 15.7434 10.3731C15.7388 10.3209 15.7318 10.271 15.7434 10.2193C15.6963 10.2462 15.6492 10.2727 15.6007 10.2972C15.5504 10.2687 15.5009 10.2377 15.4458 10.2193ZM10.1081 17.8469C9.76683 18.0017 7.78194 18.9986 7.52074 19C7.21754 19.0016 6.98755 18.7664 7.00052 18.4648C7.01206 18.1966 7.54941 17.1847 7.68754 16.8925L10.0331 11.8843C10.1724 11.588 10.2979 11.0743 10.6766 11.0904C10.9632 10.9972 11.5181 11.6811 11.7111 11.8732L14.2032 14.3636C14.4727 14.6283 15.3259 15.239 14.7615 15.6129C14.6048 15.7168 14.3987 15.7939 14.2271 15.8763L10.1081 17.8469ZM10.6766 11.4445C10.5168 11.6642 10.191 12.4532 10.0713 12.7258C10.3409 13.013 10.6299 13.2835 10.9092 13.5615L12.9863 15.6292C13.0789 15.7205 13.1766 15.8096 13.2642 15.9056C13.4177 15.8338 13.5699 15.7594 13.7222 15.6851L14.5595 15.2815C14.2467 14.9382 13.8713 14.5913 13.5365 14.2574L11.3596 12.0857C11.2472 11.9753 10.7946 11.465 10.6766 11.4445ZM9.88764 13.0969C9.69622 13.515 9.43372 14.0286 9.27194 14.4484C9.39679 14.5914 9.54593 14.7181 9.68123 14.8515L11.0466 16.2172C11.2113 16.3838 11.3725 16.5582 11.5471 16.7147C11.7191 16.643 11.8862 16.5568 12.0541 16.476L12.8928 16.0851C12.7398 15.9256 12.5775 15.7745 12.4208 15.6185L10.3353 13.5272C10.1886 13.3811 10.0495 13.227 9.88764 13.0969ZM9.09971 14.8165C8.92141 15.1779 8.75558 15.5442 8.58443 15.9088L7.96768 17.2052C7.81294 17.5307 7.46419 18.1732 7.37543 18.5057C7.40865 18.5513 7.44685 18.6051 7.50819 18.6114C7.58683 18.6194 8.67026 18.0861 8.83428 18.0078L10.8568 17.0565C10.9659 17.0043 11.0783 16.9585 11.1813 16.8948L9.30656 15.0174C9.2409 14.9524 9.17303 14.8721 9.09971 14.8165ZM13.4572 12.6407C13.3018 12.6539 13.1711 12.51 13.2452 12.3572C13.2723 12.3011 14.0229 11.5664 14.1442 11.5225C14.2964 11.5114 14.4359 11.6274 14.364 11.7889C14.3146 11.8998 13.6273 12.5767 13.4572 12.6407ZM14.8749 13.0969C14.6754 13.1577 14.4865 13.3977 14.2981 13.4312C14.1339 13.4603 14.0192 13.2407 14.1276 13.1183C14.2079 13.0275 14.345 12.9558 14.446 12.8871C15.1916 12.3807 16.0862 12.0863 16.9852 12.024C17.2015 12.0187 17.8816 11.9907 18.0193 12.1535C18.0863 12.2328 18.0907 12.3491 18.0025 12.414C17.8827 12.5021 17.705 12.446 17.5692 12.4279C16.7939 12.3242 15.5218 12.6073 14.8749 13.0969ZM15.5739 14.2782C15.4268 14.237 15.3017 14.0927 15.4386 13.9516C15.5781 13.8079 15.9057 13.7565 16.0974 13.752C16.7219 13.7011 17.3101 14.0914 17.5444 14.6628C17.5955 14.7874 17.6761 15.0083 17.616 15.139C17.5726 15.2333 17.4429 15.27 17.3517 15.2232C17.2292 15.1604 17.2328 14.9677 17.1978 14.8519C17.0201 14.328 16.4096 14.0084 15.875 14.1696C15.7727 14.2005 15.6779 14.2518 15.5739 14.2782Z" fill="black"/>
</g>
<defs>
<linearGradient id="paint0_linear_115_2" x1="2.89424" y1="0.522944" x2="23.2433" y2="25.6615" gradientUnits="userSpaceOnUse">
<stop stop-color="#FEDB68"/>
<stop offset="1" stop-color="#FEDB68"/>
</linearGradient>
<clipPath id="clip0_115_2">
<rect width="26" height="26" fill="white"/>
</clipPath>
</defs>
</svg>
