<svg width="38" height="36" viewBox="0 0 38 36" fill="none" xmlns="http://www.w3.org/2000/svg">
<g clip-path="url(#clip0_16_58)">
<path d="M0.681641 18C0.681641 8.05888 8.74052 0 18.6816 0C28.6228 0 36.6816 8.05888 36.6816 18C36.6816 27.9411 28.6228 36 18.6816 36C8.74052 36 0.681641 27.9411 0.681641 18Z" fill="#272727" fill-opacity="0.75"/>
<path d="M18.0083 24.4417L14.6556 21.0889L16.025 19.7194L18.0083 21.7028L21.975 17.7361L23.3444 19.1056L18.0083 24.4417ZM12.3889 27.8889C11.8694 27.8889 11.4248 27.7039 11.0549 27.334C10.685 26.9641 10.5 26.5194 10.5 26V12.7778C10.5 12.2583 10.685 11.8137 11.0549 11.4438C11.4248 11.0738 11.8694 10.8889 12.3889 10.8889H13.3333V9H15.2222V10.8889H22.7778V9H24.6667V10.8889H25.6111C26.1306 10.8889 26.5752 11.0738 26.9451 11.4438C27.315 11.8137 27.5 12.2583 27.5 12.7778V26C27.5 26.5194 27.315 26.9641 26.9451 27.334C26.5752 27.7039 26.1306 27.8889 25.6111 27.8889H12.3889ZM12.3889 26H25.6111V16.5556H12.3889V26Z" fill="#EE657E"/>
</g>
<defs>
<clipPath id="clip0_16_58">
<rect width="37" height="36" fill="white" transform="translate(0.5)"/>
</clipPath>
</defs>
</svg>
