<svg width="26" height="26" viewBox="0 0 26 26" fill="none" xmlns="http://www.w3.org/2000/svg">
<g clip-path="url(#clip0_120_2)">
<path d="M5.49436 7.84736e-08H20.5047C21.2263 -0.000121876 21.9409 0.141904 22.6076 0.417967C23.2743 0.694029 23.8801 1.09872 24.3904 1.60893C24.9007 2.11914 25.3055 2.72488 25.5817 3.39154C25.8579 4.05821 26 4.77275 26 5.49436V20.5047C26.0001 21.2263 25.8581 21.9409 25.582 22.6076C25.306 23.2743 24.9013 23.8801 24.3911 24.3904C23.8809 24.9007 23.2751 25.3055 22.6085 25.5817C21.9418 25.8579 21.2272 26 20.5056 26H5.49436C4.77283 26 4.05836 25.8579 3.39176 25.5818C2.72515 25.3056 2.11946 24.9009 1.60926 24.3907C1.09906 23.8805 0.69435 23.2748 0.418233 22.6082C0.142116 21.9416 0 21.2272 0 20.5056L0 5.49436C0 4.03716 0.578868 2.63965 1.60926 1.60926C2.63965 0.578868 4.03716 7.84736e-08 5.49436 7.84736e-08Z" fill="url(#paint0_linear_120_2)"/>
<path d="M12.6248 15.1366H14.3777C14.4874 15.1366 14.5748 15.0492 14.5748 14.9395V12.8412C14.5748 12.7316 14.4874 12.6442 14.3777 12.6442H12.6248C12.5151 12.6442 12.4277 12.7316 12.4277 12.8412V14.9395C12.4277 15.0472 12.5151 15.1366 12.6248 15.1366ZM13.6973 13.0383H14.1787V13.6923H13.6973V13.0383ZM13.6973 14.0864H14.1787V14.7405H13.6973V14.0864ZM12.8218 13.0383H13.3032V13.6923H12.8218V13.0383ZM12.8218 14.0864H13.3032V14.7405H12.8218V14.0864Z" fill="#0C0C0B"/>
<path d="M19.803 15.8597H19.5369V15.2909C19.5369 15.1812 19.4495 15.0939 19.3398 15.0939H19.2627V12.1547H19.3988C19.4678 12.1547 19.5328 12.1181 19.5673 12.0592C19.5852 12.0304 19.5952 11.9974 19.5963 11.9635C19.5973 11.9297 19.5895 11.8961 19.5734 11.8662L18.6655 10.1498C18.6487 10.118 18.6236 10.0914 18.5928 10.0728C18.562 10.0541 18.5267 10.0443 18.4908 10.0442H17.3594L16.8881 8.86812C16.8736 8.83151 16.8484 8.80011 16.8158 8.77801C16.7832 8.75591 16.7447 8.74414 16.7053 8.74422H10.2927C10.2114 8.74422 10.1403 8.79297 10.1098 8.86812L9.64062 10.0422H8.50516C8.43203 10.0422 8.365 10.0828 8.33047 10.1478L7.42656 11.8662C7.39406 11.9272 7.39609 12.0003 7.43266 12.0592C7.46922 12.1181 7.53219 12.1547 7.60125 12.1547H7.73734V15.0939H7.66016C7.55047 15.0939 7.46312 15.1812 7.46312 15.2909V15.8597H7.19703C7.08734 15.8597 7 15.947 7 16.0567C7 16.1664 7.08734 16.2537 7.19703 16.2537H19.803C19.9127 16.2537 20 16.1664 20 16.0567C20 15.947 19.9127 15.8597 19.803 15.8597ZM17.2273 10.4403H18.373L19.0717 11.7627H15.5353L14.3328 10.4403H17.2273ZM18.8686 12.1547V15.0939H18.4888V12.1547H18.8686ZM16.6789 12.1547V15.0939H16.2991V12.1547H16.6789ZM10.4247 9.14031H16.5712L16.9348 10.0442H13.9773L13.6463 9.68062C13.5711 9.59937 13.4289 9.59937 13.3538 9.68062L13.0227 10.0442H10.0631L10.4247 9.14031ZM8.625 10.4403H12.6652L11.4627 11.7627H7.92625L8.625 10.4403ZM10.7009 12.1547V15.0939H10.3211V12.1547H10.7009ZM8.51125 12.1547V15.0939H8.13141V12.1547H8.51125ZM8.78547 15.8597H7.85719V15.488H8.78547V15.8597ZM9.92703 15.0939H9.84984C9.74016 15.0939 9.65281 15.1812 9.65281 15.2909V15.8597H9.17953V15.2909C9.17953 15.1812 9.09219 15.0939 8.9825 15.0939H8.90328V12.1547H9.92703V15.0939ZM10.9752 15.8597H10.0469V15.488H10.9752V15.8597ZM11.7227 15.8597H11.3692V15.2909C11.3692 15.1812 11.2819 15.0939 11.1722 15.0939H11.095V12.1547H11.7227V15.8597ZM14.8833 15.8597H12.1167V12.1547H14.8812V15.8597H14.8833ZM11.9969 11.7627L13.5 10.1072L13.7478 10.3794L13.7519 10.3834L15.0052 11.7627H11.9969ZM15.905 15.0939H15.8278C15.7181 15.0939 15.6308 15.1812 15.6308 15.2909V15.8597H15.2773V12.1547H15.905V15.0939ZM16.9531 15.8597H16.0248V15.488H16.9531V15.8597ZM18.0967 15.0939H18.0195C17.9098 15.0939 17.8225 15.1812 17.8225 15.2909V15.8597H17.3492V15.2909C17.3492 15.1812 17.2619 15.0939 17.1522 15.0939H17.075V12.1547H18.0987V15.0939H18.0967ZM19.1428 15.8597H18.2145V15.488H19.1428V15.8597Z" fill="#0C0C0B"/>
</g>
<defs>
<linearGradient id="paint0_linear_120_2" x1="2.89424" y1="0.522944" x2="23.2433" y2="25.6615" gradientUnits="userSpaceOnUse">
<stop stop-color="#FEDB68"/>
<stop offset="1" stop-color="#FEDB68"/>
</linearGradient>
<clipPath id="clip0_120_2">
<rect width="26" height="26" fill="white"/>
</clipPath>
</defs>
</svg>
