<svg width="100" height="100" viewBox="0 0 100 100" fill="none" xmlns="http://www.w3.org/2000/svg">
<circle cx="50" cy="50" r="50" fill="#FEDB68" fill-opacity="0.8"/>
<path d="M65.2376 17.0006C65.0477 17.0066 64.8676 17.0862 64.7352 17.2225L61.8979 20.06C61.5635 20.0982 60.6406 20.2136 59.3441 20.5611C57.7844 20.9791 55.9028 21.6692 54.6 22.972C53.3894 24.1826 52.7164 25.377 52.5429 26.5224C52.4099 27.4005 52.6052 28.2363 53.0411 28.9176L51.4593 30.4995C51.7122 28.9033 51.4052 27.2146 51.0384 25.8453C50.7491 24.7653 50.47 24.0437 50.2868 23.5976L52.9294 20.9505C53.4031 20.4846 53.0625 19.6794 52.3983 19.6949C52.2084 19.701 52.0283 19.7805 51.8959 19.9168L48.9541 22.8603C48.8879 22.9079 47.9218 23.6063 46.8183 24.71C45.6766 25.8518 44.3905 27.3942 43.9137 29.1738C43.4706 30.8276 43.4798 32.2011 43.9023 33.2798C44.3247 34.3585 45.1967 35.0936 46.2228 35.3686C46.3236 35.3956 46.4252 35.4138 46.5277 35.4316L43.3669 38.5926C43.6207 36.9955 43.3145 35.3057 42.9474 33.9355C42.5296 32.3758 42.0012 31.2096 42.0012 31.2096C41.8759 30.9345 41.5945 30.7645 41.2926 30.7816C41.1541 30.7891 41.0205 30.8358 40.9075 30.9162C40.9075 30.9162 39.869 31.6584 38.7273 32.8002C37.5856 33.942 36.2996 35.4844 35.8227 37.2641C35.3796 38.9179 35.3888 40.2913 35.8113 41.37C36.2337 42.4487 37.1057 43.1839 38.1318 43.4588C38.2327 43.486 38.3356 43.504 38.4381 43.5218L35.3961 46.564C35.65 44.9669 35.3438 43.2771 34.9767 41.9069C34.5589 40.3472 34.0305 39.181 34.0305 39.181C33.9052 38.9059 33.6237 38.7359 33.3219 38.753C33.1834 38.7605 33.0498 38.8072 32.9368 38.8876C32.9368 38.8876 31.8983 39.6298 30.7566 40.7716C29.6149 41.9134 28.3289 43.4558 27.852 45.2355C27.4089 46.8893 27.4181 48.2627 27.8406 49.3414C28.2631 50.4201 29.135 51.1553 30.1611 51.4302C30.2624 51.4573 30.3659 51.4753 30.4689 51.4932L22.2405 59.7208C21.5182 60.4136 22.5881 61.4821 23.2798 60.7588L31.5053 52.5325C31.523 52.6346 31.5414 52.737 31.5683 52.8375C31.8432 53.8636 32.5782 54.7357 33.6569 55.1582C34.7355 55.5807 36.1102 55.5912 37.7639 55.1482C39.5435 54.6712 41.0856 53.3837 42.2274 52.2419C43.3692 51.1002 44.1098 50.0615 44.1098 50.0615C44.3772 49.6865 44.2366 49.1607 43.8178 48.9692C43.8178 48.9692 42.6504 48.4393 41.0907 48.0214C40.116 47.7603 38.9796 47.5304 37.8297 47.5103C37.362 47.5023 36.8931 47.5325 36.4311 47.6063L39.476 44.5612C39.4937 44.6632 39.5121 44.7656 39.539 44.8661C39.8139 45.8922 40.5489 46.7643 41.6276 47.1868C42.7062 47.6093 44.0809 47.6198 45.7346 47.1768C47.5142 46.6999 49.0563 45.4123 50.1981 44.2706C51.3399 43.1288 52.0805 42.0902 52.0805 42.0902C52.348 41.7152 52.2074 41.1893 51.7885 40.9978C51.7885 40.9978 50.6211 40.4679 49.0614 40.05C48.0867 39.7888 46.9503 39.559 45.8004 39.539C45.3327 39.5308 44.8639 39.5611 44.4019 39.6349L47.5655 36.4709C47.5833 36.573 47.603 36.6754 47.6299 36.7759C47.9049 37.802 48.6399 38.6741 49.7185 39.0966C50.7972 39.5191 52.1718 39.5297 53.8256 39.0865C55.6051 38.6097 57.1472 37.322 58.289 36.1803C59.3703 35.0991 60.0437 34.1718 60.1171 34.0701L63.0846 31.1023C63.56 30.635 63.2155 29.8271 62.5492 29.8467C62.3588 29.8524 62.1781 29.932 62.0453 30.0686L59.4013 32.7129C58.9553 32.5293 58.2334 32.2494 57.1524 31.9598C56.1776 31.6987 55.0412 31.4688 53.8914 31.4487C53.4236 31.4406 52.9534 31.4709 52.4914 31.5447L54.0789 29.957C54.7617 30.3946 55.6012 30.5925 56.4796 30.4595C57.625 30.286 58.8149 29.6086 60.0255 28.3979C61.3282 27.0951 62.0167 25.2117 62.4347 23.652C62.7853 22.3438 62.9039 21.4119 62.9415 21.0894L65.773 18.2619C66.2589 17.7951 65.9109 16.9752 65.2376 17.0006ZM57.4774 17.5088C57.4746 17.5093 57.4715 17.5097 57.4688 17.5102C57.2786 17.5155 57.0979 17.5946 56.9649 17.7307L55.4117 19.284C54.7176 19.977 55.7569 21.0163 56.451 20.3234L58.0042 18.7701C58.4865 18.3063 58.1463 17.4917 57.4774 17.5088ZM64.2099 24.9706L62.6524 26.5296C61.903 27.221 63.002 28.3155 63.6902 27.5632L65.2434 26.0099C65.7257 25.5461 65.3855 24.7315 64.7152 24.7494C64.5236 24.7554 64.3429 24.8345 64.2099 24.9706Z" fill="#673AB7"/>
<path d="M58 51L46 63M46 51L58 63" stroke="#673AB7" stroke-width="2" stroke-linecap="round" stroke-linejoin="round"/>
<path d="M18.3303 78.0227C17.6044 78.0227 16.983 77.9216 16.4659 77.7195C15.9489 77.5173 15.5429 77.2405 15.2479 76.8892C14.9529 76.5379 14.7756 76.1402 14.7159 75.696L17.0178 75.5668C17.0608 75.7225 17.1404 75.8584 17.2564 75.9744C17.3757 76.0904 17.5298 76.1799 17.7188 76.2429C17.911 76.3059 18.1364 76.3374 18.3949 76.3374C18.8026 76.3374 19.139 76.2379 19.4041 76.0391C19.6726 75.8435 19.8068 75.5005 19.8068 75.0099V73.6676H19.7223C19.6262 73.9029 19.4804 74.1134 19.2848 74.299C19.0893 74.4846 18.8456 74.6304 18.554 74.7365C18.2656 74.8426 17.9342 74.8956 17.5597 74.8956C17.0028 74.8956 16.4924 74.7663 16.0284 74.5078C15.5677 74.246 15.1982 73.8416 14.9197 73.2947C14.6446 72.7446 14.5071 72.0369 14.5071 71.1719C14.5071 70.2803 14.6496 69.5462 14.9347 68.9695C15.2197 68.3894 15.5926 67.9602 16.0533 67.6818C16.5173 67.4034 17.0161 67.2642 17.5497 67.2642C17.9508 67.2642 18.2938 67.3338 18.5788 67.473C18.8672 67.6089 19.1042 67.7846 19.2898 68C19.4754 68.2154 19.6162 68.4392 19.7124 68.6712H19.782V67.3636H22.2031V75.0298C22.2031 75.6761 22.0407 76.2214 21.7159 76.6655C21.3911 77.1096 20.937 77.446 20.3537 77.6747C19.7704 77.9067 19.0959 78.0227 18.3303 78.0227ZM18.4048 73.1257C18.6998 73.1257 18.9517 73.0478 19.1605 72.892C19.3693 72.7363 19.5301 72.5125 19.6428 72.2209C19.7554 71.9292 19.8118 71.5795 19.8118 71.1719C19.8118 70.7576 19.7554 70.4013 19.6428 70.103C19.5334 69.8014 19.3726 69.5694 19.1605 69.407C18.9517 69.2446 18.6998 69.1634 18.4048 69.1634C18.1032 69.1634 17.848 69.2462 17.6392 69.4119C17.4304 69.5777 17.2713 69.8113 17.1619 70.1129C17.0559 70.4112 17.0028 70.7642 17.0028 71.1719C17.0028 71.5795 17.0575 71.9292 17.1669 72.2209C17.2763 72.5125 17.4337 72.7363 17.6392 72.892C17.848 73.0478 18.1032 73.1257 18.4048 73.1257ZM26.1841 64.8182V75H23.753V64.8182H26.1841ZM32.6584 71.7038V67.3636H35.0845V75H32.7678V73.5781H32.6882C32.5192 74.0455 32.2308 74.4167 31.8232 74.6918C31.4188 74.9635 30.9299 75.0994 30.3565 75.0994C29.8362 75.0994 29.3788 74.9801 28.9844 74.7415C28.59 74.5028 28.2834 74.1697 28.0646 73.7422C27.8459 73.3113 27.7348 72.8075 27.7315 72.2308V67.3636H30.1626V71.7536C30.166 72.1679 30.2753 72.4943 30.4908 72.733C30.7062 72.9716 30.9995 73.0909 31.3707 73.0909C31.6127 73.0909 31.8298 73.0379 32.022 72.9318C32.2176 72.8224 32.3717 72.665 32.4844 72.4595C32.6004 72.2507 32.6584 71.9988 32.6584 71.7038ZM40.9423 67.3636V69.1534H36.1248V67.3636H40.9423ZM37.1341 65.5341H39.5652V72.5987C39.5652 72.7479 39.5884 72.8688 39.6348 72.9616C39.6845 73.0511 39.7557 73.1158 39.8485 73.1555C39.9413 73.192 40.0524 73.2102 40.1816 73.2102C40.2744 73.2102 40.3722 73.2019 40.475 73.1854C40.581 73.1655 40.6606 73.1489 40.7136 73.1357L41.0815 74.8906C40.9655 74.9238 40.8014 74.9652 40.5893 75.0149C40.3805 75.0646 40.1303 75.0961 39.8386 75.1094C39.2685 75.1359 38.7797 75.0696 38.372 74.9105C37.9676 74.7481 37.6577 74.4962 37.4423 74.1548C37.2302 73.8134 37.1274 73.3842 37.1341 72.8672V65.5341ZM45.6703 75.1442C44.8715 75.1442 44.1821 74.9867 43.6021 74.6719C43.0254 74.3537 42.5813 73.9013 42.2697 73.3146C41.9615 72.7247 41.8074 72.0237 41.8074 71.2116C41.8074 70.4228 41.9631 69.7334 42.2747 69.1435C42.5862 68.5502 43.0254 68.0895 43.5922 67.7614C44.1589 67.4299 44.8268 67.2642 45.5957 67.2642C46.1393 67.2642 46.6364 67.3487 47.0872 67.5178C47.5379 67.6868 47.9274 67.937 48.2555 68.2685C48.5836 68.5999 48.8388 69.0092 49.0211 69.4964C49.2034 69.9804 49.2946 70.5355 49.2946 71.1619V71.7685H42.6575V70.3565H47.0325C47.0292 70.098 46.9679 69.8677 46.8485 69.6655C46.7292 69.4633 46.5652 69.3059 46.3564 69.1932C46.1509 69.0772 45.9139 69.0192 45.6454 69.0192C45.3736 69.0192 45.13 69.0805 44.9146 69.2031C44.6992 69.3224 44.5285 69.4865 44.4025 69.6953C44.2766 69.9008 44.2103 70.1345 44.2037 70.3963V71.8331C44.2037 72.1446 44.265 72.4181 44.3876 72.6534C44.5102 72.8854 44.6842 73.0661 44.9096 73.1953C45.135 73.3246 45.4035 73.3892 45.715 73.3892C45.9305 73.3892 46.126 73.3594 46.3017 73.2997C46.4773 73.2401 46.6281 73.1522 46.7541 73.0362C46.88 72.9202 46.9745 72.7777 47.0375 72.6087L49.2697 72.6733C49.1769 73.1738 48.9731 73.6096 48.6582 73.9808C48.3467 74.3487 47.9373 74.6354 47.4302 74.8409C46.9231 75.0431 46.3365 75.1442 45.6703 75.1442ZM52.9673 70.6449V75H50.5362V67.3636H52.848V68.7656H52.9325C53.1016 68.2983 53.3899 67.9321 53.7976 67.6669C54.2053 67.3984 54.6908 67.2642 55.2543 67.2642C55.7912 67.2642 56.2569 67.3852 56.6513 67.6271C57.049 67.8658 57.3572 68.2005 57.576 68.6314C57.7981 69.0589 57.9074 69.5594 57.9041 70.1328V75H55.473V70.6101C55.4763 70.1858 55.3686 69.8544 55.1499 69.6158C54.9344 69.3771 54.6345 69.2578 54.25 69.2578C53.9948 69.2578 53.7694 69.3142 53.5739 69.4268C53.3816 69.5362 53.2325 69.6937 53.1264 69.8991C53.0237 70.1046 52.9706 70.3532 52.9673 70.6449ZM66.7573 67.3636V69.1534H61.8453V67.3636H66.7573ZM62.8695 75V66.9759C62.8695 66.3859 62.9805 65.897 63.2026 65.5092C63.4247 65.1181 63.7329 64.8265 64.1273 64.6342C64.5217 64.4387 64.9775 64.3409 65.4945 64.3409C65.8326 64.3409 66.1507 64.3674 66.449 64.4205C66.7507 64.4702 66.9744 64.5149 67.1202 64.5547L66.7324 66.3345C66.6429 66.3047 66.5336 66.2798 66.4043 66.2599C66.2783 66.2401 66.159 66.2301 66.0463 66.2301C65.7613 66.2301 65.5658 66.2931 65.4597 66.419C65.3536 66.545 65.3006 66.7173 65.3006 66.9361V75H62.8695ZM67.9268 75V67.3636H70.2884V68.7557H70.3679C70.5071 68.2519 70.7341 67.8774 71.049 67.6321C71.3639 67.3835 71.7301 67.2592 72.1477 67.2592C72.2604 67.2592 72.3764 67.2675 72.4957 67.2841C72.6151 67.2973 72.7261 67.3189 72.8288 67.3487V69.4616C72.7128 69.4219 72.5604 69.3904 72.3714 69.3672C72.1858 69.344 72.0201 69.3324 71.8743 69.3324C71.5859 69.3324 71.3258 69.397 71.0938 69.5263C70.8651 69.6522 70.6844 69.8295 70.5518 70.0582C70.4226 70.2836 70.358 70.5488 70.358 70.8537V75H67.9268ZM76.9925 75.1442C76.1938 75.1442 75.5044 74.9867 74.9244 74.6719C74.3477 74.3537 73.9035 73.9013 73.592 73.3146C73.2837 72.7247 73.1296 72.0237 73.1296 71.2116C73.1296 70.4228 73.2854 69.7334 73.5969 69.1435C73.9085 68.5502 74.3477 68.0895 74.9144 67.7614C75.4812 67.4299 76.149 67.2642 76.918 67.2642C77.4615 67.2642 77.9587 67.3487 78.4094 67.5178C78.8602 67.6868 79.2496 67.937 79.5778 68.2685C79.9059 68.5999 80.1611 69.0092 80.3434 69.4964C80.5257 69.9804 80.6168 70.5355 80.6168 71.1619V71.7685H73.9798V70.3565H78.3548C78.3514 70.098 78.2901 69.8677 78.1708 69.6655C78.0515 69.4633 77.8874 69.3059 77.6786 69.1932C77.4731 69.0772 77.2362 69.0192 76.9677 69.0192C76.6959 69.0192 76.4523 69.0805 76.2369 69.2031C76.0214 69.3224 75.8507 69.4865 75.7248 69.6953C75.5988 69.9008 75.5326 70.1345 75.5259 70.3963V71.8331C75.5259 72.1446 75.5872 72.4181 75.7099 72.6534C75.8325 72.8854 76.0065 73.0661 76.2319 73.1953C76.4573 73.3246 76.7257 73.3892 77.0373 73.3892C77.2527 73.3892 77.4483 73.3594 77.6239 73.2997C77.7996 73.2401 77.9504 73.1522 78.0763 73.0362C78.2023 72.9202 78.2968 72.7777 78.3597 72.6087L80.592 72.6733C80.4992 73.1738 80.2953 73.6096 79.9805 73.9808C79.6689 74.3487 79.2596 74.6354 78.7525 74.8409C78.2454 75.0431 77.6587 75.1442 76.9925 75.1442ZM85.4281 75.1442C84.6293 75.1442 83.9399 74.9867 83.3599 74.6719C82.7832 74.3537 82.3391 73.9013 82.0275 73.3146C81.7193 72.7247 81.5652 72.0237 81.5652 71.2116C81.5652 70.4228 81.7209 69.7334 82.0325 69.1435C82.344 68.5502 82.7832 68.0895 83.35 67.7614C83.9167 67.4299 84.5846 67.2642 85.3535 67.2642C85.8971 67.2642 86.3942 67.3487 86.845 67.5178C87.2958 67.6868 87.6852 67.937 88.0133 68.2685C88.3414 68.5999 88.5967 69.0092 88.7789 69.4964C88.9612 69.9804 89.0524 70.5355 89.0524 71.1619V71.7685H82.4153V70.3565H86.7903C86.787 70.098 86.7257 69.8677 86.6064 69.6655C86.487 69.4633 86.323 69.3059 86.1142 69.1932C85.9087 69.0772 85.6717 69.0192 85.4032 69.0192C85.1315 69.0192 84.8878 69.0805 84.6724 69.2031C84.457 69.3224 84.2863 69.4865 84.1603 69.6953C84.0344 69.9008 83.9681 70.1345 83.9615 70.3963V71.8331C83.9615 72.1446 84.0228 72.4181 84.1454 72.6534C84.2681 72.8854 84.4421 73.0661 84.6674 73.1953C84.8928 73.3246 85.1613 73.3892 85.4728 73.3892C85.6883 73.3892 85.8838 73.3594 86.0595 73.2997C86.2351 73.2401 86.3859 73.1522 86.5119 73.0362C86.6378 72.9202 86.7323 72.7777 86.7953 72.6087L89.0275 72.6733C88.9347 73.1738 88.7309 73.6096 88.416 73.9808C88.1045 74.3487 87.6951 74.6354 87.188 74.8409C86.6809 75.0431 86.0943 75.1442 85.4281 75.1442Z" fill="#673AB7"/>
</svg>
