<svg width="22" height="19" viewBox="0 0 22 19" fill="none" xmlns="http://www.w3.org/2000/svg">
<path d="M9.90439 17.2236C9.93989 17.2503 9.95437 17.2621 9.95658 17.2637L10.0038 17.3109L10.0764 17.3472C10.0861 17.3521 10.0963 17.3572 10.1069 17.3625C10.2829 17.4512 10.5784 17.6 10.9 17.6C11.2216 17.6 11.5171 17.4512 11.6931 17.3625C11.7037 17.3572 11.7139 17.3521 11.7236 17.3472L11.7962 17.3109L11.8419 17.2652C11.8454 17.2626 11.8599 17.2511 11.892 17.2274C11.938 17.1935 12.0026 17.1471 12.0855 17.0886C12.2426 16.9775 12.4561 16.8289 12.7136 16.6497L12.7544 16.6213C13.3044 16.2385 14.0383 15.7273 14.8165 15.1687C16.3532 14.0658 18.1171 12.7403 18.9588 11.8483C20.8895 9.91409 21.1 7.75751 21.1 6.4C21.1 3.12386 18.4761 0.5 15.2 0.5C13.6266 0.5 12.0836 1.27611 10.9999 2.49896C9.9086 1.27011 8.34213 0.5 6.6 0.5C3.42988 0.5 0.700001 3.11787 0.700001 6.4C0.700001 7.75875 0.910925 9.91803 2.84645 11.8536C3.68005 12.6872 5.44055 14.0114 6.9813 15.1297C7.72373 15.6685 8.42596 16.1672 8.9664 16.551L9.04173 16.6045C9.31722 16.8002 9.54517 16.9622 9.71045 17.0816C9.79328 17.1414 9.85812 17.1888 9.90439 17.2236Z" fill="black" stroke="black"/>
</svg>
