<svg width="36" height="36" viewBox="0 0 36 36" fill="none" xmlns="http://www.w3.org/2000/svg">
<g clip-path="url(#clip0_16_61)">
<path d="M0 18C0 8.05888 8.05888 0 18 0C27.9411 0 36 8.05888 36 18C36 27.9411 27.9411 36 18 36C8.05888 36 0 27.9411 0 18Z" fill="white" fill-opacity="0.8"/>
<path d="M18 26.1649L16.695 24.9949C15.18 23.6299 13.9275 22.4524 12.9375 21.4624C11.9475 20.4724 11.16 19.5837 10.575 18.7962C9.99 18.0087 9.58125 17.2849 9.34875 16.6249C9.11625 15.9649 9 15.2899 9 14.5999C9 13.1899 9.4725 12.0124 10.4175 11.0674C11.3625 10.1224 12.54 9.6499 13.95 9.6499C14.73 9.6499 15.4725 9.8149 16.1775 10.1449C16.8825 10.4749 17.49 10.9399 18 11.5399C18.51 10.9399 19.1175 10.4749 19.8225 10.1449C20.5275 9.8149 21.27 9.6499 22.05 9.6499C23.46 9.6499 24.6375 10.1224 25.5825 11.0674C26.5275 12.0124 27 13.1899 27 14.5999C27 15.2899 26.8838 15.9649 26.6513 16.6249C26.4188 17.2849 26.01 18.0087 25.425 18.7962C24.84 19.5837 24.0525 20.4724 23.0625 21.4624C22.0725 22.4524 20.82 23.6299 19.305 24.9949L18 26.1649Z" fill="black"/>
</g>
<defs>
<clipPath id="clip0_16_61">
<rect width="36" height="36" fill="white"/>
</clipPath>
</defs>
</svg>
