<svg width="20" height="17" viewBox="0 0 20 17" fill="none" xmlns="http://www.w3.org/2000/svg">
<path d="M17.0464 10.1464L17.0411 10.1518L17.0359 10.1573C16.2756 10.9652 14.5936 12.2365 13.0335 13.3563C12.2617 13.9102 11.5331 14.4177 10.9831 14.8006L10.9404 14.8303C10.6848 15.0082 10.4685 15.1587 10.3083 15.272C10.2239 15.3316 10.1526 15.3826 10.0983 15.4227L10.0976 15.4232C10.078 15.4377 10.0517 15.4571 10.0248 15.4784C9.83361 15.5723 9.75435 15.6 9.7 15.6C9.64575 15.6 9.56668 15.5724 9.37626 15.4789C9.35039 15.4582 9.32498 15.4391 9.30538 15.4243C9.25125 15.3836 9.18016 15.3317 9.0958 15.2708C8.92671 15.1487 8.69528 14.9842 8.42077 14.7892L8.34597 14.7361C7.80521 14.3521 7.10677 13.856 6.3687 13.3203C4.80945 12.1886 3.11995 10.9128 2.35355 10.1464C0.689076 8.48197 0.5 6.64125 0.5 5.4C0.5 2.68213 2.77012 0.5 5.4 0.5C7.02767 0.5 8.4805 1.31293 9.39313 2.59062L9.8 3.16023L10.2069 2.59062C11.126 1.3039 12.5825 0.5 14 0.5C16.7239 0.5 18.9 2.67614 18.9 5.4C18.9 6.64125 18.7109 8.48197 17.0464 10.1464Z" fill="#FA1D17" stroke="#FA1D17"/>
</svg>
