<svg width="37" height="36" viewBox="0 0 37 36" fill="none" xmlns="http://www.w3.org/2000/svg">
<path d="M17.5083 24.4417L14.1556 21.0889L15.525 19.7194L17.5083 21.7028L21.475 17.7361L22.8444 19.1056L17.5083 24.4417ZM11.8889 27.8889C11.3694 27.8889 10.9248 27.7039 10.5549 27.334C10.185 26.9641 10 26.5194 10 26V12.7778C10 12.2583 10.185 11.8137 10.5549 11.4438C10.9248 11.0738 11.3694 10.8889 11.8889 10.8889H12.8333V9H14.7222V10.8889H22.2778V9H24.1667V10.8889H25.1111C25.6306 10.8889 26.0752 11.0738 26.4451 11.4438C26.815 11.8137 27 12.2583 27 12.7778V26C27 26.5194 26.815 26.9641 26.4451 27.334C26.0752 27.7039 25.6306 27.8889 25.1111 27.8889H11.8889ZM11.8889 26H25.1111V16.5556H11.8889V26Z" fill="white"/>
</svg>
