<svg width="36" height="36" viewBox="0 0 36 36" fill="none" xmlns="http://www.w3.org/2000/svg">
<g clip-path="url(#clip0_108_6)">
<path d="M18 26.2574L16.695 25.0874C15.18 23.7224 13.9275 22.5449 12.9375 21.5549C11.9475 20.5649 11.16 19.6762 10.575 18.8887C9.99 18.1012 9.58125 17.3774 9.34875 16.7174C9.11625 16.0574 9 15.3824 9 14.6924C9 13.2824 9.4725 12.1049 10.4175 11.1599C11.3625 10.2149 12.54 9.74243 13.95 9.74243C14.73 9.74243 15.4725 9.90743 16.1775 10.2374C16.8825 10.5674 17.49 11.0324 18 11.6324C18.51 11.0324 19.1175 10.5674 19.8225 10.2374C20.5275 9.90743 21.27 9.74243 22.05 9.74243C23.46 9.74243 24.6375 10.2149 25.5825 11.1599C26.5275 12.1049 27 13.2824 27 14.6924C27 15.3824 26.8838 16.0574 26.6513 16.7174C26.4188 17.3774 26.01 18.1012 25.425 18.8887C24.84 19.6762 24.0525 20.5649 23.0625 21.5549C22.0725 22.5449 20.82 23.7224 19.305 25.0874L18 26.2574ZM18 23.8274C19.44 22.5374 20.625 21.4312 21.555 20.5087C22.485 19.5862 23.22 18.7837 23.76 18.1012C24.3 17.4187 24.675 16.8112 24.885 16.2787C25.095 15.7462 25.2 15.2174 25.2 14.6924C25.2 13.7924 24.9 13.0424 24.3 12.4424C23.7 11.8424 22.95 11.5424 22.05 11.5424C21.345 11.5424 20.6925 11.7412 20.0925 12.1387C19.4925 12.5362 19.08 13.0424 18.855 13.6574H17.145C16.92 13.0424 16.5075 12.5362 15.9075 12.1387C15.3075 11.7412 14.655 11.5424 13.95 11.5424C13.05 11.5424 12.3 11.8424 11.7 12.4424C11.1 13.0424 10.8 13.7924 10.8 14.6924C10.8 15.2174 10.905 15.7462 11.115 16.2787C11.325 16.8112 11.7 17.4187 12.24 18.1012C12.78 18.7837 13.515 19.5862 14.445 20.5087C15.375 21.4312 16.56 22.5374 18 23.8274Z" fill="black"/>
</g>
<defs>
<clipPath id="clip0_108_6">
<rect width="36" height="36" fill="white"/>
</clipPath>
</defs>
</svg>
