<svg width="26" height="26" viewBox="0 0 26 26" fill="none" xmlns="http://www.w3.org/2000/svg">
<g clip-path="url(#clip0_100_3)">
<path d="M5.49436 7.84736e-08H20.5047C21.2263 -0.000121876 21.9409 0.141904 22.6076 0.417967C23.2743 0.694029 23.8801 1.09872 24.3904 1.60893C24.9007 2.11914 25.3055 2.72488 25.5817 3.39154C25.8579 4.05821 26 4.77275 26 5.49436V20.5047C26.0001 21.2263 25.8581 21.9409 25.582 22.6076C25.306 23.2743 24.9013 23.8801 24.3911 24.3904C23.8809 24.9007 23.2751 25.3055 22.6085 25.5817C21.9418 25.8579 21.2272 26 20.5056 26H5.49436C4.77283 26 4.05836 25.8579 3.39176 25.5818C2.72515 25.3056 2.11946 24.9009 1.60926 24.3907C1.09906 23.8805 0.69435 23.2748 0.418233 22.6082C0.142116 21.9416 0 21.2272 0 20.5056L0 5.49436C0 4.03716 0.578868 2.63965 1.60926 1.60926C2.63965 0.578868 4.03716 7.84736e-08 5.49436 7.84736e-08Z" fill="url(#paint0_linear_100_3)"/>
<path d="M17.3503 8.24226C17.1565 8.12977 16.9368 8.06702 16.7115 8.05987C16.7151 7.798 16.6491 7.53972 16.5199 7.31029C16.3532 7.02125 16.097 6.79138 15.7882 6.65376C15.4795 6.51614 15.134 6.47788 14.8015 6.54447C14.6178 6.58684 14.4443 6.66363 14.2905 6.77059C14.1472 6.51867 13.9328 6.31248 13.6727 6.17672C13.4127 6.04095 13.1182 5.98136 12.8244 6.00509C12.5306 6.02882 12.2501 6.13486 12.0163 6.31051C11.7826 6.48616 11.6056 6.72398 11.5066 6.99546C11.277 6.98321 11.0472 7.01725 10.8316 7.09548C10.616 7.17371 10.4192 7.29445 10.2533 7.45021C10.0902 7.60892 9.96577 7.80149 9.88917 8.01364C9.66051 7.91779 9.40992 7.88301 9.16301 7.91286C8.9161 7.94271 8.68172 8.03612 8.48381 8.18355C7.95489 8.59956 7.99322 9.27169 8.00599 9.40161C8.05176 9.8026 8.258 10.1696 8.57963 10.4223C8.58521 10.4273 8.59119 10.4319 8.59752 10.436L8.82238 12.5249L9.42285 18.1055C9.44946 18.352 9.56878 18.58 9.75765 18.7453C9.94652 18.9106 10.1915 19.0014 10.4449 19H15.5349C15.7883 19.0014 16.0333 18.9106 16.2221 18.7453C16.411 18.58 16.5303 18.352 16.557 18.1055L16.7563 16.2565L16.2452 16.2303L16.0434 18.058C16.0301 18.1813 15.9704 18.2953 15.876 18.3779C15.7815 18.4606 15.6591 18.5059 15.5323 18.5053H14.7147L14.9025 12.6336V12.6286L14.9638 10.7284C15.1882 10.6678 15.4053 10.5841 15.6115 10.4785C15.867 10.3536 16.1226 10.2399 16.3398 10.2399C16.5244 10.2504 16.7049 10.2981 16.87 10.3798L16.6438 12.4774L16.3998 14.7424L16.9108 14.7699L17.1523 12.5299L17.3836 10.3798C17.5643 10.2722 17.7151 10.1226 17.8225 9.94436C17.9299 9.76609 17.9907 9.56463 17.9994 9.35789C18.0224 8.65703 17.4193 8.28224 17.3503 8.24226ZM10.4424 18.5003C10.3156 18.5009 10.1932 18.4556 10.0987 18.3729C10.0043 18.2903 9.94464 18.1763 9.93133 18.053L9.33086 12.4724L9.10728 10.3798C9.27106 10.2963 9.45066 10.2465 9.63493 10.2336C9.85595 10.2336 10.1025 10.3498 10.3632 10.4723C10.5694 10.5778 10.7865 10.6616 11.0109 10.7221L11.0722 12.4199V12.4537L11.2345 17.5433V17.5758L11.2639 18.5053L10.4424 18.5003ZM14.394 12.6211V12.6286L14.2062 18.5003H11.7711L11.7404 17.5371V17.5296L11.5833 12.4212V12.4137L11.5296 10.7471C11.7869 10.6917 12.0351 10.6012 12.2668 10.4785C12.5223 10.3536 12.7778 10.2399 12.995 10.2399C13.2122 10.2399 13.4626 10.3561 13.7232 10.4785C13.9549 10.6012 14.2031 10.6917 14.4604 10.7471L14.394 12.6211ZM17.1255 9.95131C16.8832 9.82616 16.616 9.75412 16.3423 9.74017C16.005 9.74017 15.6933 9.88634 15.3931 10.0275C15.1375 10.1524 14.882 10.2661 14.6661 10.2661C14.4502 10.2661 14.1985 10.1499 13.9379 10.0275C13.6376 9.88634 13.3259 9.74017 12.9886 9.74017C12.6513 9.74017 12.3396 9.88634 12.0394 10.0275C11.7838 10.1524 11.5283 10.2661 11.3111 10.2661C11.0939 10.2661 10.8448 10.1499 10.5842 10.0275C10.2827 9.88634 9.97222 9.74017 9.63493 9.74017C9.35035 9.75512 9.07276 9.83194 8.82238 9.96505C8.64997 9.80244 8.54145 9.58577 8.51575 9.35289C8.50681 9.26794 8.48126 8.82819 8.80449 8.57208C8.94523 8.47268 9.11198 8.41449 9.28527 8.40432C9.45857 8.39414 9.63124 8.4324 9.78313 8.51461C9.77283 8.64832 9.77668 8.78271 9.79463 8.91564C9.80331 8.97567 9.83401 9.03057 9.88103 9.07011C9.92804 9.10964 9.98815 9.13111 10.0501 9.13052H10.0885C10.1226 9.12598 10.1554 9.11476 10.1849 9.09752C10.2145 9.08029 10.2402 9.05739 10.2605 9.0302C10.2808 9.00302 10.2952 8.97211 10.303 8.93933C10.3107 8.90654 10.3117 8.87257 10.3057 8.83943C10.2954 8.77447 10.2175 8.19229 10.6161 7.80501C11.0147 7.41773 11.6816 7.38524 12.2157 7.71381C12.2729 7.74926 12.3423 7.76102 12.4084 7.74649C12.4745 7.73197 12.532 7.69235 12.5683 7.63635C12.6045 7.58036 12.6166 7.51257 12.6017 7.44791C12.5869 7.38325 12.5463 7.327 12.4891 7.29155C12.3458 7.20283 12.1912 7.13309 12.0291 7.08416C12.1027 6.93814 12.2105 6.81113 12.3437 6.71346C12.4769 6.61578 12.6317 6.55018 12.7957 6.52198C13.0468 6.49504 13.2997 6.55333 13.5121 6.68707C13.7245 6.82082 13.8834 7.02188 13.9622 7.25657C13.9771 7.29709 14.0024 7.33316 14.0358 7.36127C14.0692 7.38938 14.1094 7.40857 14.1526 7.417C14.1958 7.42542 14.2405 7.42278 14.2823 7.40934C14.3242 7.39589 14.3618 7.3721 14.3914 7.34027C14.5299 7.18746 14.7126 7.07941 14.9152 7.03044C15.1403 6.98765 15.3733 7.01475 15.5818 7.10795C15.7903 7.20114 15.9637 7.35576 16.0779 7.55015C16.1984 7.77407 16.2354 8.03203 16.1826 8.27974C16.1745 8.32001 16.1766 8.36161 16.1888 8.40088C16.201 8.44015 16.2229 8.47587 16.2526 8.50489C16.2823 8.53392 16.3188 8.55534 16.359 8.56728C16.3991 8.57921 16.4417 8.58129 16.4829 8.57333C16.6901 8.53349 16.9051 8.56809 17.0884 8.67077C17.105 8.68077 17.5037 8.92063 17.4896 9.34665C17.484 9.46883 17.4478 9.58782 17.3844 9.69321C17.3209 9.79861 17.232 9.88722 17.1255 9.95131Z" fill="black" stroke="black" stroke-width="0.3"/>
</g>
<defs>
<linearGradient id="paint0_linear_100_3" x1="2.89424" y1="0.522944" x2="23.2433" y2="25.6615" gradientUnits="userSpaceOnUse">
<stop stop-color="#FEDB68"/>
<stop offset="1" stop-color="#FEDB68"/>
</linearGradient>
<clipPath id="clip0_100_3">
<rect width="26" height="26" fill="white"/>
</clipPath>
</defs>
</svg>
