<svg width="100" height="100" viewBox="0 0 100 100" fill="none" xmlns="http://www.w3.org/2000/svg">
<circle cx="50" cy="50" r="50" fill="#FEDB68" fill-opacity="0.8"/>
<path d="M39.4237 48.9734C35.2856 45.754 33.8221 40.7705 32.2737 35.4948C31.6965 33.5294 31.1014 31.5034 30.3545 29.5894C34.4496 29.7214 38.0849 30.3688 41.1701 31.5159C41.7128 31.7171 42.3162 31.4415 42.5174 30.8989C42.7185 30.3562 42.443 29.7538 41.9003 29.5517C38.3939 28.2474 34.2548 27.5486 29.5813 27.4753C29.0502 27.4753 28.5567 27.7403 28.2634 28.1856C27.9711 28.6277 27.9187 29.1808 28.123 29.6616C28.9685 31.6783 29.6264 33.9181 30.2623 36.0856C31.8358 41.4483 33.4649 46.9923 38.1362 50.6265C38.3279 50.7752 38.5542 50.8475 38.7795 50.8475C39.0916 50.8475 39.4007 50.7082 39.6071 50.4432C39.9622 49.9864 39.8805 49.3285 39.4237 48.9734Z" fill="#673AB7"/>
<path d="M36.6206 34.3309C36.2519 34.7772 36.3158 35.4382 36.7621 35.8059C37.3162 36.2627 37.8903 36.7844 38.5179 37.3994C38.7222 37.5995 38.9872 37.7 39.2523 37.7C39.5236 37.7 39.7949 37.5953 39.9992 37.3868C40.4046 36.974 40.3984 36.3109 39.9856 35.9055C39.3141 35.2465 38.696 34.685 38.0946 34.1895C37.6483 33.8218 36.9883 33.8846 36.6196 34.3309H36.6206ZM78.0206 17.699C77.7252 17.2559 77.2276 16.9908 76.6964 17.0002C62.675 17.1532 52.2114 21.1938 46.4348 28.6864C41.5298 35.0496 40.2643 43.749 42.7628 53.8542C41.5392 55.8646 40.4476 57.766 39.5498 59.4621C39.2795 59.9733 39.4744 60.6071 39.9856 60.8785C40.1417 60.9612 40.3093 61 40.4748 61C40.8509 61 41.2145 60.7978 41.402 60.4427C42.3008 58.7445 43.3967 56.8378 44.6266 54.8212C67.3642 54.5153 71.2278 41.4128 74.9521 28.7262C75.8971 25.5079 76.8735 22.1796 78.1568 19.1908C78.3674 18.7005 78.3161 18.1432 78.0206 17.699ZM72.9428 28.1353C69.3515 40.3652 65.9436 51.9319 45.9497 52.6924C50.2795 45.8568 55.9535 38.0929 61.3425 32.3844C61.7395 31.9644 61.7206 31.3012 61.2995 30.9031C60.8794 30.5071 60.2173 30.5249 59.8182 30.9461C54.4103 36.6734 48.7217 44.4341 44.3437 51.3117C42.6424 42.7265 43.9205 35.3785 48.0942 29.9634C53.3564 23.1361 62.9673 19.3898 75.9201 19.1059C74.7416 22.0047 73.827 25.1161 72.9417 28.1343L72.9428 28.1353Z" fill="#673AB7"/>
<path d="M11.7706 77.8636V67.3636H14.1768V68.6712H14.2514C14.3509 68.4392 14.4917 68.2154 14.674 68C14.8596 67.7846 15.0949 67.6089 15.38 67.473C15.6683 67.3338 16.013 67.2642 16.4141 67.2642C16.9444 67.2642 17.4399 67.4034 17.9006 67.6818C18.3646 67.9602 18.7391 68.3894 19.0241 68.9695C19.3092 69.5495 19.4517 70.2886 19.4517 71.1868C19.4517 72.0518 19.3142 72.776 19.0391 73.3594C18.7673 73.9427 18.3994 74.3802 17.9354 74.6719C17.4747 74.9635 16.9626 75.1094 16.3991 75.1094C16.0147 75.1094 15.6816 75.0464 15.3999 74.9205C15.1181 74.7945 14.8812 74.6288 14.6889 74.4233C14.5 74.2178 14.3542 73.9974 14.2514 73.7621H14.2017V77.8636H11.7706ZM14.152 71.1818C14.152 71.5928 14.2067 71.9508 14.3161 72.2557C14.4287 72.5606 14.5895 72.7976 14.7983 72.9666C15.0104 73.1323 15.264 73.2152 15.5589 73.2152C15.8572 73.2152 16.1108 73.1323 16.3196 72.9666C16.5284 72.7976 16.6858 72.5606 16.7919 72.2557C16.9013 71.9508 16.956 71.5928 16.956 71.1818C16.956 70.7708 16.9013 70.4145 16.7919 70.1129C16.6858 69.8113 16.5284 69.5777 16.3196 69.4119C16.1141 69.2462 15.8606 69.1634 15.5589 69.1634C15.2607 69.1634 15.0071 69.2446 14.7983 69.407C14.5895 69.5694 14.4287 69.8014 14.3161 70.103C14.2067 70.4046 14.152 70.7642 14.152 71.1818ZM23.1568 64.8182V75H20.7257V64.8182H23.1568ZM26.8569 75.1293C26.3697 75.1293 25.9371 75.0481 25.5593 74.8857C25.1848 74.7199 24.8881 74.4714 24.6694 74.1399C24.454 73.8052 24.3462 73.3859 24.3462 72.8821C24.3462 72.4579 24.4208 72.0999 24.57 71.8082C24.7191 71.5166 24.9246 71.2796 25.1864 71.0973C25.4483 70.915 25.7499 70.7775 26.0913 70.6847C26.4326 70.5885 26.7972 70.5239 27.185 70.4908C27.6192 70.451 27.9689 70.4096 28.234 70.3665C28.4992 70.3201 28.6914 70.2554 28.8107 70.1726C28.9334 70.0864 28.9947 69.9654 28.9947 69.8097V69.7848C28.9947 69.5296 28.9068 69.3324 28.7312 69.1932C28.5555 69.054 28.3185 68.9844 28.0202 68.9844C27.6987 68.9844 27.4402 69.054 27.2447 69.1932C27.0491 69.3324 26.9248 69.5246 26.8718 69.7699L24.6296 69.6903C24.6959 69.2263 24.8666 68.812 25.1417 68.4474C25.4201 68.0795 25.8013 67.7912 26.2852 67.5824C26.7724 67.3703 27.3574 67.2642 28.0401 67.2642C28.5273 67.2642 28.9764 67.3222 29.3874 67.4382C29.7984 67.5509 30.1564 67.7166 30.4613 67.9354C30.7662 68.1508 31.0015 68.416 31.1673 68.7308C31.3363 69.0457 31.4208 69.4053 31.4208 69.8097V75H29.1339V73.9361H29.0742C28.9383 74.1946 28.7643 74.4134 28.5522 74.5923C28.3434 74.7713 28.0965 74.9055 27.8114 74.995C27.5297 75.0845 27.2115 75.1293 26.8569 75.1293ZM27.6076 73.5384C27.8694 73.5384 28.1048 73.4853 28.3136 73.3793C28.5257 73.2732 28.6947 73.1274 28.8207 72.9418C28.9466 72.7528 29.0096 72.5341 29.0096 72.2855V71.5597C28.94 71.5961 28.8555 71.6293 28.756 71.6591C28.6599 71.6889 28.5539 71.7171 28.4379 71.7436C28.3219 71.7701 28.2025 71.7933 28.0799 71.8132C27.9573 71.8331 27.8396 71.8513 27.7269 71.8679C27.4982 71.9044 27.3027 71.9607 27.1403 72.0369C26.9812 72.1132 26.8585 72.2126 26.7724 72.3352C26.6895 72.4545 26.6481 72.5971 26.6481 72.7628C26.6481 73.0147 26.7376 73.2069 26.9165 73.3395C27.0988 73.4721 27.3292 73.5384 27.6076 73.5384ZM35.3384 70.6449V75H32.9073V67.3636H35.2191V68.7656H35.3036C35.4727 68.2983 35.761 67.9321 36.1687 67.6669C36.5763 67.3984 37.0619 67.2642 37.6254 67.2642C38.1623 67.2642 38.628 67.3852 39.0224 67.6271C39.4201 67.8658 39.7283 68.2005 39.9471 68.6314C40.1692 69.0589 40.2785 69.5594 40.2752 70.1328V75H37.8441V70.6101C37.8474 70.1858 37.7397 69.8544 37.521 69.6158C37.3055 69.3771 37.0056 69.2578 36.6211 69.2578C36.3659 69.2578 36.1405 69.3142 35.945 69.4268C35.7527 69.5362 35.6036 69.6937 35.4975 69.8991C35.3948 70.1046 35.3417 70.3532 35.3384 70.6449ZM46.0907 67.3636V69.1534H41.2733V67.3636H46.0907ZM42.2825 65.5341H44.7136V72.5987C44.7136 72.7479 44.7368 72.8688 44.7832 72.9616C44.8329 73.0511 44.9042 73.1158 44.997 73.1555C45.0898 73.192 45.2008 73.2102 45.3301 73.2102C45.4229 73.2102 45.5207 73.2019 45.6234 73.1854C45.7295 73.1655 45.809 73.1489 45.862 73.1357L46.2299 74.8906C46.1139 74.9238 45.9499 74.9652 45.7377 75.0149C45.5289 75.0646 45.2787 75.0961 44.987 75.1094C44.417 75.1359 43.9281 75.0696 43.5204 74.9105C43.1161 74.7481 42.8062 74.4962 42.5907 74.1548C42.3786 73.8134 42.2759 73.3842 42.2825 72.8672V65.5341ZM50.339 75V64.8182H52.7701V68.6712H52.8198C52.9192 68.4392 53.0601 68.2154 53.2424 68C53.428 67.7846 53.6633 67.6089 53.9483 67.473C54.2367 67.3338 54.5814 67.2642 54.9824 67.2642C55.5127 67.2642 56.0082 67.4034 56.4689 67.6818C56.9329 67.9602 57.3075 68.3894 57.5925 68.9695C57.8775 69.5495 58.0201 70.2886 58.0201 71.1868C58.0201 72.0518 57.8825 72.776 57.6074 73.3594C57.3356 73.9427 56.9677 74.3802 56.5037 74.6719C56.043 74.9635 55.531 75.1094 54.9675 75.1094C54.583 75.1094 54.2499 75.0464 53.9682 74.9205C53.6865 74.7945 53.4495 74.6288 53.2573 74.4233C53.0684 74.2178 52.9225 73.9974 52.8198 73.7621H52.7452V75H50.339ZM52.7203 71.1818C52.7203 71.5928 52.775 71.9508 52.8844 72.2557C52.9971 72.5606 53.1578 72.7976 53.3667 72.9666C53.5788 73.1323 53.8323 73.2152 54.1273 73.2152C54.4256 73.2152 54.6792 73.1323 54.888 72.9666C55.0968 72.7976 55.2542 72.5606 55.3603 72.2557C55.4696 71.9508 55.5243 71.5928 55.5243 71.1818C55.5243 70.7708 55.4696 70.4145 55.3603 70.1129C55.2542 69.8113 55.0968 69.5777 54.888 69.4119C54.6825 69.2462 54.4289 69.1634 54.1273 69.1634C53.829 69.1634 53.5755 69.2446 53.3667 69.407C53.1578 69.5694 52.9971 69.8014 52.8844 70.103C52.775 70.4046 52.7203 70.7642 52.7203 71.1818ZM61.4467 75.1293C60.9595 75.1293 60.527 75.0481 60.1491 74.8857C59.7746 74.7199 59.478 74.4714 59.2592 74.1399C59.0438 73.8052 58.9361 73.3859 58.9361 72.8821C58.9361 72.4579 59.0107 72.0999 59.1598 71.8082C59.3089 71.5166 59.5144 71.2796 59.7763 71.0973C60.0381 70.915 60.3397 70.7775 60.6811 70.6847C61.0225 70.5885 61.3871 70.5239 61.7749 70.4908C62.209 70.451 62.5587 70.4096 62.8239 70.3665C63.089 70.3201 63.2813 70.2554 63.4006 70.1726C63.5232 70.0864 63.5845 69.9654 63.5845 69.8097V69.7848C63.5845 69.5296 63.4967 69.3324 63.321 69.1932C63.1454 69.054 62.9084 68.9844 62.6101 68.9844C62.2886 68.9844 62.0301 69.054 61.8345 69.1932C61.639 69.3324 61.5147 69.5246 61.4616 69.7699L59.2195 69.6903C59.2857 69.2263 59.4564 68.812 59.7315 68.4474C60.0099 68.0795 60.3911 67.7912 60.875 67.5824C61.3622 67.3703 61.9472 67.2642 62.63 67.2642C63.1172 67.2642 63.5663 67.3222 63.9773 67.4382C64.3883 67.5509 64.7462 67.7166 65.0511 67.9354C65.3561 68.1508 65.5914 68.416 65.7571 68.7308C65.9261 69.0457 66.0107 69.4053 66.0107 69.8097V75H63.7237V73.9361H63.6641C63.5282 74.1946 63.3542 74.4134 63.142 74.5923C62.9332 74.7713 62.6863 74.9055 62.4013 74.995C62.1196 75.0845 61.8014 75.1293 61.4467 75.1293ZM62.1974 73.5384C62.4593 73.5384 62.6946 73.4853 62.9034 73.3793C63.1155 73.2732 63.2846 73.1274 63.4105 72.9418C63.5365 72.7528 63.5994 72.5341 63.5994 72.2855V71.5597C63.5298 71.5961 63.4453 71.6293 63.3459 71.6591C63.2498 71.6889 63.1437 71.7171 63.0277 71.7436C62.9117 71.7701 62.7924 71.7933 62.6697 71.8132C62.5471 71.8331 62.4295 71.8513 62.3168 71.8679C62.0881 71.9044 61.8925 71.9607 61.7301 72.0369C61.571 72.1132 61.4484 72.2126 61.3622 72.3352C61.2794 72.4545 61.2379 72.5971 61.2379 72.7628C61.2379 73.0147 61.3274 73.2069 61.5064 73.3395C61.6887 73.4721 61.919 73.5384 62.1974 73.5384ZM74.1641 69.6953L71.9318 69.755C71.9086 69.5959 71.8456 69.455 71.7429 69.3324C71.6402 69.2064 71.5059 69.1087 71.3402 69.0391C71.1778 68.9661 70.9889 68.9297 70.7734 68.9297C70.4917 68.9297 70.2514 68.986 70.0526 69.0987C69.857 69.2114 69.7609 69.3639 69.7642 69.5561C69.7609 69.7053 69.8205 69.8345 69.9432 69.9439C70.0691 70.0533 70.2929 70.1411 70.6143 70.2074L72.0859 70.4858C72.8482 70.6316 73.415 70.8736 73.7862 71.2116C74.1607 71.5497 74.3497 71.9972 74.353 72.554C74.3497 73.0777 74.1939 73.5334 73.8857 73.9212C73.5807 74.3089 73.1631 74.6106 72.6328 74.826C72.1025 75.0381 71.496 75.1442 70.8132 75.1442C69.7228 75.1442 68.8627 74.9205 68.233 74.473C67.6065 74.0223 67.2486 73.419 67.1591 72.6634L69.5604 72.6037C69.6134 72.8821 69.7509 73.0942 69.973 73.2401C70.1951 73.3859 70.4785 73.4588 70.8232 73.4588C71.1347 73.4588 71.3883 73.4008 71.5838 73.2848C71.7794 73.1688 71.8788 73.0147 71.8821 72.8224C71.8788 72.6501 71.8026 72.5125 71.6534 72.4098C71.5043 72.3037 71.2706 72.2209 70.9524 72.1612L69.62 71.9077C68.8544 71.7685 68.2843 71.5116 67.9098 71.1371C67.5353 70.7592 67.3497 70.2786 67.353 69.6953C67.3497 69.1849 67.4856 68.7491 67.7607 68.3878C68.0357 68.0232 68.4268 67.7448 68.9339 67.5526C69.4411 67.3603 70.0393 67.2642 70.7287 67.2642C71.7628 67.2642 72.5781 67.4813 73.1747 67.9155C73.7713 68.3464 74.1011 68.9396 74.1641 69.6953ZM79.1195 75.1442C78.3207 75.1442 77.6313 74.9867 77.0513 74.6719C76.4746 74.3537 76.0305 73.9013 75.7189 73.3146C75.4107 72.7247 75.2566 72.0237 75.2566 71.2116C75.2566 70.4228 75.4123 69.7334 75.7239 69.1435C76.0355 68.5502 76.4746 68.0895 77.0414 67.7614C77.6081 67.4299 78.276 67.2642 79.0449 67.2642C79.5885 67.2642 80.0856 67.3487 80.5364 67.5178C80.9872 67.6868 81.3766 67.937 81.7047 68.2685C82.0328 68.5999 82.2881 69.0092 82.4703 69.4964C82.6526 69.9804 82.7438 70.5355 82.7438 71.1619V71.7685H76.1067V70.3565H80.4817C80.4784 70.098 80.4171 69.8677 80.2978 69.6655C80.1784 69.4633 80.0144 69.3059 79.8056 69.1932C79.6001 69.0772 79.3631 69.0192 79.0946 69.0192C78.8229 69.0192 78.5792 69.0805 78.3638 69.2031C78.1484 69.3224 77.9777 69.4865 77.8517 69.6953C77.7258 69.9008 77.6595 70.1345 77.6529 70.3963V71.8331C77.6529 72.1446 77.7142 72.4181 77.8368 72.6534C77.9595 72.8854 78.1335 73.0661 78.3588 73.1953C78.5842 73.3246 78.8527 73.3892 79.1642 73.3892C79.3797 73.3892 79.5752 73.3594 79.7509 73.2997C79.9266 73.2401 80.0774 73.1522 80.2033 73.0362C80.3292 72.9202 80.4237 72.7777 80.4867 72.6087L82.7189 72.6733C82.6261 73.1738 82.4223 73.6096 82.1074 73.9808C81.7959 74.3487 81.3865 74.6354 80.8794 74.8409C80.3723 75.0431 79.7857 75.1442 79.1195 75.1442ZM86.7745 75.1094C86.2111 75.1094 85.699 74.9635 85.2383 74.6719C84.7776 74.3802 84.4097 73.9427 84.1346 73.3594C83.8595 72.776 83.7219 72.0518 83.7219 71.1868C83.7219 70.2886 83.8645 69.5495 84.1495 68.9695C84.4345 68.3894 84.8074 67.9602 85.2681 67.6818C85.7321 67.4034 86.2309 67.2642 86.7646 67.2642C87.1656 67.2642 87.5086 67.3338 87.7937 67.473C88.0787 67.6089 88.314 67.7846 88.4996 68C88.6853 68.2154 88.8261 68.4392 88.9222 68.6712H88.9719V64.8182H91.4031V75H88.9968V73.7621H88.9222C88.8195 73.9974 88.6737 74.2178 88.4847 74.4233C88.2958 74.6288 88.0588 74.7945 87.7738 74.9205C87.4921 75.0464 87.159 75.1094 86.7745 75.1094ZM87.6197 73.2152C87.9147 73.2152 88.1665 73.1323 88.3754 72.9666C88.5842 72.7976 88.7449 72.5606 88.8576 72.2557C88.9703 71.9508 89.0266 71.5928 89.0266 71.1818C89.0266 70.7642 88.9703 70.4046 88.8576 70.103C88.7482 69.8014 88.5875 69.5694 88.3754 69.407C88.1665 69.2446 87.9147 69.1634 87.6197 69.1634C87.3181 69.1634 87.0629 69.2462 86.854 69.4119C86.6452 69.5777 86.4862 69.8113 86.3768 70.1129C86.2707 70.4145 86.2177 70.7708 86.2177 71.1818C86.2177 71.5928 86.2724 71.9508 86.3817 72.2557C86.4911 72.5606 86.6486 72.7976 86.854 72.9666C87.0629 73.1323 87.3181 73.2152 87.6197 73.2152Z" fill="#673AB7"/>
</svg>
