<svg width="26" height="26" viewBox="0 0 26 26" fill="none" xmlns="http://www.w3.org/2000/svg">
<g clip-path="url(#clip0_113_2)">
<path d="M5.49436 7.84736e-08H20.5047C21.2263 -0.000121876 21.9409 0.141904 22.6076 0.417967C23.2743 0.694029 23.8801 1.09872 24.3904 1.60893C24.9007 2.11914 25.3055 2.72488 25.5817 3.39154C25.8579 4.05821 26 4.77275 26 5.49436V20.5047C26.0001 21.2263 25.8581 21.9409 25.582 22.6076C25.306 23.2743 24.9013 23.8801 24.3911 24.3904C23.8809 24.9007 23.2751 25.3055 22.6085 25.5817C21.9418 25.8579 21.2272 26 20.5056 26H5.49436C4.77283 26 4.05836 25.8579 3.39176 25.5818C2.72515 25.3056 2.11946 24.9009 1.60926 24.3907C1.09906 23.8805 0.69435 23.2748 0.418233 22.6082C0.142116 21.9416 0 21.2272 0 20.5056L0 5.49436C0 4.03716 0.578868 2.63965 1.60926 1.60926C2.63965 0.578868 4.03716 7.84736e-08 5.49436 7.84736e-08Z" fill="url(#paint0_linear_113_2)"/>
<path d="M12.5245 6.46352C12.6741 6.00287 13.3259 6.00287 13.4755 6.46353L14.6839 10.1824C14.7508 10.3884 14.9428 10.5279 15.1594 10.5279H19.0696C19.554 10.5279 19.7554 11.1477 19.3635 11.4324L16.2001 13.7307C16.0248 13.8581 15.9515 14.0838 16.0184 14.2898L17.2268 18.0086C17.3764 18.4693 16.8492 18.8523 16.4573 18.5676L13.2939 16.2693C13.1186 16.1419 12.8814 16.1419 12.7061 16.2693L9.54267 18.5676C9.15081 18.8523 8.62357 18.4693 8.77325 18.0086L9.98157 14.2898C10.0485 14.0838 9.97518 13.8581 9.79994 13.7307L6.6365 11.4324C6.24464 11.1477 6.44603 10.5279 6.93039 10.5279H10.8406C11.0572 10.5279 11.2492 10.3884 11.3161 10.1824L12.5245 6.46352Z" fill="black"/>
</g>
<defs>
<linearGradient id="paint0_linear_113_2" x1="2.89424" y1="0.522944" x2="23.2433" y2="25.6615" gradientUnits="userSpaceOnUse">
<stop stop-color="#FEDB68"/>
<stop offset="1" stop-color="#FEDB68"/>
</linearGradient>
<clipPath id="clip0_113_2">
<rect width="26" height="26" fill="white"/>
</clipPath>
</defs>
</svg>
