<svg width="26" height="26" viewBox="0 0 26 26" fill="none" xmlns="http://www.w3.org/2000/svg">
<g clip-path="url(#clip0_74_3)">
<circle cx="13" cy="13" r="13" fill="black"/>
<path d="M13 0C9.55219 0 6.24558 1.36964 3.80761 3.80761C1.36964 6.24558 0 9.55219 0 13C0 16.4478 1.36964 19.7544 3.80761 22.1924C6.24558 24.6304 9.55219 26 13 26C16.4478 26 19.7544 24.6304 22.1924 22.1924C24.6304 19.7544 26 16.4478 26 13C26 9.55219 24.6304 6.24558 22.1924 3.80761C19.7544 1.36964 16.4478 0 13 0ZM13.041 6.46C13.095 6.533 13.144 6.595 13.213 6.709C13.42 7.054 13.664 7.55 13.904 8.064C14.144 8.579 14.384 9.112 14.602 9.551C14.71 9.771 14.814 9.966 14.916 10.133C15.018 10.3 15.091 10.433 15.279 10.573C15.467 10.711 15.617 10.741 15.807 10.789C16.0218 10.841 16.2386 10.884 16.457 10.918C16.942 10.997 17.523 11.067 18.086 11.145C18.649 11.224 19.198 11.31 19.59 11.406C19.72 11.438 19.792 11.468 19.877 11.498C19.825 11.572 19.783 11.638 19.695 11.738C19.43 12.042 19.031 12.428 18.615 12.814C18.199 13.201 17.765 13.591 17.415 13.934C17.255 14.0861 17.1015 14.2449 16.955 14.41C16.827 14.558 16.722 14.67 16.648 14.89C16.574 15.112 16.591 15.266 16.604 15.46C16.616 15.656 16.646 15.875 16.684 16.117C16.759 16.601 16.869 17.172 16.969 17.73C17.069 18.289 17.154 18.837 17.184 19.238C17.194 19.371 17.188 19.448 17.186 19.539C17.099 19.513 17.021 19.492 16.898 19.441C16.528 19.284 16.037 19.023 15.539 18.748C15.042 18.473 14.536 18.183 14.102 17.955C13.9068 17.8509 13.7073 17.7552 13.504 17.668C13.324 17.593 13.185 17.528 12.951 17.525C12.717 17.525 12.576 17.588 12.395 17.66C12.1906 17.7439 11.9897 17.8364 11.793 17.937C11.354 18.158 10.843 18.44 10.342 18.707C9.84 18.974 9.346 19.225 8.972 19.377C8.849 19.427 8.771 19.446 8.684 19.471C8.682 19.381 8.678 19.303 8.689 19.17C8.725 18.77 8.821 18.223 8.929 17.666C9.039 17.109 9.159 16.539 9.242 16.056C9.284 15.816 9.316 15.596 9.332 15.402C9.348 15.208 9.367 15.056 9.297 14.834C9.227 14.612 9.123 14.498 8.998 14.348C8.85463 14.18 8.70416 14.0182 8.547 13.863C8.201 13.516 7.773 13.118 7.363 12.725C6.953 12.331 6.561 11.94 6.301 11.633C6.215 11.531 6.174 11.463 6.123 11.389C6.209 11.359 6.282 11.331 6.413 11.301C6.805 11.211 7.355 11.133 7.92 11.064C8.484 10.995 9.065 10.932 9.55 10.861C9.794 10.826 10.013 10.789 10.203 10.744C10.393 10.699 10.546 10.671 10.736 10.535C10.926 10.4 11.001 10.267 11.106 10.102C11.2222 9.9137 11.3303 9.72052 11.43 9.523C11.654 9.088 11.902 8.561 12.15 8.051C12.399 7.541 12.65 7.047 12.863 6.705C12.933 6.592 12.986 6.531 13.041 6.46Z" fill="#FEDB68"/>
</g>
<defs>
<clipPath id="clip0_74_3">
<rect width="26" height="26" fill="white"/>
</clipPath>
</defs>
</svg>
