<svg width="100" height="100" viewBox="0 0 100 100" fill="none" xmlns="http://www.w3.org/2000/svg">
<circle cx="50" cy="50" r="50" fill="#FEDB68" fill-opacity="0.8"/>
<path d="M74.4277 17.2786C74.0341 16.9874 73.5198 16.9201 73.0681 17.0975C69.9303 18.3259 66.1536 18.8368 62.1565 19.3777C56.3556 20.1623 49.7803 21.052 43.1782 24.3316C38.3617 26.7247 35.4755 30.1661 34.6007 34.5601C33.4784 40.1992 36.0733 46.0413 38.3927 49.1222C36.1995 52.5298 34.4048 55.9124 33.1082 59.0428C32.8086 59.7647 33.1525 60.5927 33.8742 60.8918C34.0522 60.965 34.2356 61 34.4153 61C34.9712 61 35.4985 60.6706 35.7243 60.1255C36.9162 57.2477 38.5433 54.1485 40.5259 51.0197C42.5557 52.2497 45.4543 53.1028 48.8564 53.1028C52.9419 53.1028 57.7326 51.8804 62.5371 48.6317C73.2744 41.3708 74.1668 29.5185 74.884 19.995L74.9955 18.5257C75.0343 18.0397 74.8186 17.5688 74.4277 17.2786ZM60.9499 46.2871C53.3129 51.452 45.7316 50.8383 42.0867 48.6652C45.268 44.0577 49.209 39.5002 53.7252 35.5762L61.7777 37.2089C61.8727 37.2283 61.9667 37.2375 62.0607 37.2375C62.7198 37.2375 63.3107 36.774 63.4462 36.1032C63.602 35.337 63.107 34.5902 62.34 34.4344L56.553 33.261C59.0308 31.3616 61.6471 29.6612 64.3911 28.2683C65.089 27.9144 65.3674 27.0625 65.0134 26.3654C64.6594 25.6683 63.804 25.3919 63.1098 25.7443C59.3507 27.6525 55.8161 30.0987 52.5506 32.8614C52.4469 32.9283 52.3552 33.0112 52.2718 33.1031C50.8662 34.3062 49.5103 35.5631 48.2145 36.8698L47.4077 32.1242C47.2768 31.3534 46.5421 30.841 45.7751 30.9659C45.0036 31.0973 44.4855 31.828 44.6165 32.5989L45.7817 39.4524C43.6974 41.7697 41.7925 44.1779 40.0867 46.6065C38.3173 43.8871 36.5335 39.3571 37.3784 35.1127C38.0735 31.6235 40.449 28.8493 44.4396 26.8667C50.6231 23.7949 56.9523 22.9384 62.5367 22.1828C65.8875 21.7294 69.0899 21.2962 72.0111 20.4421C71.312 29.6564 70.3285 39.9454 60.9499 46.2871Z" fill="#673AB7"/>
<path d="M23.1783 67.3636L20.5582 75H17.7741L15.1591 67.3636H17.7195L19.1264 72.6236H19.206L20.6179 67.3636H23.1783ZM27.4339 75.1442C26.6352 75.1442 25.9458 74.9867 25.3658 74.6719C24.7891 74.3537 24.3449 73.9013 24.0334 73.3146C23.7251 72.7247 23.571 72.0237 23.571 71.2116C23.571 70.4228 23.7268 69.7334 24.0384 69.1435C24.3499 68.5502 24.7891 68.0895 25.3558 67.7614C25.9226 67.4299 26.5904 67.2642 27.3594 67.2642C27.9029 67.2642 28.4001 67.3487 28.8509 67.5178C29.3016 67.6868 29.6911 67.937 30.0192 68.2685C30.3473 68.5999 30.6025 69.0092 30.7848 69.4964C30.9671 69.9804 31.0582 70.5355 31.0582 71.1619V71.7685H24.4212V70.3565H28.7962C28.7929 70.098 28.7315 69.8677 28.6122 69.6655C28.4929 69.4633 28.3288 69.3059 28.12 69.1932C27.9145 69.0772 27.6776 69.0192 27.4091 69.0192C27.1373 69.0192 26.8937 69.0805 26.6783 69.2031C26.4628 69.3224 26.2921 69.4865 26.1662 69.6953C26.0402 69.9008 25.974 70.1345 25.9673 70.3963V71.8331C25.9673 72.1446 26.0286 72.4181 26.1513 72.6534C26.2739 72.8854 26.4479 73.0661 26.6733 73.1953C26.8987 73.3246 27.1671 73.3892 27.4787 73.3892C27.6941 73.3892 27.8897 73.3594 28.0653 73.2997C28.241 73.2401 28.3918 73.1522 28.5178 73.0362C28.6437 72.9202 28.7382 72.7777 28.8011 72.6087L31.0334 72.6733C30.9406 73.1738 30.7367 73.6096 30.4219 73.9808C30.1103 74.3487 29.701 74.6354 29.1939 74.8409C28.6868 75.0431 28.1001 75.1442 27.4339 75.1442ZM35.8596 78.0227C35.1337 78.0227 34.5123 77.9216 33.9952 77.7195C33.4782 77.5173 33.0721 77.2405 32.7772 76.8892C32.4822 76.5379 32.3049 76.1402 32.2452 75.696L34.5471 75.5668C34.5901 75.7225 34.6697 75.8584 34.7857 75.9744C34.905 76.0904 35.0591 76.1799 35.248 76.2429C35.4403 76.3059 35.6657 76.3374 35.9242 76.3374C36.3319 76.3374 36.6683 76.2379 36.9334 76.0391C37.2019 75.8435 37.3361 75.5005 37.3361 75.0099V73.6676H37.2516C37.1555 73.9029 37.0096 74.1134 36.8141 74.299C36.6185 74.4846 36.3749 74.6304 36.0833 74.7365C35.7949 74.8426 35.4635 74.8956 35.089 74.8956C34.5321 74.8956 34.0217 74.7663 33.5577 74.5078C33.097 74.246 32.7275 73.8416 32.449 73.2947C32.1739 72.7446 32.0364 72.0369 32.0364 71.1719C32.0364 70.2803 32.1789 69.5462 32.464 68.9695C32.749 68.3894 33.1219 67.9602 33.5826 67.6818C34.0466 67.4034 34.5454 67.2642 35.079 67.2642C35.4801 67.2642 35.8231 67.3338 36.1081 67.473C36.3965 67.6089 36.6335 67.7846 36.8191 68C37.0047 68.2154 37.1455 68.4392 37.2417 68.6712H37.3113V67.3636H39.7324V75.0298C39.7324 75.6761 39.57 76.2214 39.2452 76.6655C38.9204 77.1096 38.4663 77.446 37.883 77.6747C37.2997 77.9067 36.6252 78.0227 35.8596 78.0227ZM35.9341 73.1257C36.2291 73.1257 36.481 73.0478 36.6898 72.892C36.8986 72.7363 37.0594 72.5125 37.1721 72.2209C37.2847 71.9292 37.3411 71.5795 37.3411 71.1719C37.3411 70.7576 37.2847 70.4013 37.1721 70.103C37.0627 69.8014 36.9019 69.5694 36.6898 69.407C36.481 69.2446 36.2291 69.1634 35.9341 69.1634C35.6325 69.1634 35.3773 69.2462 35.1685 69.4119C34.9597 69.5777 34.8006 69.8113 34.6912 70.1129C34.5852 70.4112 34.5321 70.7642 34.5321 71.1719C34.5321 71.5795 34.5868 71.9292 34.6962 72.2209C34.8056 72.5125 34.963 72.7363 35.1685 72.892C35.3773 73.0478 35.6325 73.1257 35.9341 73.1257ZM44.8519 75.1442C44.0531 75.1442 43.3638 74.9867 42.7837 74.6719C42.207 74.3537 41.7629 73.9013 41.4513 73.3146C41.1431 72.7247 40.989 72.0237 40.989 71.2116C40.989 70.4228 41.1448 69.7334 41.4563 69.1435C41.7679 68.5502 42.207 68.0895 42.7738 67.7614C43.3406 67.4299 44.0084 67.2642 44.7773 67.2642C45.3209 67.2642 45.8181 67.3487 46.2688 67.5178C46.7196 67.6868 47.109 67.937 47.4371 68.2685C47.7653 68.5999 48.0205 69.0092 48.2028 69.4964C48.3851 69.9804 48.4762 70.5355 48.4762 71.1619V71.7685H41.8391V70.3565H46.2141C46.2108 70.098 46.1495 69.8677 46.0302 69.6655C45.9109 69.4633 45.7468 69.3059 45.538 69.1932C45.3325 69.0772 45.0955 69.0192 44.8271 69.0192C44.5553 69.0192 44.3117 69.0805 44.0962 69.2031C43.8808 69.3224 43.7101 69.4865 43.5842 69.6953C43.4582 69.9008 43.3919 70.1345 43.3853 70.3963V71.8331C43.3853 72.1446 43.4466 72.4181 43.5692 72.6534C43.6919 72.8854 43.8659 73.0661 44.0913 73.1953C44.3166 73.3246 44.5851 73.3892 44.8967 73.3892C45.1121 73.3892 45.3076 73.3594 45.4833 73.2997C45.659 73.2401 45.8098 73.1522 45.9357 73.0362C46.0617 72.9202 46.1561 72.7777 46.2191 72.6087L48.4513 72.6733C48.3585 73.1738 48.1547 73.6096 47.8398 73.9808C47.5283 74.3487 47.119 74.6354 46.6119 74.8409C46.1048 75.0431 45.5181 75.1442 44.8519 75.1442ZM54.0282 67.3636V69.1534H49.2108V67.3636H54.0282ZM50.22 65.5341H52.6511V72.5987C52.6511 72.7479 52.6743 72.8688 52.7207 72.9616C52.7704 73.0511 52.8417 73.1158 52.9345 73.1555C53.0273 73.192 53.1383 73.2102 53.2676 73.2102C53.3604 73.2102 53.4582 73.2019 53.5609 73.1854C53.667 73.1655 53.7465 73.1489 53.7995 73.1357L54.1674 74.8906C54.0514 74.9238 53.8874 74.9652 53.6752 75.0149C53.4664 75.0646 53.2162 75.0961 52.9245 75.1094C52.3545 75.1359 51.8656 75.0696 51.4579 74.9105C51.0536 74.7481 50.7437 74.4962 50.5282 74.1548C50.3161 73.8134 50.2134 73.3842 50.22 72.8672V65.5341ZM57.4213 75.1293C56.9341 75.1293 56.5016 75.0481 56.1238 74.8857C55.7492 74.7199 55.4526 74.4714 55.2338 74.1399C55.0184 73.8052 54.9107 73.3859 54.9107 72.8821C54.9107 72.4579 54.9853 72.0999 55.1344 71.8082C55.2836 71.5166 55.4891 71.2796 55.7509 71.0973C56.0127 70.915 56.3143 70.7775 56.6557 70.6847C56.9971 70.5885 57.3617 70.5239 57.7495 70.4908C58.1837 70.451 58.5333 70.4096 58.7985 70.3665C59.0636 70.3201 59.2559 70.2554 59.3752 70.1726C59.4978 70.0864 59.5591 69.9654 59.5591 69.8097V69.7848C59.5591 69.5296 59.4713 69.3324 59.2956 69.1932C59.12 69.054 58.883 68.9844 58.5847 68.9844C58.2632 68.9844 58.0047 69.054 57.8091 69.1932C57.6136 69.3324 57.4893 69.5246 57.4363 69.7699L55.1941 69.6903C55.2604 69.2263 55.431 68.812 55.7061 68.4474C55.9846 68.0795 56.3657 67.7912 56.8496 67.5824C57.3368 67.3703 57.9218 67.2642 58.6046 67.2642C59.0918 67.2642 59.5409 67.3222 59.9519 67.4382C60.3629 67.5509 60.7208 67.7166 61.0257 67.9354C61.3307 68.1508 61.566 68.416 61.7317 68.7308C61.9007 69.0457 61.9853 69.4053 61.9853 69.8097V75H59.6983V73.9361H59.6387C59.5028 74.1946 59.3288 74.4134 59.1167 74.5923C58.9078 74.7713 58.6609 74.9055 58.3759 74.995C58.0942 75.0845 57.776 75.1293 57.4213 75.1293ZM58.1721 73.5384C58.4339 73.5384 58.6692 73.4853 58.878 73.3793C59.0901 73.2732 59.2592 73.1274 59.3851 72.9418C59.5111 72.7528 59.574 72.5341 59.574 72.2855V71.5597C59.5044 71.5961 59.4199 71.6293 59.3205 71.6591C59.2244 71.6889 59.1183 71.7171 59.0023 71.7436C58.8863 71.7701 58.767 71.7933 58.6444 71.8132C58.5217 71.8331 58.4041 71.8513 58.2914 71.8679C58.0627 71.9044 57.8671 71.9607 57.7047 72.0369C57.5456 72.1132 57.423 72.2126 57.3368 72.3352C57.254 72.4545 57.2125 72.5971 57.2125 72.7628C57.2125 73.0147 57.302 73.2069 57.481 73.3395C57.6633 73.4721 57.8936 73.5384 58.1721 73.5384ZM63.4718 75V67.3636H65.8333V68.7557H65.9128C66.052 68.2519 66.2791 67.8774 66.5939 67.6321C66.9088 67.3835 67.275 67.2592 67.6926 67.2592C67.8053 67.2592 67.9213 67.2675 68.0407 67.2841C68.16 67.2973 68.271 67.3189 68.3738 67.3487V69.4616C68.2578 69.4219 68.1053 69.3904 67.9164 69.3672C67.7308 69.344 67.565 69.3324 67.4192 69.3324C67.1309 69.3324 66.8707 69.397 66.6387 69.5263C66.41 69.6522 66.2293 69.8295 66.0968 70.0582C65.9675 70.2836 65.9029 70.5488 65.9029 70.8537V75H63.4718ZM69.3643 75V67.3636H71.7955V75H69.3643ZM70.5824 66.4737C70.241 66.4737 69.9477 66.361 69.7024 66.1357C69.4571 65.907 69.3345 65.6319 69.3345 65.3104C69.3345 64.9922 69.4571 64.7204 69.7024 64.495C69.9477 64.2663 70.241 64.152 70.5824 64.152C70.9271 64.152 71.2204 64.2663 71.4624 64.495C71.7076 64.7204 71.8303 64.9922 71.8303 65.3104C71.8303 65.6319 71.7076 65.907 71.4624 66.1357C71.2204 66.361 70.9271 66.4737 70.5824 66.4737ZM75.4956 75.1293C75.0083 75.1293 74.5758 75.0481 74.198 74.8857C73.8234 74.7199 73.5268 74.4714 73.3081 74.1399C73.0926 73.8052 72.9849 73.3859 72.9849 72.8821C72.9849 72.4579 73.0595 72.0999 73.2086 71.8082C73.3578 71.5166 73.5633 71.2796 73.8251 71.0973C74.0869 70.915 74.3886 70.7775 74.7299 70.6847C75.0713 70.5885 75.4359 70.5239 75.8237 70.4908C76.2579 70.451 76.6075 70.4096 76.8727 70.3665C77.1378 70.3201 77.3301 70.2554 77.4494 70.1726C77.572 70.0864 77.6333 69.9654 77.6333 69.8097V69.7848C77.6333 69.5296 77.5455 69.3324 77.3699 69.1932C77.1942 69.054 76.9572 68.9844 76.6589 68.9844C76.3374 68.9844 76.0789 69.054 75.8833 69.1932C75.6878 69.3324 75.5635 69.5246 75.5105 69.7699L73.2683 69.6903C73.3346 69.2263 73.5053 68.812 73.7804 68.4474C74.0588 68.0795 74.4399 67.7912 74.9238 67.5824C75.411 67.3703 75.996 67.2642 76.6788 67.2642C77.166 67.2642 77.6151 67.3222 78.0261 67.4382C78.4371 67.5509 78.795 67.7166 79.1 67.9354C79.4049 68.1508 79.6402 68.416 79.8059 68.7308C79.975 69.0457 80.0595 69.4053 80.0595 69.8097V75H77.7725V73.9361H77.7129C77.577 74.1946 77.403 74.4134 77.1909 74.5923C76.9821 74.7713 76.7351 74.9055 76.4501 74.995C76.1684 75.0845 75.8502 75.1293 75.4956 75.1293ZM76.2463 73.5384C76.5081 73.5384 76.7434 73.4853 76.9522 73.3793C77.1644 73.2732 77.3334 73.1274 77.4593 72.9418C77.5853 72.7528 77.6483 72.5341 77.6483 72.2855V71.5597C77.5787 71.5961 77.4941 71.6293 77.3947 71.6591C77.2986 71.6889 77.1925 71.7171 77.0765 71.7436C76.9605 71.7701 76.8412 71.7933 76.7186 71.8132C76.5959 71.8331 76.4783 71.8513 76.3656 71.8679C76.1369 71.9044 75.9413 71.9607 75.7789 72.0369C75.6199 72.1132 75.4972 72.2126 75.411 72.3352C75.3282 72.4545 75.2868 72.5971 75.2868 72.7628C75.2868 73.0147 75.3762 73.2069 75.5552 73.3395C75.7375 73.4721 75.9679 73.5384 76.2463 73.5384ZM83.9771 70.6449V75H81.546V67.3636H83.8578V68.7656H83.9423C84.1113 68.2983 84.3997 67.9321 84.8074 67.6669C85.215 67.3984 85.7006 67.2642 86.264 67.2642C86.801 67.2642 87.2666 67.3852 87.661 67.6271C88.0588 67.8658 88.367 68.2005 88.5858 68.6314C88.8078 69.0589 88.9172 69.5594 88.9139 70.1328V75H86.4828V70.6101C86.4861 70.1858 86.3784 69.8544 86.1596 69.6158C85.9442 69.3771 85.6442 69.2578 85.2598 69.2578C85.0046 69.2578 84.7792 69.3142 84.5836 69.4268C84.3914 69.5362 84.2422 69.6937 84.1362 69.8991C84.0334 70.1046 83.9804 70.3532 83.9771 70.6449Z" fill="#673AB7"/>
</svg>
