<svg width="86" height="108" viewBox="0 0 86 108" fill="none" xmlns="http://www.w3.org/2000/svg">
<path d="M40.502 105.726C41.4886 108.289 45.115 108.289 46.1015 105.726L71.0488 40.9112C78.5448 21.436 64.1698 0.5 43.3018 0.5V0.5C22.4338 0.5 8.05876 21.436 15.5548 40.9112L40.502 105.726Z" fill="#FEDB68"/>
<path d="M41.1669 36.6297H41.2469C41.4269 33.9591 41.6468 34.4843 41.9268 32.3083L43.4268 21H47.0466L48.6267 32.2753C48.9866 34.8138 49.1666 34.4207 49.3267 36.5638H49.4067C49.5067 34.5196 49.7666 33.7918 50.1865 30.8906L51.5865 21H54.6264L51.0466 44.111H47.4467L46.0267 33.8579C45.5868 30.7258 45.3868 28.9125 45.2267 26.6706H45.1467C44.9468 29.0444 44.7668 30.7587 44.4667 32.8028L42.8468 44.111H39.2269L35.667 21H38.9669L40.3469 30.3301C40.7269 32.9017 41.1069 34.157 41.1669 36.6297Z" fill="#00D7CC"/>
<path d="M41.7907 35.7069H41.8581C42.0099 33.1941 41.622 33.6882 41.8581 31.6407L43.2072 21H46.7484L48.0806 31.6096C48.3841 33.9984 48.536 33.6283 48.6709 35.6449H48.7383C48.8225 33.7214 49.299 37.2189 49.6532 34.4891L51.6088 21H53.1395L50.121 42.7467H48.4201L47.2297 33.0987C46.8588 30.1516 46.8833 28.4454 46.7484 26.3358H45.1465C44.9779 28.5694 44.826 30.1826 44.573 32.106L43.2072 42.7467H40.1549L37.1533 21H39.9357L41.0993 29.7793C41.4197 32.1991 41.7401 33.3802 41.7907 35.7069Z" fill="#FF477B"/>
<path d="M42.367 36.6297H42.447C42.627 33.9591 42.847 34.4843 43.127 32.3083L44.6269 21H48.247L49.8268 32.2753C50.1869 34.8138 50.3668 34.4207 50.5268 36.5638H50.6069C50.7069 34.5196 50.9668 33.7918 51.3869 30.8906L52.7869 21H55.8268L52.2467 44.111H48.6469L47.2269 33.8579C46.7869 30.7258 46.5869 28.9125 46.4268 26.6706H46.347C46.147 29.0444 45.9669 30.7587 45.667 32.8028L44.047 44.111H40.4271L36.8672 21H40.1671L41.5471 30.3301C41.927 32.9017 42.307 34.157 42.367 36.6297Z" fill="#373737"/>
<path d="M41.2085 42.3034H34.6867C34.1543 42.3034 33.7227 42.708 33.7227 43.2072C33.7227 43.7063 34.1543 44.1109 34.6867 44.1109H41.2085C41.7409 44.1109 42.1725 43.7063 42.1725 43.2072C42.1725 42.708 41.7409 42.3034 41.2085 42.3034Z" fill="#373737"/>
<path d="M39.7993 26.6556H34.6867C34.1543 26.6556 33.7227 27.0602 33.7227 27.5593C33.7227 28.0584 34.1543 28.4631 34.6867 28.4631H39.7993C40.3317 28.4631 40.7633 28.0584 40.7633 27.5593C40.7633 27.0602 40.3317 26.6556 39.7993 26.6556Z" fill="#373737"/>
<path d="M38.4268 21H33.5714C33.039 21 32.6074 21.4046 32.6074 21.9037C32.6074 22.4029 33.039 22.8075 33.5714 22.8075H38.4268C38.9592 22.8075 39.3908 22.4029 39.3908 21.9037C39.3908 21.4046 38.9592 21 38.4268 21Z" fill="#373737"/>
<path d="M39.6187 23.8278H36.963C36.4306 23.8278 35.999 24.2324 35.999 24.7315C35.999 25.2306 36.4306 25.6352 36.963 25.6352H39.6187C40.1511 25.6352 40.5827 25.2306 40.5827 24.7315C40.5827 24.2324 40.1511 23.8278 39.6187 23.8278Z" fill="#373737"/>
<path d="M49.8281 39.5883H47.1725C46.6401 39.5883 46.2085 39.9929 46.2085 40.4921C46.2085 40.9912 46.6401 41.3958 47.1725 41.3958H49.8281C50.3605 41.3958 50.7921 40.9912 50.7921 40.4921C50.7921 39.9929 50.3605 39.5883 49.8281 39.5883Z" fill="#373737"/>
<path d="M45.794 21H43.1383C42.6059 21 42.1743 21.4046 42.1743 21.9037C42.1743 22.4029 42.6059 22.8075 43.1383 22.8075H45.794C46.3264 22.8075 46.758 22.4029 46.758 21.9037C46.758 21.4046 46.3264 21 45.794 21Z" fill="#373737"/>
<path d="M53.2789 21H51.7545C51.2221 21 50.7905 21.4046 50.7905 21.9037C50.7905 22.4029 51.2221 22.8075 51.7545 22.8075H53.2789C53.8113 22.8075 54.2429 22.4029 54.2429 21.9037C54.2429 21.4046 53.8113 21 53.2789 21Z" fill="#373737"/>
<path d="M40.6091 34.9476H36.8126C36.2802 34.9476 35.8486 35.3523 35.8486 35.8514C35.8486 36.3505 36.2802 36.7551 36.8126 36.7551H40.6091C41.1415 36.7551 41.5731 36.3505 41.5731 35.8514C41.5731 35.3523 41.1415 34.9476 40.6091 34.9476Z" fill="#373737"/>
<path d="M38.6165 30.9695H37.5451C37.0127 30.9695 36.5811 31.3741 36.5811 31.8732C36.5811 32.3724 37.0127 32.777 37.5451 32.777H38.6165C39.1489 32.777 39.5805 32.3724 39.5805 31.8732C39.5805 31.3741 39.1489 30.9695 38.6165 30.9695Z" fill="#373737"/>
<path d="M37.4317 36.1699H33.1788C32.6464 36.1699 32.2148 36.5745 32.2148 37.0736C32.2148 37.5727 32.6464 37.9774 33.1788 37.9774H37.4317C37.9641 37.9774 38.3957 37.5727 38.3957 37.0736C38.3957 36.5745 37.9641 36.1699 37.4317 36.1699Z" fill="#373737"/>
<path d="M39.9272 40.4922C39.9272 42.0067 39.1769 42.3416 38.8018 42.3196L40.5502 42.6717L39.9272 40.4922Z" fill="#373737"/>
<path d="M37.8708 37.1039C37.8708 36.7104 37.9937 36.7543 38.3969 36.7543L37.7324 36.5596L37.8708 37.1039Z" fill="#373737"/>
<path d="M35.8889 35.6697C35.8177 36.0516 35.8052 36.0743 35.4199 36.1855L36.1161 36.1884L35.8889 35.6697Z" fill="#373737"/>
<path d="M38.3864 37.1765C38.4683 37.0434 38.2564 36.8649 38.6408 36.7512H38.1494L38.3864 37.1765Z" fill="#373737"/>
<path d="M37.4463 28.4631C37.8508 28.5439 38.0037 28.689 38.1081 29.0541L38.0227 28.4631H37.4463Z" fill="#373737"/>
<path d="M37.0176 25.6352C37.4221 25.7159 37.575 25.8611 37.6793 26.2261L37.594 25.6352L37.0176 25.6352Z" fill="#373737"/>
<path d="M36.5811 22.8074C36.9856 22.8881 37.1385 23.0332 37.2428 23.3983L37.1575 22.8074H36.5811Z" fill="#373737"/>
<path d="M37.2331 23.3267C37.2331 23.7897 37.2997 23.7742 36.9009 23.8297L37.3156 23.8813L37.2331 23.3267Z" fill="#373737"/>
<path d="M37.6697 26.1705C37.6697 26.6334 37.7362 26.618 37.3374 26.6734L37.7521 26.7251L37.6697 26.1705Z" fill="#373737"/>
<path d="M31.964 44.1109C32.4964 44.1109 32.928 43.7063 32.928 43.2072C32.928 42.708 32.4964 42.3034 31.964 42.3034C31.4316 42.3034 31 42.708 31 43.2072C31 43.7063 31.4316 44.1109 31.964 44.1109Z" fill="#373737"/>
<path d="M35.1012 32.777C35.6336 32.777 36.0652 32.3724 36.0652 31.8732C36.0652 31.3741 35.6336 30.9695 35.1012 30.9695C34.5688 30.9695 34.1372 31.3741 34.1372 31.8732C34.1372 32.3724 34.5688 32.777 35.1012 32.777Z" fill="#373737"/>
</svg>
