<svg width="88" height="117" viewBox="0 0 88 117" fill="none" xmlns="http://www.w3.org/2000/svg">
<path d="M39.3342 100.877C40.9785 105.149 47.0225 105.149 48.6668 100.877L71.7475 40.9112C79.2435 21.436 64.8685 0.5 44.0005 0.5V0.5C23.1325 0.5 8.75749 21.436 16.2535 40.9112L39.3342 100.877Z" fill="#FEDB68"/>
<path d="M39.2381 39.9072H39.3187C39.4999 37.0184 39.7214 37.5865 40.0034 35.2326L41.5139 23.0001H45.1591L46.7502 35.1969C47.1126 37.943 47.2939 37.5177 47.4551 39.8359H47.5357C47.6364 37.6247 47.8981 36.8374 48.321 33.6991L49.7308 23.0001H52.792L49.1871 48H45.562L44.132 36.9089C43.689 33.5208 43.4876 31.5593 43.3264 29.1342H43.2458C43.0446 31.702 42.8632 33.5564 42.5611 35.7675L40.9298 48H37.2846L33.6997 23.0001H37.0227L38.4124 33.0928C38.795 35.8746 39.1777 37.2325 39.2381 39.9072Z" fill="#00D7CC"/>
<path d="M39.8661 38.9091H39.934C40.0869 36.1909 39.6963 36.7253 39.934 34.5105L41.2926 23.0001H44.8586L46.2001 34.4769C46.5058 37.0609 46.6587 36.6606 46.7945 38.842H46.8625C46.9473 36.7612 47.4271 40.5447 47.7838 37.5917L49.7531 23.0001H51.2945L48.2548 46.5242H46.542L45.3433 36.0877C44.9697 32.8997 44.9945 31.054 44.8586 28.7721H43.2455C43.0757 31.1882 42.9227 32.9332 42.6679 35.0138L41.2926 46.5242H38.2189L35.1963 23.0001H37.9982L39.1699 32.497C39.4925 35.1145 39.8152 36.3922 39.8661 38.9091Z" fill="#FF477B"/>
<path d="M40.4466 39.9072H40.5271C40.7084 37.0184 40.9299 37.5865 41.2119 35.2326L42.7223 23.0001H46.3677L47.9586 35.1969C48.3213 37.943 48.5024 37.5177 48.6636 39.8359H48.7441C48.8449 37.6247 49.1066 36.8374 49.5296 33.6991L50.9394 23.0001H54.0006L50.3955 48H46.7704L45.3405 36.9089C44.8975 33.5208 44.696 31.5593 44.5348 29.1342H44.4545C44.253 31.702 44.0717 33.5564 43.7697 35.7675L42.1383 48H38.4931L34.9082 23.0001H38.2312L39.6209 33.0928C40.0035 35.8746 40.3862 37.2325 40.4466 39.9072Z" fill="#373737"/>
<path d="M39.28 46.0447H32.7125C32.1763 46.0447 31.7417 46.4824 31.7417 47.0223C31.7417 47.5623 32.1763 48 32.7125 48H39.28C39.8161 48 40.2507 47.5623 40.2507 47.0223C40.2507 46.4824 39.8161 46.0447 39.28 46.0447Z" fill="#373737"/>
<path d="M37.8609 29.118H32.7125C32.1763 29.118 31.7417 29.5557 31.7417 30.0957C31.7417 30.6356 32.1763 31.0733 32.7125 31.0733H37.8609C38.3971 31.0733 38.8317 30.6356 38.8317 30.0957C38.8317 29.5557 38.3971 29.118 37.8609 29.118Z" fill="#373737"/>
<path d="M36.4788 23.0001H31.5894C31.0533 23.0001 30.6187 23.4378 30.6187 23.9777C30.6187 24.5176 31.0533 24.9553 31.5894 24.9553H36.4788C37.0149 24.9553 37.4495 24.5176 37.4495 23.9777C37.4495 23.4378 37.0149 23.0001 36.4788 23.0001Z" fill="#373737"/>
<path d="M37.6792 26.0591H35.0049C34.4688 26.0591 34.0342 26.4968 34.0342 27.0367C34.0342 27.5766 34.4688 28.0143 35.0049 28.0143H37.6792C38.2153 28.0143 38.6499 27.5766 38.6499 27.0367C38.6499 26.4968 38.2153 26.0591 37.6792 26.0591Z" fill="#373737"/>
<path d="M47.9599 43.1077H45.2857C44.7496 43.1077 44.3149 43.5454 44.3149 44.0853C44.3149 44.6253 44.7496 45.0629 45.2857 45.0629H47.9599C48.4961 45.0629 48.9307 44.6253 48.9307 44.0853C48.9307 43.5454 48.4961 43.1077 47.9599 43.1077Z" fill="#373737"/>
<path d="M43.8974 23.0001H41.2232C40.6871 23.0001 40.2524 23.4378 40.2524 23.9777C40.2524 24.5176 40.6871 24.9553 41.2232 24.9553H43.8974C44.4336 24.9553 44.8682 24.5176 44.8682 23.9777C44.8682 23.4378 44.4336 23.0001 43.8974 23.0001Z" fill="#373737"/>
<path d="M51.435 23.0001H49.9C49.3638 23.0001 48.9292 23.4378 48.9292 23.9777C48.9292 24.5176 49.3638 24.9553 49.9 24.9553H51.435C51.9711 24.9553 52.4058 24.5176 52.4058 23.9777C52.4058 23.4378 51.9711 23.0001 51.435 23.0001Z" fill="#373737"/>
<path d="M38.6766 38.0878H34.8536C34.3174 38.0878 33.8828 38.5255 33.8828 39.0654C33.8828 39.6053 34.3174 40.043 34.8536 40.043H38.6766C39.2127 40.043 39.6474 39.6053 39.6474 39.0654C39.6474 38.5255 39.2127 38.0878 38.6766 38.0878Z" fill="#373737"/>
<path d="M36.6699 33.7844H35.5909C35.0547 33.7844 34.6201 34.2221 34.6201 34.762C34.6201 35.302 35.0547 35.7396 35.5909 35.7396H36.6699C37.206 35.7396 37.6406 35.302 37.6406 34.762C37.6406 34.2221 37.206 33.7844 36.6699 33.7844Z" fill="#373737"/>
<path d="M35.4765 39.4099H31.1939C30.6578 39.4099 30.2231 39.8476 30.2231 40.3875C30.2231 40.9274 30.6578 41.3651 31.1939 41.3651H35.4765C36.0126 41.3651 36.4473 40.9274 36.4473 40.3875C36.4473 39.8476 36.0126 39.4099 35.4765 39.4099Z" fill="#373737"/>
<path d="M37.9898 44.0855C37.9898 45.7238 37.2342 46.0861 36.8564 46.0623L38.6171 46.4432L37.9898 44.0855Z" fill="#373737"/>
<path d="M35.9192 40.4203C35.9192 39.9946 36.0429 40.0422 36.4489 40.0422L35.7798 39.8315L35.9192 40.4203Z" fill="#373737"/>
<path d="M33.9229 38.8688C33.8513 39.2819 33.8387 39.3065 33.4507 39.4269L34.1517 39.4299L33.9229 38.8688Z" fill="#373737"/>
<path d="M36.4384 40.4987C36.5209 40.3548 36.3075 40.1618 36.6946 40.0387H36.1997L36.4384 40.4987Z" fill="#373737"/>
<path d="M35.4917 31.0732C35.8991 31.1606 36.053 31.3175 36.1581 31.7125L36.0721 31.0732H35.4917Z" fill="#373737"/>
<path d="M35.0596 28.0142C35.467 28.1015 35.6209 28.2585 35.726 28.6534L35.64 28.0142L35.0596 28.0142Z" fill="#373737"/>
<path d="M34.6201 24.9553C35.0275 25.0426 35.1815 25.1996 35.2865 25.5945L35.2006 24.9553H34.6201Z" fill="#373737"/>
<path d="M35.277 25.5171C35.277 26.0179 35.344 26.0011 34.9424 26.0611L35.36 26.117L35.277 25.5171Z" fill="#373737"/>
<path d="M35.7164 28.5933C35.7164 29.094 35.7834 29.0773 35.3818 29.1373L35.7995 29.1932L35.7164 28.5933Z" fill="#373737"/>
<path d="M29.9708 48C30.5069 48 30.9415 47.5623 30.9415 47.0223C30.9415 46.4824 30.5069 46.0447 29.9708 46.0447C29.4346 46.0447 29 46.4824 29 47.0223C29 47.5623 29.4346 48 29.9708 48Z" fill="#373737"/>
<path d="M33.1299 35.7396C33.6661 35.7396 34.1007 35.302 34.1007 34.762C34.1007 34.2221 33.6661 33.7844 33.1299 33.7844C32.5938 33.7844 32.1592 34.2221 32.1592 34.762C32.1592 35.302 32.5938 35.7396 33.1299 35.7396Z" fill="#373737"/>
</svg>
