<svg width="400" height="155" viewBox="0 0 400 155" fill="none" xmlns="http://www.w3.org/2000/svg">
<path d="M369.51 0H30.4899C13.6508 0 0 5.04794 0 11.2749V143.725C0 149.952 13.6508 155 30.4899 155H369.51C386.349 155 400 149.952 400 143.725V11.2749C400 5.04794 386.349 0 369.51 0Z" fill="#FEDB68"/>
<path d="M400 0H0V155H400V0Z" fill="#FEDB68"/>
<g clip-path="url(#clip0_21_314)">
<path d="M212.944 91.5496V93.4324H185.224V91.5496H212.944Z" fill="black"/>
<path d="M212.944 91.5496V93.4324H185.224V91.5496H212.944Z" stroke="black"/>
<path d="M196.996 71.8649C196.996 71.8649 195.88 72.8919 195.88 75.2883C195.88 77.6847 195.451 78.7973 195.88 80.7658C196.309 82.7342 197.682 83.5901 197.682 86.1577C197.682 88.7252 195.88 93.1757 195.88 96.1712C195.88 99.1667 196.052 100.108 196.996 101.905C197.94 103.703 197.682 103.36 197.682 103.36L201.973 104.302C201.973 104.302 202.917 100.707 201.973 99.6802C201.029 98.6532 202.488 98.5676 201.287 93.8604C200.085 89.1532 201.029 87.8694 201.973 85.045C202.917 82.2207 201.716 83.5901 200.772 80.7658C199.828 77.9414 201.287 77.8559 201.287 76.0586C201.287 74.2613 200.772 72.8919 200.772 72.8919L196.996 71.8649Z" fill="#A2D1FF"/>
<path d="M185.396 105.757H213.373V107.554L185.396 107.383V105.757Z" stroke="black"/>
<path d="M185.396 105.757H213.373V107.554L185.396 107.383V105.757Z" fill="black"/>
<path d="M203.418 105.671C203.418 103.071 201.305 100.964 198.698 100.964C196.091 100.964 193.978 103.071 193.978 105.671V112.176C193.978 114.775 196.091 116.883 198.698 116.883C201.305 116.883 203.418 114.775 203.418 112.176V105.671Z" fill="#F70619"/>
<path d="M206.164 100.878C204.705 100.793 202.045 102.419 200.758 103.189C199.47 103.959 197.497 105.5 197.497 107.64C197.497 109.779 197.497 109.095 197.497 113.032C197.497 116.968 196.724 122.104 196.724 122.104V123.815H203.161C203.161 123.815 203.933 117.311 203.161 115.77C202.388 114.23 201.616 111.405 201.616 109.351C201.616 107.297 203.161 104.815 203.161 104.815L206.164 102.333L210.026 101.649C210.026 101.649 207.623 100.964 206.164 100.878Z" fill="#A2D1FF"/>
<path d="M221.423 134.371C221.979 133.661 222.091 133.519 221.771 131.668C221.452 129.817 221.047 129.043 222.14 128.294C223.234 127.545 230.91 128.727 231.938 128.385C232.966 128.043 233.158 125.217 231.724 124.786C230.291 124.354 221.75 125.243 221.75 125.243L220.625 123.451L218.827 120.904L217.257 119.679L215.287 119.287L182.518 126.221C182.518 126.221 181.222 126.583 180.665 127.293C180.109 128.003 184.119 129.987 184.119 129.987L186.651 131.276C186.651 131.276 187.279 131.766 189.517 132.138C191.755 132.511 191.062 132.428 193.077 133.085C195.093 133.741 194.667 133.638 196.931 134.947C199.195 136.255 200.293 137.112 200.293 137.112L203.676 138.606L208.152 139.352L210.613 139.441L215.509 138.683C215.509 138.683 218.416 138.204 219.641 136.643M221.423 134.371C220.866 135.081 220.866 135.081 219.641 136.643M221.423 134.371L219.641 136.643" stroke="#3EADF7"/>
<path d="M183.507 51.5811C182.992 52.0946 182.992 52.2658 182.821 52.5225C182.649 52.7793 182.735 137.509 182.735 137.509L185.309 139.221V73.4054V53.3784C185.309 53.3784 185.481 52.7793 185.91 52.2658C186.339 51.7522 187.627 50.7252 187.627 50.7252L189.858 48.8423L192.948 46.018L195.351 43.6216C195.351 43.6216 196.466 42.4234 196.981 41.5676C197.496 40.7117 197.925 39.5991 197.925 39.5991L196.981 39.4279L194.75 40.027V40.7973L191.574 43.7928L187.026 48.0721M183.507 51.5811C184.022 51.0676 187.026 48.0721 187.026 48.0721M183.507 51.5811L187.026 48.0721" stroke="black"/>
<path d="M214.746 51.4955C215.261 52.009 215.261 52.1802 215.433 52.4369C215.604 52.6937 215.518 137.423 215.518 137.423L212.944 139.135V73.3198V53.2928C212.944 53.2928 212.772 52.6937 212.343 52.1802C211.914 51.6667 210.627 50.6396 210.627 50.6396L208.395 48.7568L205.306 45.9324L202.903 43.536C202.903 43.536 201.787 42.3378 201.272 41.482C200.757 40.6261 200.328 39.5135 200.328 39.5135L201.272 39.3423L203.503 39.9414V40.7117L206.679 43.7072L211.227 47.9865M214.746 51.4955C214.231 50.982 211.227 47.9865 211.227 47.9865M214.746 51.4955L211.227 47.9865" stroke="black"/>
<path d="M197.925 39.5991C197.925 39.5991 197.496 40.7117 196.981 41.5676C196.466 42.4234 195.351 43.6216 195.351 43.6216L192.948 46.018L189.858 48.8423L187.627 50.7252C187.627 50.7252 186.339 51.7522 185.91 52.2658C185.481 52.7793 185.309 53.3784 185.309 53.3784V73.4054V139.221L182.735 137.509C182.735 137.509 182.649 52.7793 182.821 52.5225C182.992 52.2658 182.992 52.0946 183.507 51.5811L187.026 48.0721L191.574 43.7928L194.75 40.7973V40.027L196.981 39.4279L197.925 39.5991Z" fill="black"/>
<path d="M200.328 39.5135C200.328 39.5135 200.757 40.6261 201.272 41.482C201.787 42.3378 202.903 43.536 202.903 43.536L205.306 45.9324L208.395 48.7568L210.627 50.6396C210.627 50.6396 211.914 51.6667 212.343 52.1802C212.772 52.6937 212.944 53.2928 212.944 53.2928C212.944 53.2928 212.944 65.4988 212.944 73.3198C212.944 99.0223 212.944 139.135 212.944 139.135L215.518 137.423C215.518 137.423 215.604 52.6937 215.433 52.4369C215.261 52.1802 215.261 52.009 214.746 51.4955L211.227 47.9865L206.679 43.7072L203.503 40.7117V39.9414L201.272 39.3423L200.328 39.5135Z" fill="black"/>
<path d="M231.724 124.786C233.158 125.217 232.966 128.043 231.938 128.385C230.91 128.727 223.234 127.545 222.14 128.294C221.047 129.043 221.452 129.817 221.771 131.668C222.091 133.519 221.979 133.661 221.423 134.371L219.641 136.643C218.416 138.204 215.509 138.683 215.509 138.683L210.613 139.441L208.152 139.352L203.676 138.606L200.293 137.112C200.293 137.112 199.195 136.255 196.931 134.947C194.667 133.638 195.093 133.741 193.077 133.085C191.062 132.428 191.755 132.511 189.517 132.138C187.279 131.766 186.651 131.276 186.651 131.276L184.119 129.987C184.119 129.987 180.109 128.003 180.665 127.293C181.222 126.583 182.518 126.221 182.518 126.221L215.287 119.287L217.257 119.679L218.827 120.904L220.625 123.451L221.75 125.243C221.75 125.243 230.291 124.354 231.724 124.786Z" fill="#3EADF7"/>
<path d="M198.612 29.0721C206.385 29.0721 212.686 22.7879 212.686 15.036C212.686 7.28415 206.385 1 198.612 1C190.839 1 184.537 7.28415 184.537 15.036C184.537 22.7879 190.839 29.0721 198.612 29.0721Z" fill="#DE1124"/>
<path d="M198.269 40.027V55.0901H199.813V39.2568H198.269V40.027Z" fill="black"/>
<path d="M185.482 73.3198H212.944V74.8604H185.224V73.3198H185.482Z" fill="black"/>
<path d="M198.269 40.027V55.0901H199.813V39.2568H198.269V40.027Z" stroke="black"/>
<path d="M185.482 73.3198H212.944V74.8604H185.224V73.3198H185.482Z" stroke="black"/>
<path d="M234.313 81.4505C234.743 81.964 234.485 81.536 234.743 82.3063C235 83.0766 234.313 87.0991 234.313 87.0991C234.313 87.0991 233.97 88.7252 233.455 89.4955C232.94 90.2658 232.855 90.0946 232.254 90.5225C231.653 90.9505 230.881 91.036 230.28 91.2072C229.679 91.3784 229.164 91.2928 228.306 91.036C227.448 90.7793 226.504 90.5225 226.504 90.5225L221.955 88.7252C221.955 88.7252 217.75 86.0721 216.806 85.3874C215.862 84.7027 211.056 82.6487 211.056 82.6487C211.056 82.6487 210.039 82.3941 209.855 81.964C209.775 81.7796 209.855 81.4505 209.855 81.4505C209.855 80.5946 211.571 80.9369 211.571 80.9369C211.571 80.9369 233.884 80.9369 234.313 81.4505Z" fill="#D3BA21" stroke="#D3BA21"/>
<path d="M225.886 97.4818C226.438 97.862 226.075 97.5184 226.53 98.1918C226.985 98.8652 227.403 102.924 227.403 102.924C227.403 102.924 227.509 104.582 227.22 105.462C226.93 106.342 226.802 106.2 226.338 106.773C225.874 107.345 225.153 107.634 224.62 107.959C224.087 108.285 223.568 108.34 222.672 108.322C221.776 108.303 220.798 108.308 220.798 108.308L215.933 107.791C215.933 107.791 211.169 106.358 210.075 105.95C208.982 105.542 203.8 104.847 203.8 104.847C203.8 104.847 202.752 104.873 202.459 104.508C202.333 104.352 202.321 104.013 202.321 104.013C202.091 103.189 203.837 103.06 203.837 103.06C203.837 103.06 225.335 97.1016 225.886 97.4818Z" fill="#D3BA21" stroke="#D3BA21"/>
<path d="M208.739 58.6847C208.138 58.4279 207.451 59.5405 207.709 59.9685C207.966 60.3964 210.884 62.1937 211.056 62.7928C211.228 63.3919 210.884 63.5631 210.284 64.1622C209.683 64.7613 209.683 64.8468 209.683 65.2748V66.6441C209.683 67.5856 210.541 68.6126 210.541 68.6126L212 70.3243L212.858 71.009L214.575 72.036L216.119 72.464C216.119 72.464 216.72 72.464 217.836 72.6351C218.951 72.8063 218.78 72.7207 219.638 73.0631C220.496 73.4054 220.239 73.2342 221.097 73.7477C221.955 74.2613 222.298 74.2613 222.298 74.2613L223.5 74.518C223.5 74.518 225.388 74.9459 225.388 74.518C225.388 74.0901 225.045 73.5766 225.045 73.5766L215.776 61.4234L215.004 60.9955H214.146L212.858 61.4234L212 61.7658C212 61.7658 209.34 58.9414 208.739 58.6847Z" fill="#D3BA21"/>
<path d="M209.683 65.2748C209.683 64.8468 209.683 64.7613 210.284 64.1622C210.884 63.5631 211.228 63.3919 211.056 62.7928C210.884 62.1937 207.966 60.3964 207.709 59.9685C207.451 59.5405 208.138 58.4279 208.739 58.6847C209.34 58.9414 212 61.7658 212 61.7658L212.858 61.4234L214.146 60.9955H215.004L215.776 61.4234L225.045 73.5766C225.045 73.5766 225.388 74.0901 225.388 74.518C225.388 74.9459 223.5 74.518 223.5 74.518L222.298 74.2613C222.298 74.2613 221.955 74.2613 221.097 73.7477C220.239 73.2342 220.496 73.4054 219.638 73.0631C218.78 72.7207 218.951 72.8063 217.836 72.6351C216.72 72.464 216.119 72.464 216.119 72.464L214.575 72.036L212.858 71.009L212 70.3243L210.541 68.6126C210.541 68.6126 209.683 67.5856 209.683 66.6441M209.683 65.2748C209.683 65.7027 209.683 65.7027 209.683 66.6441M209.683 65.2748V66.6441" stroke="#D3BA21"/>
<path d="M178.252 95.1095C177.529 95.3363 177.532 96.6982 178.03 96.8502C178.527 97.002 182.366 96.331 182.883 96.6783C183.4 97.0258 183.175 97.4046 182.956 98.3026C182.738 99.2005 182.789 99.2676 183.041 99.6031L183.85 100.677C184.406 101.415 185.829 101.608 185.829 101.608L188.228 101.91L189.449 101.835L191.69 101.417L193.413 100.651C193.413 100.651 193.985 100.223 195.148 99.5615C196.311 98.9003 196.097 98.9558 197.116 98.6122C198.135 98.2689 197.789 98.3182 198.909 98.109C200.029 97.8998 200.356 97.655 200.356 97.655L201.651 96.9998C201.651 96.9998 203.701 95.9894 203.448 95.6539C203.196 95.3184 202.566 95.1606 202.566 95.1606L186.568 92.2399L185.58 92.455L184.763 93.0668L183.79 94.3199L183.175 95.2003C183.175 95.2003 178.975 94.8826 178.252 95.1095Z" fill="#3EADF7"/>
<path d="M183.041 99.6031C182.789 99.2676 182.738 99.2005 182.956 98.3026C183.175 97.4046 183.4 97.0258 182.883 96.6783C182.366 96.331 178.527 97.002 178.03 96.8502C177.532 96.6982 177.529 95.3363 178.252 95.1095C178.975 94.8826 183.175 95.2003 183.175 95.2003L183.79 94.3199L184.763 93.0668L185.58 92.455L186.568 92.2399L202.566 95.1606C202.566 95.1606 203.196 95.3184 203.448 95.6539C203.701 95.9894 201.651 96.9998 201.651 96.9998L200.356 97.655C200.356 97.655 200.029 97.8998 198.909 98.109C197.789 98.3182 198.135 98.2689 197.116 98.6122C196.097 98.9558 196.311 98.9003 195.148 99.5615C193.985 100.223 193.413 100.651 193.413 100.651L191.69 101.417L189.449 101.835L188.228 101.91L185.829 101.608C185.829 101.608 184.406 101.415 183.85 100.677M183.041 99.6031C183.294 99.9386 183.294 99.9386 183.85 100.677M183.041 99.6031L183.85 100.677" stroke="#3EADF7"/>
<path d="M167.012 69.9031C166.359 69.9039 166.169 71.1966 166.575 71.4883C166.981 71.7798 170.374 72.2808 170.769 72.7635C171.164 73.2462 170.916 73.5388 170.602 74.3258C170.287 75.1129 170.321 75.1916 170.491 75.5846L171.034 76.8425C171.407 77.7073 172.602 78.3126 172.602 78.3126L174.621 79.3098L175.68 79.6006L177.664 79.8675L179.253 79.6518C179.253 79.6518 179.804 79.4151 180.897 79.1325C181.99 78.85 181.798 78.8391 182.722 78.8153C183.646 78.7915 183.342 78.7359 184.334 78.8692C185.326 79.0027 185.641 78.8675 185.641 78.8675L186.846 78.6297C186.846 78.6297 188.75 78.2787 188.581 77.8857C188.411 77.4925 187.892 77.1561 187.892 77.1561L174.562 69.6453L173.683 69.5566L172.895 69.8949L171.882 70.7954L171.229 71.4481C171.229 71.4481 167.666 69.9022 167.012 69.9031Z" fill="#F70619"/>
<path d="M170.491 75.5846C170.321 75.1916 170.287 75.1129 170.602 74.3258C170.916 73.5388 171.164 73.2462 170.769 72.7635C170.374 72.2808 166.981 71.7798 166.575 71.4883C166.169 71.1966 166.359 69.9039 167.012 69.9031C167.666 69.9022 171.229 71.4481 171.229 71.4481L171.882 70.7954L172.895 69.8949L173.683 69.5566L174.562 69.6453L187.892 77.1561C187.892 77.1561 188.411 77.4925 188.581 77.8857C188.75 78.2787 186.846 78.6297 186.846 78.6297L185.641 78.8675C185.641 78.8675 185.326 79.0027 184.334 78.8692C183.342 78.7359 183.646 78.7915 182.722 78.8153C181.798 78.8391 181.99 78.85 180.897 79.1325C179.804 79.4151 179.253 79.6518 179.253 79.6518L177.664 79.8675L175.68 79.6006L174.621 79.3098L172.602 78.3126C172.602 78.3126 171.407 77.7073 171.034 76.8425M170.491 75.5846C170.661 75.9778 170.661 75.9778 171.034 76.8425M170.491 75.5846L171.034 76.8425" stroke="#F70619"/>
<path d="M196.095 52.5905C196.738 52.7098 196.688 54.0153 196.236 54.2284C195.784 54.4417 192.356 54.3193 191.88 54.7224C191.403 55.1253 191.593 55.4579 191.759 56.2888C191.925 57.1198 191.877 57.191 191.639 57.5467L190.876 58.6854C190.351 59.4681 189.065 59.8466 189.065 59.8466L186.899 60.4614L185.804 60.5552L183.805 60.4582L182.282 59.958C182.282 59.958 181.782 59.6253 180.759 59.1494C179.736 58.6735 179.927 58.6975 179.022 58.5067C178.118 58.3158 178.427 58.3161 177.428 58.2677C176.428 58.2191 176.143 58.0289 176.143 58.0289L175.001 57.5767C175.001 57.5767 173.192 56.8863 173.431 56.5307C173.669 56.1748 174.241 55.9381 174.241 55.9381L188.718 50.9684L189.599 51.0407L190.312 51.5162L191.144 52.5852L191.667 53.3453C191.667 53.3453 195.452 52.471 196.095 52.5905Z" fill="#F70619"/>
<path d="M191.639 57.5467C191.877 57.191 191.925 57.1198 191.759 56.2888C191.593 55.4579 191.403 55.1253 191.88 54.7224C192.356 54.3193 195.784 54.4417 196.236 54.2284C196.688 54.0153 196.738 52.7098 196.095 52.5905C195.452 52.471 191.667 53.3453 191.667 53.3453L191.144 52.5852L190.312 51.5162L189.599 51.0407L188.718 50.9684L174.241 55.9381C174.241 55.9381 173.669 56.1748 173.431 56.5307C173.192 56.8863 175.001 57.5767 175.001 57.5767L176.143 58.0289C176.143 58.0289 176.428 58.2191 177.428 58.2677C178.427 58.3161 178.118 58.3158 179.022 58.5067C179.927 58.6975 179.736 58.6735 180.759 59.1494C181.782 59.6253 182.282 59.958 182.282 59.958L183.805 60.4582L185.804 60.5552L186.899 60.4614L189.065 59.8466C189.065 59.8466 190.351 59.4681 190.876 58.6854M191.639 57.5467C191.4 57.9026 191.4 57.9026 190.876 58.6854M191.639 57.5467L190.876 58.6854" stroke="#F70619"/>
<path d="M198.612 24.0511V39.1998L199.47 39.5421L200.586 39.7989L202.989 40.4836L206.507 40.9115L208.395 41.1682L209.94 41.425L211.828 41.6818L213.545 42.1953L215.004 42.7088L216.377 43.4791L216.892 44.0782L217.149 44.6773L216.892 134.285C216.892 134.285 216.977 134.97 216.72 135.569C216.463 136.168 216.463 136.168 216.119 136.682C215.776 137.195 215.776 137.281 215.261 137.709C214.746 138.137 212.772 139.42 212.772 139.42L210.541 140.875L208.653 141.988L206.851 143.015L205.563 143.7C205.563 143.7 205.22 143.871 204.533 144.128C203.847 144.384 199.47 144.299 199.47 144.299V146.439C199.47 146.439 205.22 146.61 205.992 146.267C206.765 145.925 206.851 145.839 206.851 145.839L211.399 143.272C211.399 143.272 212.772 142.502 213.802 141.817C214.832 141.132 214.746 141.132 215.776 140.362C216.806 139.592 216.892 139.592 217.492 139.078C218.093 138.565 218.351 138.222 218.694 137.709C219.037 137.195 219.552 136.425 219.724 135.74C219.895 135.056 220.067 133.943 220.067 133.943V133.173V44.6773V43.1367C220.067 43.1367 220.239 42.7088 219.81 42.0241C219.38 41.3394 218.866 41.0827 218.866 41.0827L218.007 40.7403C218.007 40.7403 217.321 40.4836 216.892 40.3124C216.463 40.1412 215.519 39.97 215.519 39.97L213.545 39.5421L211.828 39.1998L209.94 38.7718L208.052 38.4295L207.022 38.2583L205.649 38.0016L204.276 37.5736C204.276 37.5736 202.989 37.2313 202.989 36.5466C202.989 35.8619 202.989 35.3484 202.989 35.3484C202.989 35.3484 203.16 29.5286 202.989 28.8439C202.817 28.1592 202.645 27.9025 202.645 27.9025C202.645 27.9025 202.216 27.2178 202.045 26.8755C201.873 26.5331 201.53 26.1908 201.186 25.7628C200.843 25.3349 200.586 25.0782 200.157 24.6502C199.727 24.2223 199.813 24.3079 199.47 24.0511C199.127 23.7944 198.612 24.0511 198.612 24.0511Z" fill="black" stroke="black"/>
<path d="M201.358 54.9189H197.067C196.309 54.9189 195.694 55.532 195.694 56.2883V60.7388C195.694 61.495 196.309 62.1081 197.067 62.1081H201.358C202.116 62.1081 202.731 61.495 202.731 60.7388V56.2883C202.731 55.532 202.116 54.9189 201.358 54.9189Z" fill="black"/>
<path d="M203.59 63.563C203.59 60.9633 201.476 58.8558 198.87 58.8558C196.263 58.8558 194.149 60.9633 194.149 63.563V70.0675C194.149 72.6673 196.263 74.7748 198.87 74.7748C201.476 74.7748 203.59 72.6673 203.59 70.0675V63.563Z" fill="#D3BA21"/>
<path d="M222.298 69.7252C222.298 69.7252 224.53 72.5495 224.873 73.1486C225.216 73.7477 225.56 74.4324 225.56 74.4324V75.1171C225.56 75.1171 225.216 75.973 225.216 76.7432C225.216 77.5135 225.989 77.4279 225.989 78.1126C225.989 78.7973 225.216 79.054 225.216 79.7387C225.216 80.4234 225.56 80.8513 225.56 80.8513L228.992 81.1937C228.992 81.1937 228.992 80.4234 228.563 79.7387C228.134 79.054 228.563 79.2252 228.563 78.4549C228.563 77.6847 227.448 77.4279 227.448 76.7432C227.448 76.0586 227.963 76.4009 227.877 75.545C227.791 74.6892 227.448 74.4324 227.448 74.4324C227.448 74.4324 227.448 73.5766 226.589 72.8063C225.731 72.036 222.298 69.7252 222.298 69.7252Z" fill="#A2D1FF"/>
<path d="M185.567 75.7162C185.482 76.0585 188.228 77.1712 188.657 77.6847C189.086 78.1982 189.859 79.6531 190.116 80.4234C190.373 81.1937 191.146 83.0766 191.146 83.8468C191.145 84.6171 190.778 85.0948 190.778 86.325C190.778 87.5551 191.749 87.4185 191.749 88.5119C191.749 89.6054 190.778 90.0153 190.778 91.1088C190.778 92.2022 191.146 93.0045 191.146 93.0045L195.608 93.7748C195.608 93.7748 195.523 92.2022 194.983 91.1088C194.444 90.0153 194.983 90.2887 194.983 89.0586C194.983 87.8284 193.582 87.4185 193.582 86.325C193.582 85.2316 194.229 85.7783 194.121 84.4115C194.013 83.0445 193.806 83.6757 193.582 82.6346C193.358 81.5935 194.026 80.1987 192.948 78.9684C191.87 77.7382 185.653 75.3739 185.567 75.7162Z" fill="#A2D1FF"/>
<path d="M181.19 128.18V130.063H216.978V128.18H181.19Z" stroke="black"/>
<path d="M181.19 128.18V130.063H216.978V128.18H181.19Z" fill="black"/>
<path d="M199.384 23.9369V39.0856L198.526 39.4279L197.41 39.6847L195.007 40.3694L191.489 40.7973L189.601 41.054L188.056 41.3108L186.168 41.5676L184.451 42.0811L182.992 42.5946L181.619 43.3649L181.104 43.964L180.847 44.5631L181.104 134.171C181.104 134.171 181.019 134.856 181.276 135.455C181.533 136.054 181.533 136.054 181.877 136.568C182.22 137.081 182.22 137.167 182.735 137.595C183.25 138.023 185.224 139.306 185.224 139.306L187.455 140.761L189.343 141.874L191.145 142.901L192.433 143.586C192.433 143.586 192.776 143.757 193.463 144.013C194.149 144.27 199.556 144.185 199.556 144.185V146.41C199.556 146.41 192.776 146.495 192.004 146.153C191.231 145.811 191.145 145.725 191.145 145.725L186.597 143.158C186.597 143.158 185.224 142.387 184.194 141.703C183.164 141.018 183.25 141.018 182.22 140.248C181.19 139.477 181.104 139.477 180.504 138.964C179.903 138.45 179.645 138.108 179.302 137.595C178.959 137.081 178.444 136.311 178.272 135.626C178.101 134.941 177.929 133.829 177.929 133.829V133.059V44.5631V43.0225C177.929 43.0225 177.757 42.5946 178.186 41.9099C178.615 41.2252 179.13 40.9685 179.13 40.9685L179.989 40.6261C179.989 40.6261 180.675 40.3694 181.104 40.1982C181.533 40.027 182.477 39.8558 182.477 39.8558L184.451 39.4279L186.168 39.0856L188.056 38.6576L189.944 38.3153L190.974 38.1441L192.347 37.8874L193.72 37.4595C193.72 37.4595 195.007 37.1171 195.007 36.4324C195.007 35.7477 195.007 35.2342 195.007 35.2342C195.007 35.2342 194.836 29.4144 195.007 28.7297C195.179 28.045 195.351 27.7883 195.351 27.7883C195.351 27.7883 195.78 27.1036 195.951 26.7613C196.123 26.4189 196.466 26.0766 196.81 25.6486C197.153 25.2207 197.41 24.964 197.839 24.536C198.269 24.1081 198.183 24.1937 198.526 23.9369C198.869 23.6802 199.384 23.9369 199.384 23.9369Z" fill="black" stroke="black"/>
</g>
<defs>
<clipPath id="clip0_21_314">
<rect width="69" height="152" fill="white" transform="translate(166 1)"/>
</clipPath>
</defs>
</svg>
