<svg width="400" height="155" viewBox="0 0 400 155" fill="none" xmlns="http://www.w3.org/2000/svg">
<path d="M369.51 0H30.4899C13.6508 0 0 5.04794 0 11.2749V143.725C0 149.952 13.6508 155 30.4899 155H369.51C386.349 155 400 149.952 400 143.725V11.2749C400 5.04794 386.349 0 369.51 0Z" fill="#FEDB68"/>
<path d="M400 0H0V155H400V0Z" fill="#FEDB68"/>
<ellipse cx="198.517" cy="15.0339" rx="14.0339" ry="14.0339" fill="#DE1124"/>
<path d="M197.833 39.5933C197.833 39.5933 197.405 40.7057 196.892 41.5614C196.378 42.4172 195.266 43.6152 195.266 43.6152L192.87 46.0112L189.789 48.8351L187.564 50.7177C187.564 50.7177 186.281 51.7446 185.853 52.258C185.425 52.7714 185.254 53.3705 185.254 53.3705V73.3944V139.2L182.686 137.488C182.686 137.488 182.601 52.7714 182.772 52.5147C182.943 52.258 182.943 52.0869 183.457 51.5734L186.965 48.065L191.5 43.7863L194.667 40.7913V40.0211L196.892 39.4221L197.833 39.5933Z" fill="black"/>
<path d="M183.457 51.5734C182.943 52.0869 182.943 52.258 182.772 52.5147C182.601 52.7714 182.686 137.488 182.686 137.488L185.254 139.2V73.3944V53.3705C185.254 53.3705 185.425 52.7714 185.853 52.258C186.281 51.7446 187.564 50.7177 187.564 50.7177L189.789 48.8351L192.87 46.0112L195.266 43.6152C195.266 43.6152 196.378 42.4172 196.892 41.5614C197.405 40.7057 197.833 39.5933 197.833 39.5933L196.892 39.4221L194.667 40.0211V40.7913L191.5 43.7863L186.965 48.065M183.457 51.5734C183.97 51.06 186.965 48.065 186.965 48.065M183.457 51.5734L186.965 48.065" stroke="black"/>
<path d="M200.229 39.5076C200.229 39.5076 200.657 40.6201 201.17 41.4758C201.683 42.3315 202.796 43.5295 202.796 43.5295L205.192 45.9256L208.273 48.7495L210.497 50.6321C210.497 50.6321 211.781 51.6589 212.209 52.1724C212.637 52.6858 212.808 53.2848 212.808 53.2848V73.3088V139.114L215.375 137.403C215.375 137.403 215.461 52.6858 215.29 52.4291C215.118 52.1724 215.118 52.0012 214.605 51.4878L211.096 47.9793L206.561 43.7007L203.395 40.7056V39.9355L201.17 39.3365L200.229 39.5076Z" fill="black"/>
<path d="M214.605 51.4878C215.118 52.0012 215.118 52.1724 215.29 52.4291C215.461 52.6858 215.375 137.403 215.375 137.403L212.808 139.114V73.3088V53.2848C212.808 53.2848 212.637 52.6858 212.209 52.1724C211.781 51.6589 210.497 50.6321 210.497 50.6321L208.273 48.7495L205.192 45.9256L202.796 43.5295C202.796 43.5295 201.683 42.3315 201.17 41.4758C200.657 40.6201 200.229 39.5076 200.229 39.5076L201.17 39.3365L203.395 39.9355V40.7056L206.561 43.7007L211.096 47.9793M214.605 51.4878C214.091 50.9744 211.096 47.9793 211.096 47.9793M214.605 51.4878L211.096 47.9793" stroke="black"/>
<path d="M198.175 40.0211V55.0819H199.715V39.2509H198.175V40.0211Z" fill="black"/>
<path d="M185.425 73.3088H212.808V74.8491H185.168V73.3088H185.425Z" fill="black"/>
<path d="M212.808 91.5358V93.4184H185.168V91.5358H212.808Z" fill="black"/>
<path d="M185.339 105.741H213.236V107.538L185.339 107.367V105.741Z" fill="black"/>
<path d="M181.146 128.161V130.043H216.83V128.161H181.146Z" fill="black"/>
<path d="M198.175 40.0211V55.0819H199.715V39.2509H198.175V40.0211Z" stroke="black"/>
<path d="M185.425 73.3088H212.808V74.8491H185.168V73.3088H185.425Z" stroke="black"/>
<path d="M212.808 91.5358V93.4184H185.168V91.5358H212.808Z" stroke="black"/>
<path d="M185.339 105.741H213.236V107.538L185.339 107.367V105.741Z" stroke="black"/>
<path d="M181.146 128.161V130.043H216.83V128.161H181.146Z" stroke="black"/>
<path d="M196.892 71.8541C196.892 71.8541 195.779 72.881 195.779 75.277C195.779 77.6731 195.351 78.7855 195.779 80.7537C196.207 82.7218 197.576 83.5776 197.576 86.1448C197.576 88.7119 195.779 93.1617 195.779 96.1567C195.779 99.1518 195.95 100.093 196.891 101.89C197.833 103.687 197.576 103.345 197.576 103.345L201.855 104.286C201.855 104.286 202.796 100.692 201.855 99.6652C200.913 98.6384 202.368 98.5528 201.17 93.8463C199.972 89.1398 200.913 87.8562 201.855 85.0323C202.796 82.2084 201.598 83.5776 200.657 80.7537C199.715 77.9298 201.17 77.8442 201.17 76.0472C201.17 74.2502 200.657 72.881 200.657 72.881L196.892 71.8541Z" fill="#228FFC" stroke="#228FFC"/>
<path d="M198.517 77.1596C198.517 77.1596 197.832 78.1865 197.918 78.7855C198.004 79.3845 198.517 80.4969 198.517 80.4969C198.517 80.4969 198.774 81.0959 199.03 81.5238C199.287 81.9516 199.715 82.1228 199.715 82.1228L199.03 80.4969C199.03 80.4969 198.517 79.3845 198.517 78.7855C198.517 78.1865 199.03 77.5874 199.03 77.1596C199.03 76.7317 198.517 77.1596 198.517 77.1596Z" fill="white" stroke="white"/>
<path d="M198.432 84.5189C198.432 84.5189 198.946 85.3746 199.202 86.1447C199.459 86.9149 199.117 87.4283 198.774 88.2841C198.432 89.1398 198.432 88.7975 198.432 88.7975L198.09 88.2841C197.748 87.7706 198.774 86.8293 198.774 86.1447C198.774 85.4602 198.432 84.5189 198.432 84.5189Z" fill="#FFFEFE"/>
<path d="M198.432 88.7975C198.432 88.7975 198.432 89.1398 198.774 88.2841C199.117 87.4283 199.459 86.9149 199.202 86.1447C198.946 85.3746 198.432 84.5189 198.432 84.5189C198.432 84.5189 198.774 85.4602 198.774 86.1447C198.774 86.8293 197.748 87.7706 198.09 88.2841M198.432 88.7975C198.432 88.7975 198.432 88.7975 198.09 88.2841M198.432 88.7975L198.09 88.2841" stroke="white"/>
<path d="M197.833 90.9368L198.346 93.3329C198.346 93.3329 199.202 94.0174 199.117 93.3329C199.031 92.6483 198.689 91.707 198.346 90.9368C198.004 90.1667 197.833 90.9368 197.833 90.9368Z" fill="white" stroke="white"/>
<path d="M199.544 98.5528C199.117 98.3816 199.202 98.8095 199.117 99.494C199.031 100.179 199.544 100.521 199.544 100.521C199.544 100.521 199.972 100.521 199.544 99.494C199.117 98.4672 199.972 98.7239 199.544 98.5528Z" fill="#FFFDFD" stroke="white"/>
<path d="M234.116 81.4383C234.544 81.9517 234.287 81.5238 234.544 82.294C234.8 83.0642 234.116 87.0861 234.116 87.0861C234.116 87.0861 233.773 88.712 233.26 89.4821C232.747 90.2523 232.661 90.0811 232.062 90.509C231.463 90.9368 230.693 91.0224 230.094 91.1936C229.495 91.3647 228.981 91.2792 228.126 91.0224C227.27 90.7657 226.329 90.509 226.329 90.509L221.793 88.712C221.793 88.712 217.6 86.0592 216.659 85.3746C215.718 84.69 210.926 82.6363 210.926 82.6363C210.926 82.6363 209.912 82.3818 209.727 81.9517C209.649 81.7674 209.727 81.4383 209.727 81.4383C209.727 80.5826 211.439 80.9249 211.439 80.9249C211.439 80.9249 233.688 80.9249 234.116 81.4383Z" fill="#D3BA21" stroke="#D3BA21"/>
<path d="M225.714 97.4672C226.264 97.8473 225.902 97.5038 226.355 98.1771C226.809 98.8504 227.226 102.909 227.226 102.909C227.226 102.909 227.332 104.567 227.043 105.446C226.755 106.326 226.627 106.184 226.164 106.757C225.701 107.329 224.982 107.618 224.451 107.943C223.92 108.268 223.402 108.324 222.509 108.305C221.616 108.287 220.64 108.292 220.64 108.292L215.789 107.775C215.789 107.775 211.039 106.342 209.949 105.934C208.858 105.527 203.691 104.831 203.691 104.831C203.691 104.831 202.646 104.857 202.354 104.492C202.228 104.336 202.216 103.998 202.216 103.998C201.987 103.173 203.728 103.045 203.728 103.045C203.728 103.045 225.164 97.0871 225.714 97.4672Z" fill="#D3BA21" stroke="#D3BA21"/>
<path d="M208.616 58.6759C208.017 58.4192 207.332 59.5317 207.589 59.9595C207.845 60.3874 210.755 62.1844 210.926 62.7834C211.097 63.3824 210.755 63.5536 210.156 64.1526C209.557 64.7516 209.557 64.8372 209.557 65.265V66.6342C209.557 67.5755 210.413 68.6024 210.413 68.6024L211.867 70.3138L212.723 70.9984L214.434 72.0253L215.975 72.4531C215.975 72.4531 216.574 72.4531 217.686 72.6243C218.799 72.7954 218.628 72.7098 219.483 73.0521C220.339 73.3944 220.082 73.2233 220.938 73.7367C221.794 74.2502 222.136 74.2502 222.136 74.2502L223.334 74.5069C223.334 74.5069 225.217 74.9347 225.217 74.5069C225.217 74.079 224.874 73.5656 224.874 73.5656L215.633 61.4143L214.862 60.9864H214.007L212.723 61.4143L211.867 61.7566C211.867 61.7566 209.215 58.9327 208.616 58.6759Z" fill="#D3BA21"/>
<path d="M209.557 65.265C209.557 64.8372 209.557 64.7516 210.156 64.1526C210.755 63.5536 211.097 63.3824 210.926 62.7834C210.755 62.1844 207.845 60.3874 207.589 59.9595C207.332 59.5317 208.017 58.4192 208.616 58.6759C209.215 58.9327 211.867 61.7566 211.867 61.7566L212.723 61.4143L214.007 60.9864H214.862L215.633 61.4143L224.874 73.5656C224.874 73.5656 225.217 74.079 225.217 74.5069C225.217 74.9347 223.334 74.5069 223.334 74.5069L222.136 74.2502C222.136 74.2502 221.794 74.2502 220.938 73.7367C220.082 73.2233 220.339 73.3944 219.483 73.0521C218.628 72.7098 218.799 72.7954 217.686 72.6243C216.574 72.4531 215.975 72.4531 215.975 72.4531L214.434 72.0253L212.723 70.9984L211.867 70.3138L210.413 68.6024C210.413 68.6024 209.557 67.5755 209.557 66.6342M209.557 65.265C209.557 65.6929 209.557 65.6929 209.557 66.6342M209.557 65.265V66.6342" stroke="#D3BA21"/>
<path d="M178.217 95.0951C177.495 95.3221 177.499 96.6836 177.995 96.8355C178.491 96.9875 182.319 96.3165 182.834 96.6638C183.35 97.0111 183.125 97.39 182.907 98.2878C182.69 99.1856 182.74 99.2527 182.992 99.5881L183.798 100.662C184.352 101.4 185.772 101.593 185.772 101.593L188.164 101.895L189.382 101.82L191.615 101.401L193.334 100.636C193.334 100.636 193.904 100.208 195.063 99.5466C196.223 98.8855 196.01 98.9408 197.026 98.5974C198.042 98.254 197.697 98.3034 198.814 98.0942C199.931 97.885 200.256 97.6404 200.256 97.6404L201.548 96.9852C201.548 96.9852 203.592 95.9749 203.34 95.6395C203.088 95.304 202.46 95.1462 202.46 95.1462L186.508 92.226L185.523 92.4411L184.709 93.0528L183.739 94.3058L183.126 95.1859C183.126 95.1859 178.938 94.8682 178.217 95.0951Z" fill="#3EADF7"/>
<path d="M182.992 99.5881C182.74 99.2527 182.69 99.1856 182.907 98.2878C183.125 97.39 183.35 97.0111 182.834 96.6638C182.319 96.3165 178.491 96.9875 177.995 96.8355C177.499 96.6836 177.495 95.3221 178.217 95.0951C178.938 94.8682 183.126 95.1859 183.126 95.1859L183.739 94.3058L184.709 93.0528L185.523 92.4411L186.508 92.226L202.46 95.1462C202.46 95.1462 203.088 95.304 203.34 95.6395C203.592 95.9749 201.548 96.9852 201.548 96.9852L200.256 97.6404C200.256 97.6404 199.931 97.885 198.814 98.0942C197.697 98.3034 198.042 98.254 197.026 98.5974C196.01 98.9408 196.223 98.8855 195.063 99.5466C193.904 100.208 193.334 100.636 193.334 100.636L191.615 101.401L189.382 101.82L188.164 101.895L185.772 101.593C185.772 101.593 184.352 101.4 183.798 100.662M182.992 99.5881C183.244 99.9236 183.244 99.9236 183.798 100.662M182.992 99.5881L183.798 100.662" stroke="#3EADF7"/>
<path d="M167.009 69.8926C166.358 69.8935 166.168 71.186 166.573 71.4775C166.978 71.7691 170.361 72.27 170.755 72.7526C171.149 73.2352 170.902 73.5277 170.589 74.3147C170.275 75.1017 170.309 75.1803 170.478 75.5733L171.019 76.831C171.391 77.6957 172.583 78.3008 172.583 78.3008L174.596 79.298L175.652 79.5886L177.63 79.8555L179.214 79.6398C179.214 79.6398 179.764 79.4031 180.854 79.1207C181.944 78.8382 181.752 78.8273 182.674 78.8035C183.595 78.7797 183.292 78.724 184.281 78.8574C185.27 78.9909 185.584 78.8556 185.584 78.8556L186.786 78.618C186.786 78.618 188.684 78.267 188.515 77.874C188.346 77.4809 187.829 77.1446 187.829 77.1446L174.537 69.6349L173.661 69.5462L172.875 69.8844L171.865 70.7847L171.214 71.4373C171.214 71.4373 167.661 69.8917 167.009 69.8926Z" fill="#F70619"/>
<path d="M170.478 75.5733C170.309 75.1803 170.275 75.1017 170.589 74.3147C170.902 73.5277 171.149 73.2352 170.755 72.7526C170.361 72.27 166.978 71.7691 166.573 71.4775C166.168 71.186 166.358 69.8935 167.009 69.8926C167.661 69.8917 171.214 71.4373 171.214 71.4373L171.865 70.7847L172.875 69.8844L173.661 69.5462L174.537 69.6349L187.829 77.1446C187.829 77.1446 188.346 77.4809 188.515 77.874C188.684 78.267 186.786 78.618 186.786 78.618L185.584 78.8556C185.584 78.8556 185.27 78.9909 184.281 78.8574C183.292 78.724 183.595 78.7797 182.674 78.8035C181.752 78.8273 181.944 78.8382 180.854 79.1207C179.764 79.4031 179.214 79.6398 179.214 79.6398L177.63 79.8555L175.652 79.5886L174.596 79.298L172.583 78.3008C172.583 78.3008 171.391 77.6957 171.019 76.831M170.478 75.5733C170.647 75.9663 170.647 75.9663 171.019 76.831M170.478 75.5733L171.019 76.831" stroke="#F70619"/>
<path d="M196.008 52.5827C196.649 52.702 196.6 54.0073 196.149 54.2204C195.698 54.4336 192.28 54.3113 191.805 54.7142C191.33 55.1172 191.519 55.4497 191.685 56.2805C191.85 57.1114 191.802 57.1825 191.565 57.5383L190.804 58.6767C190.281 59.4593 188.999 59.8377 188.999 59.8377L186.839 60.4525L185.747 60.5463L183.753 60.4492L182.235 59.9492C182.235 59.9492 181.737 59.6164 180.717 59.1407C179.697 58.6649 179.887 58.6889 178.985 58.498C178.083 58.3072 178.392 58.3075 177.395 58.259C176.398 58.2105 176.114 58.0203 176.114 58.0203L174.975 57.5682C174.975 57.5682 173.172 56.878 173.41 56.5222C173.647 56.1665 174.217 55.9297 174.217 55.9297L188.652 50.961L189.531 51.0331L190.242 51.5086L191.072 52.5774L191.593 53.3375C191.593 53.3375 195.367 52.4633 196.008 52.5827Z" fill="#F70619"/>
<path d="M191.565 57.5383C191.802 57.1825 191.85 57.1114 191.685 56.2805C191.519 55.4497 191.33 55.1172 191.805 54.7142C192.28 54.3113 195.698 54.4336 196.149 54.2204C196.6 54.0073 196.649 52.702 196.008 52.5827C195.367 52.4633 191.593 53.3375 191.593 53.3375L191.072 52.5774L190.242 51.5086L189.531 51.0331L188.652 50.961L174.217 55.9297C174.217 55.9297 173.647 56.1665 173.41 56.5222C173.172 56.878 174.975 57.5682 174.975 57.5682L176.114 58.0203C176.114 58.0203 176.398 58.2105 177.395 58.259C178.392 58.3075 178.083 58.3072 178.985 58.498C179.887 58.6889 179.697 58.6649 180.717 59.1407C181.737 59.6164 182.235 59.9492 182.235 59.9492L183.753 60.4492L185.747 60.5463L186.839 60.4525L188.999 59.8377C188.999 59.8377 190.281 59.4593 190.804 58.6767M191.565 57.5383C191.327 57.894 191.327 57.894 190.804 58.6767M191.565 57.5383L190.804 58.6767" stroke="#F70619"/>
<path d="M199.287 23.9334V39.0798L198.432 39.4221L197.319 39.6788L194.923 40.3634L191.415 40.7912L189.532 41.048L187.992 41.3047L186.109 41.5614L184.398 42.0748L182.943 42.5883L181.574 43.3584L181.06 43.9574L180.804 44.5564L181.06 134.151C181.06 134.151 180.975 134.836 181.232 135.435C181.488 136.034 181.488 136.034 181.831 136.547C182.173 137.06 182.173 137.146 182.686 137.574C183.2 138.002 185.168 139.285 185.168 139.285L187.393 140.74L189.275 141.853L191.072 142.879L192.356 143.564C192.356 143.564 192.698 143.735 193.383 143.992C194.067 144.249 199.459 144.163 199.459 144.163V146.388C199.459 146.388 192.698 146.473 191.928 146.131C191.158 145.789 191.072 145.703 191.072 145.703L186.537 143.136C186.537 143.136 185.168 142.366 184.141 141.681C183.114 140.997 183.2 140.997 182.173 140.227C181.146 139.456 181.06 139.456 180.461 138.943C179.862 138.43 179.606 138.087 179.263 137.574C178.921 137.06 178.408 136.29 178.236 135.606C178.065 134.921 177.894 133.809 177.894 133.809V133.039V44.5564V43.0161C177.894 43.0161 177.723 42.5883 178.151 41.9037C178.579 41.2191 179.092 40.9624 179.092 40.9624L179.948 40.6201C179.948 40.6201 180.632 40.3634 181.06 40.1922C181.488 40.0211 182.43 39.8499 182.43 39.8499L184.398 39.4221L186.109 39.0798L187.992 38.6519L189.874 38.3096L190.901 38.1385L192.27 37.8818L193.64 37.4539C193.64 37.4539 194.923 37.1116 194.923 36.427C194.923 35.7425 194.923 35.229 194.923 35.229C194.923 35.229 194.752 29.4101 194.923 28.7255C195.094 28.0409 195.265 27.7842 195.265 27.7842C195.265 27.7842 195.693 27.0996 195.864 26.7573C196.036 26.415 196.378 26.0727 196.72 25.6449C197.062 25.217 197.319 24.9603 197.747 24.5324C198.175 24.1046 198.089 24.1902 198.432 23.9334C198.774 23.6767 199.287 23.9334 199.287 23.9334Z" fill="black" stroke="black"/>
<path d="M198.518 24.0476V39.1939L199.374 39.5362L200.486 39.7929L202.882 40.4775L206.391 40.9054L208.273 41.1621L209.813 41.4188L211.696 41.6755L213.407 42.189L214.862 42.7024L216.231 43.4726L216.745 44.0716L217.002 44.6706L216.745 134.265C216.745 134.265 216.83 134.95 216.574 135.549C216.317 136.148 216.317 136.148 215.975 136.661C215.632 137.175 215.632 137.26 215.119 137.688C214.605 138.116 212.637 139.399 212.637 139.399L210.412 140.854L208.53 141.967L206.733 142.994L205.449 143.678C205.449 143.678 205.107 143.849 204.422 144.106C203.738 144.363 199.374 144.277 199.374 144.277V146.416C199.374 146.416 205.107 146.588 205.877 146.245C206.647 145.903 206.733 145.817 206.733 145.817L211.268 143.25C211.268 143.25 212.637 142.48 213.664 141.795C214.691 141.111 214.605 141.111 215.632 140.341C216.659 139.571 216.745 139.571 217.344 139.057C217.943 138.544 218.2 138.201 218.542 137.688C218.884 137.175 219.398 136.404 219.569 135.72C219.74 135.035 219.911 133.923 219.911 133.923V133.153V44.6706V43.1303C219.911 43.1303 220.082 42.7024 219.654 42.0178C219.226 41.3332 218.713 41.0765 218.713 41.0765L217.857 40.7342C217.857 40.7342 217.173 40.4775 216.745 40.3064C216.317 40.1352 215.376 39.9641 215.376 39.9641L213.407 39.5362L211.696 39.1939L209.813 38.7661L207.931 38.4238L206.904 38.2526L205.535 37.9959L204.166 37.568C204.166 37.568 202.882 37.2257 202.882 36.5412C202.882 35.8566 202.882 35.3432 202.882 35.3432C202.882 35.3432 203.053 29.5242 202.882 28.8396C202.711 28.1551 202.54 27.8983 202.54 27.8983C202.54 27.8983 202.112 27.2137 201.941 26.8715C201.77 26.5292 201.427 26.1869 201.085 25.759C200.743 25.3312 200.486 25.0744 200.058 24.6466C199.63 24.2187 199.716 24.3043 199.374 24.0476C199.031 23.7909 198.518 24.0476 198.518 24.0476Z" fill="black" stroke="black"/>
<rect x="195.608" y="54.9107" width="7.01697" height="7.1881" rx="3.50848" fill="#F70619"/>
<rect x="194.068" y="58.8471" width="9.41301" height="15.9165" rx="4.7065" fill="#D3BA21"/>
<rect x="193.896" y="100.949" width="9.41301" height="15.9165" rx="4.7065" fill="#D3BA21"/>
<path d="M206.048 100.863C204.594 100.778 201.941 102.404 200.657 103.174C199.374 103.944 197.405 105.484 197.405 107.623C197.405 109.763 197.405 109.078 197.405 113.015C197.405 116.951 196.635 122.085 196.635 122.085V123.797H203.053C203.053 123.797 203.823 117.293 203.053 115.753C202.283 114.213 201.513 111.389 201.513 109.335C201.513 107.281 203.053 104.8 203.053 104.8L206.048 102.318L209.899 101.633C209.899 101.633 207.503 100.949 206.048 100.863Z" fill="#228FFC" stroke="#228FFC"/>
<path d="M200.898 104.213C200.898 104.213 199.601 105.111 199.293 105.595C198.985 106.08 199.055 107.894 199.003 108.404C198.95 108.915 198.844 109.936 199.311 110.415C199.778 110.893 200.045 109.974 200.045 109.974C200.045 109.974 199.601 107.606 199.654 107.095C199.707 106.584 200.059 105.674 200.059 105.674L200.898 104.213Z" fill="white"/>
<path d="M200.045 113.442C200.045 113.442 200.4 114.041 200.571 114.469C200.742 114.897 200.898 115.325 200.898 115.838C200.898 116.352 201.085 117.293 201.427 117.379C201.769 117.464 202.111 116.352 202.026 115.838C201.94 115.325 201.769 114.897 201.427 114.469C201.085 114.041 200.045 113.442 200.045 113.442Z" fill="white"/>
<path d="M200.898 104.213C200.898 104.213 199.601 105.111 199.293 105.595C198.985 106.08 199.055 107.894 199.003 108.404C198.95 108.915 198.844 109.936 199.311 110.415C199.778 110.893 200.045 109.974 200.045 109.974C200.045 109.974 199.601 107.606 199.654 107.095C199.707 106.584 200.059 105.674 200.059 105.674L200.898 104.213Z" stroke="white"/>
<path d="M200.045 113.442C200.045 113.442 200.4 114.041 200.571 114.469C200.742 114.897 200.898 115.325 200.898 115.838C200.898 116.352 201.085 117.293 201.427 117.379C201.769 117.464 202.111 116.352 202.026 115.838C201.94 115.325 201.769 114.897 201.427 114.469C201.085 114.041 200.045 113.442 200.045 113.442Z" stroke="white"/>
<path d="M231.535 124.767C232.964 125.198 232.772 128.023 231.748 128.366C230.723 128.708 223.068 127.526 221.978 128.275C220.888 129.024 221.292 129.797 221.61 131.648C221.929 133.499 221.818 133.641 221.263 134.351L219.486 136.622C218.264 138.183 215.367 138.662 215.367 138.662L210.485 139.42L208.031 139.331L203.568 138.586L200.195 137.091C200.195 137.091 199.099 136.234 196.842 134.926C194.585 133.618 195.009 133.721 192.999 133.065C190.99 132.408 191.681 132.491 189.45 132.119C187.218 131.746 186.592 131.256 186.592 131.256L184.067 129.968C184.067 129.968 180.068 127.984 180.623 127.274C181.178 126.564 182.471 126.202 182.471 126.202L215.145 119.269L217.109 119.661L218.675 120.886L220.467 123.432L221.589 125.224C221.589 125.224 230.106 124.336 231.535 124.767Z" fill="#3EADF7"/>
<path d="M221.263 134.351C221.818 133.641 221.929 133.499 221.61 131.648C221.292 129.797 220.888 129.024 221.978 128.275C223.068 127.526 230.723 128.708 231.748 128.366C232.772 128.023 232.964 125.198 231.535 124.767C230.106 124.336 221.589 125.224 221.589 125.224L220.467 123.432L218.675 120.886L217.109 119.661L215.145 119.269L182.471 126.202C182.471 126.202 181.178 126.564 180.623 127.274C180.068 127.984 184.067 129.968 184.067 129.968L186.592 131.256C186.592 131.256 187.218 131.746 189.45 132.119C191.681 132.491 190.99 132.408 192.999 133.065C195.009 133.721 194.585 133.618 196.842 134.926C199.099 136.234 200.195 137.091 200.195 137.091L203.568 138.586L208.031 139.331L210.485 139.42L215.367 138.662C215.367 138.662 218.264 138.183 219.486 136.622M221.263 134.351C220.707 135.06 220.707 135.06 219.486 136.622M221.263 134.351L219.486 136.622" stroke="#3EADF7"/>
<path d="M222.136 69.7147C222.136 69.7147 224.361 72.5386 224.703 73.1376C225.046 73.7366 225.388 74.4212 225.388 74.4212V75.1058C225.388 75.1058 225.046 75.9615 225.046 76.7317C225.046 77.5018 225.816 77.4163 225.816 78.1008C225.816 78.7854 225.046 79.0421 225.046 79.7267C225.046 80.4113 225.388 80.8392 225.388 80.8392L228.811 81.1815C228.811 81.1815 228.811 80.4113 228.383 79.7267C227.955 79.0421 228.383 79.2133 228.383 78.4431C228.383 77.673 227.271 77.4163 227.271 76.7317C227.271 76.0471 227.784 76.3894 227.698 75.5337C227.613 74.6779 227.271 74.4212 227.271 74.4212C227.271 74.4212 227.271 73.5655 226.415 72.7953C225.559 72.0252 222.136 69.7147 222.136 69.7147Z" fill="#228FFC" stroke="#228FFC"/>
<path d="M226.072 73.1378C226.072 73.1378 226.5 73.3945 226.671 73.6512C226.842 73.9079 226.842 73.9079 226.842 74.1646C226.842 74.4213 226.842 74.6781 226.671 74.5925C226.5 74.5069 226.5 74.4213 226.5 74.1646C226.5 73.9079 226.5 73.9079 226.328 73.6512C226.157 73.3945 226.072 73.1378 226.072 73.1378Z" fill="white" stroke="white"/>
<path d="M226.5 75.7905C226.5 75.7905 226.073 76.0472 225.901 76.3039C225.73 76.5606 225.73 76.5606 225.73 76.8173C225.73 77.0741 225.73 77.3308 225.901 77.2452C226.073 77.1596 226.073 77.0741 226.073 76.8173C226.073 76.5606 226.073 76.5606 226.244 76.3039C226.415 76.0472 226.5 75.7905 226.5 75.7905Z" fill="white" stroke="white"/>
<path d="M227.27 77.3307C227.27 77.3307 227.698 77.5875 227.869 77.8442C228.04 78.1009 228.04 78.1009 228.04 78.3576C228.04 78.6143 228.04 78.8711 227.869 78.7855C227.698 78.6999 227.698 78.6143 227.698 78.3576C227.698 78.1009 227.698 78.1009 227.527 77.8442C227.356 77.5875 227.27 77.3307 227.27 77.3307Z" fill="white" stroke="white"/>
<path d="M185.511 75.7049C185.426 76.0472 188.164 77.1596 188.592 77.6731C189.02 78.1865 189.79 79.6412 190.047 80.4114C190.303 81.1815 191.074 83.0641 191.073 83.8343C191.073 84.6044 190.707 85.0821 190.707 86.3121C190.707 87.542 191.675 87.4054 191.675 88.4986C191.675 89.5919 190.707 90.0019 190.707 91.0952C190.707 92.1885 191.073 92.9906 191.073 92.9906L195.523 93.7607C195.523 93.7607 195.438 92.1885 194.9 91.0952C194.363 90.0019 194.9 90.2752 194.9 89.0453C194.9 87.8153 193.502 87.4054 193.502 86.3121C193.502 85.2188 194.148 85.7654 194.04 84.3988C193.932 83.0322 193.726 83.6631 193.502 82.6222C193.279 81.5813 193.946 80.1866 192.871 78.9567C191.795 77.7267 185.597 75.3626 185.511 75.7049Z" fill="#228FFC" stroke="#228FFC"/>
<path d="M191.997 80.5723C191.997 80.5723 192.534 80.9823 192.749 81.3923C192.964 81.8023 192.964 81.8023 192.964 82.2123C192.964 82.6222 192.964 83.0322 192.749 82.8956C192.534 82.7589 192.534 82.6222 192.534 82.2123C192.534 81.8023 192.534 81.8023 192.319 81.3923C192.104 80.9823 191.997 80.5723 191.997 80.5723Z" fill="white" stroke="white"/>
<path d="M192.535 84.8088C192.535 84.8088 191.997 85.2188 191.782 85.6288C191.567 86.0388 191.567 86.0388 191.567 86.4488C191.567 86.8587 191.567 87.2687 191.782 87.1321C191.997 86.9954 191.997 86.8587 191.997 86.4488C191.997 86.0388 191.997 86.0388 192.212 85.6288C192.427 85.2188 192.535 84.8088 192.535 84.8088Z" fill="white" stroke="white"/>
<path d="M193.502 87.2687C193.502 87.2687 194.04 87.6787 194.255 88.0887C194.47 88.4987 194.47 88.4987 194.47 88.9087C194.47 89.3186 194.47 89.7286 194.255 89.592C194.04 89.4553 194.04 89.3186 194.04 88.9087C194.04 88.4987 194.04 88.4987 193.825 88.0887C193.61 87.6787 193.502 87.2687 193.502 87.2687Z" fill="white" stroke="white"/>
</svg>
